%TF.GenerationSoftware,KiCad,Pcbnew,5.1.6*%
%TF.CreationDate,2020-09-20T21:14:14+03:00*%
%TF.ProjectId,Ball40,42616c6c-3430-42e6-9b69-6361645f7063,rev?*%
%TF.SameCoordinates,Original*%
%TF.FileFunction,Copper,L2,Bot*%
%TF.FilePolarity,Positive*%
%FSLAX46Y46*%
G04 Gerber Fmt 4.6, Leading zero omitted, Abs format (unit mm)*
G04 Created by KiCad (PCBNEW 5.1.6) date 2020-09-20 21:14:14*
%MOMM*%
%LPD*%
G01*
G04 APERTURE LIST*
%TA.AperFunction,SMDPad,CuDef*%
%ADD10R,0.400000X1.900000*%
%TD*%
%TA.AperFunction,SMDPad,CuDef*%
%ADD11C,0.100000*%
%TD*%
%TA.AperFunction,SMDPad,CuDef*%
%ADD12R,1.060000X0.650000*%
%TD*%
%TA.AperFunction,SMDPad,CuDef*%
%ADD13R,1.800000X1.100000*%
%TD*%
%TA.AperFunction,ComponentPad*%
%ADD14C,2.250000*%
%TD*%
%TA.AperFunction,ComponentPad*%
%ADD15C,2.200000*%
%TD*%
%TA.AperFunction,ComponentPad*%
%ADD16C,0.650000*%
%TD*%
%TA.AperFunction,ComponentPad*%
%ADD17O,0.900000X2.400000*%
%TD*%
%TA.AperFunction,ComponentPad*%
%ADD18O,0.900000X1.700000*%
%TD*%
%TA.AperFunction,ComponentPad*%
%ADD19C,0.100000*%
%TD*%
%TA.AperFunction,ViaPad*%
%ADD20C,0.800000*%
%TD*%
%TA.AperFunction,Conductor*%
%ADD21C,0.250000*%
%TD*%
G04 APERTURE END LIST*
D10*
%TO.P,Y1,3*%
%TO.N,Net-(U2-Pad16)*%
X132645000Y-144399000D03*
%TO.P,Y1,2*%
%TO.N,GND*%
X131445000Y-144399000D03*
%TO.P,Y1,1*%
%TO.N,Net-(U2-Pad17)*%
X130245000Y-144399000D03*
%TD*%
%TA.AperFunction,SMDPad,CuDef*%
D11*
%TO.P,U2,44*%
%TO.N,+5V*%
G36*
X126141702Y-114761940D02*
G01*
X125752794Y-115150848D01*
X124692134Y-114090188D01*
X125081042Y-113701280D01*
X126141702Y-114761940D01*
G37*
%TD.AperFunction*%
%TA.AperFunction,SMDPad,CuDef*%
%TO.P,U2,43*%
%TO.N,GND*%
G36*
X125576017Y-115327626D02*
G01*
X125187109Y-115716534D01*
X124126449Y-114655874D01*
X124515357Y-114266966D01*
X125576017Y-115327626D01*
G37*
%TD.AperFunction*%
%TA.AperFunction,SMDPad,CuDef*%
%TO.P,U2,42*%
%TO.N,Net-(U2-Pad42)*%
G36*
X125010332Y-115893311D02*
G01*
X124621424Y-116282219D01*
X123560764Y-115221559D01*
X123949672Y-114832651D01*
X125010332Y-115893311D01*
G37*
%TD.AperFunction*%
%TA.AperFunction,SMDPad,CuDef*%
%TO.P,U2,41*%
%TO.N,Net-(U2-Pad41)*%
G36*
X124444646Y-116458996D02*
G01*
X124055738Y-116847904D01*
X122995078Y-115787244D01*
X123383986Y-115398336D01*
X124444646Y-116458996D01*
G37*
%TD.AperFunction*%
%TA.AperFunction,SMDPad,CuDef*%
%TO.P,U2,40*%
%TO.N,Net-(U2-Pad40)*%
G36*
X123878961Y-117024682D02*
G01*
X123490053Y-117413590D01*
X122429393Y-116352930D01*
X122818301Y-115964022D01*
X123878961Y-117024682D01*
G37*
%TD.AperFunction*%
%TA.AperFunction,SMDPad,CuDef*%
%TO.P,U2,39*%
%TO.N,Net-(U2-Pad39)*%
G36*
X123313275Y-117590367D02*
G01*
X122924367Y-117979275D01*
X121863707Y-116918615D01*
X122252615Y-116529707D01*
X123313275Y-117590367D01*
G37*
%TD.AperFunction*%
%TA.AperFunction,SMDPad,CuDef*%
%TO.P,U2,38*%
%TO.N,Net-(U2-Pad38)*%
G36*
X122747590Y-118156053D02*
G01*
X122358682Y-118544961D01*
X121298022Y-117484301D01*
X121686930Y-117095393D01*
X122747590Y-118156053D01*
G37*
%TD.AperFunction*%
%TA.AperFunction,SMDPad,CuDef*%
%TO.P,U2,37*%
%TO.N,Net-(U2-Pad37)*%
G36*
X122181904Y-118721738D02*
G01*
X121792996Y-119110646D01*
X120732336Y-118049986D01*
X121121244Y-117661078D01*
X122181904Y-118721738D01*
G37*
%TD.AperFunction*%
%TA.AperFunction,SMDPad,CuDef*%
%TO.P,U2,36*%
%TO.N,Net-(U2-Pad36)*%
G36*
X121616219Y-119287424D02*
G01*
X121227311Y-119676332D01*
X120166651Y-118615672D01*
X120555559Y-118226764D01*
X121616219Y-119287424D01*
G37*
%TD.AperFunction*%
%TA.AperFunction,SMDPad,CuDef*%
%TO.P,U2,35*%
%TO.N,GND*%
G36*
X121050534Y-119853109D02*
G01*
X120661626Y-120242017D01*
X119600966Y-119181357D01*
X119989874Y-118792449D01*
X121050534Y-119853109D01*
G37*
%TD.AperFunction*%
%TA.AperFunction,SMDPad,CuDef*%
%TO.P,U2,34*%
%TO.N,+5V*%
G36*
X120484848Y-120418794D02*
G01*
X120095940Y-120807702D01*
X119035280Y-119747042D01*
X119424188Y-119358134D01*
X120484848Y-120418794D01*
G37*
%TD.AperFunction*%
%TA.AperFunction,SMDPad,CuDef*%
%TO.P,U2,33*%
%TO.N,Net-(R6-Pad2)*%
G36*
X120095940Y-121762298D02*
G01*
X120484848Y-122151206D01*
X119424188Y-123211866D01*
X119035280Y-122822958D01*
X120095940Y-121762298D01*
G37*
%TD.AperFunction*%
%TA.AperFunction,SMDPad,CuDef*%
%TO.P,U2,32*%
%TO.N,COL0*%
G36*
X120661626Y-122327983D02*
G01*
X121050534Y-122716891D01*
X119989874Y-123777551D01*
X119600966Y-123388643D01*
X120661626Y-122327983D01*
G37*
%TD.AperFunction*%
%TA.AperFunction,SMDPad,CuDef*%
%TO.P,U2,31*%
%TO.N,COL1*%
G36*
X121227311Y-122893668D02*
G01*
X121616219Y-123282576D01*
X120555559Y-124343236D01*
X120166651Y-123954328D01*
X121227311Y-122893668D01*
G37*
%TD.AperFunction*%
%TA.AperFunction,SMDPad,CuDef*%
%TO.P,U2,30*%
%TO.N,COL2*%
G36*
X121792996Y-123459354D02*
G01*
X122181904Y-123848262D01*
X121121244Y-124908922D01*
X120732336Y-124520014D01*
X121792996Y-123459354D01*
G37*
%TD.AperFunction*%
%TA.AperFunction,SMDPad,CuDef*%
%TO.P,U2,29*%
%TO.N,COL3*%
G36*
X122358682Y-124025039D02*
G01*
X122747590Y-124413947D01*
X121686930Y-125474607D01*
X121298022Y-125085699D01*
X122358682Y-124025039D01*
G37*
%TD.AperFunction*%
%TA.AperFunction,SMDPad,CuDef*%
%TO.P,U2,28*%
%TO.N,COL4*%
G36*
X122924367Y-124590725D02*
G01*
X123313275Y-124979633D01*
X122252615Y-126040293D01*
X121863707Y-125651385D01*
X122924367Y-124590725D01*
G37*
%TD.AperFunction*%
%TA.AperFunction,SMDPad,CuDef*%
%TO.P,U2,27*%
%TO.N,COL9*%
G36*
X123490053Y-125156410D02*
G01*
X123878961Y-125545318D01*
X122818301Y-126605978D01*
X122429393Y-126217070D01*
X123490053Y-125156410D01*
G37*
%TD.AperFunction*%
%TA.AperFunction,SMDPad,CuDef*%
%TO.P,U2,26*%
%TO.N,COL8*%
G36*
X124055738Y-125722096D02*
G01*
X124444646Y-126111004D01*
X123383986Y-127171664D01*
X122995078Y-126782756D01*
X124055738Y-125722096D01*
G37*
%TD.AperFunction*%
%TA.AperFunction,SMDPad,CuDef*%
%TO.P,U2,25*%
%TO.N,COL7*%
G36*
X124621424Y-126287781D02*
G01*
X125010332Y-126676689D01*
X123949672Y-127737349D01*
X123560764Y-127348441D01*
X124621424Y-126287781D01*
G37*
%TD.AperFunction*%
%TA.AperFunction,SMDPad,CuDef*%
%TO.P,U2,24*%
%TO.N,+5V*%
G36*
X125187109Y-126853466D02*
G01*
X125576017Y-127242374D01*
X124515357Y-128303034D01*
X124126449Y-127914126D01*
X125187109Y-126853466D01*
G37*
%TD.AperFunction*%
%TA.AperFunction,SMDPad,CuDef*%
%TO.P,U2,23*%
%TO.N,GND*%
G36*
X125752794Y-127419152D02*
G01*
X126141702Y-127808060D01*
X125081042Y-128868720D01*
X124692134Y-128479812D01*
X125752794Y-127419152D01*
G37*
%TD.AperFunction*%
%TA.AperFunction,SMDPad,CuDef*%
%TO.P,U2,22*%
%TO.N,COL6*%
G36*
X128545866Y-128479812D02*
G01*
X128156958Y-128868720D01*
X127096298Y-127808060D01*
X127485206Y-127419152D01*
X128545866Y-128479812D01*
G37*
%TD.AperFunction*%
%TA.AperFunction,SMDPad,CuDef*%
%TO.P,U2,21*%
%TO.N,COL5*%
G36*
X129111551Y-127914126D02*
G01*
X128722643Y-128303034D01*
X127661983Y-127242374D01*
X128050891Y-126853466D01*
X129111551Y-127914126D01*
G37*
%TD.AperFunction*%
%TA.AperFunction,SMDPad,CuDef*%
%TO.P,U2,20*%
%TO.N,Net-(U2-Pad20)*%
G36*
X129677236Y-127348441D02*
G01*
X129288328Y-127737349D01*
X128227668Y-126676689D01*
X128616576Y-126287781D01*
X129677236Y-127348441D01*
G37*
%TD.AperFunction*%
%TA.AperFunction,SMDPad,CuDef*%
%TO.P,U2,19*%
%TO.N,Net-(J1-Pad6)*%
G36*
X130242922Y-126782756D02*
G01*
X129854014Y-127171664D01*
X128793354Y-126111004D01*
X129182262Y-125722096D01*
X130242922Y-126782756D01*
G37*
%TD.AperFunction*%
%TA.AperFunction,SMDPad,CuDef*%
%TO.P,U2,18*%
%TO.N,Net-(U2-Pad18)*%
G36*
X130808607Y-126217070D02*
G01*
X130419699Y-126605978D01*
X129359039Y-125545318D01*
X129747947Y-125156410D01*
X130808607Y-126217070D01*
G37*
%TD.AperFunction*%
%TA.AperFunction,SMDPad,CuDef*%
%TO.P,U2,17*%
%TO.N,Net-(U2-Pad17)*%
G36*
X131374293Y-125651385D02*
G01*
X130985385Y-126040293D01*
X129924725Y-124979633D01*
X130313633Y-124590725D01*
X131374293Y-125651385D01*
G37*
%TD.AperFunction*%
%TA.AperFunction,SMDPad,CuDef*%
%TO.P,U2,16*%
%TO.N,Net-(U2-Pad16)*%
G36*
X131939978Y-125085699D02*
G01*
X131551070Y-125474607D01*
X130490410Y-124413947D01*
X130879318Y-124025039D01*
X131939978Y-125085699D01*
G37*
%TD.AperFunction*%
%TA.AperFunction,SMDPad,CuDef*%
%TO.P,U2,15*%
%TO.N,GND*%
G36*
X132505664Y-124520014D02*
G01*
X132116756Y-124908922D01*
X131056096Y-123848262D01*
X131445004Y-123459354D01*
X132505664Y-124520014D01*
G37*
%TD.AperFunction*%
%TA.AperFunction,SMDPad,CuDef*%
%TO.P,U2,14*%
%TO.N,+5V*%
G36*
X133071349Y-123954328D02*
G01*
X132682441Y-124343236D01*
X131621781Y-123282576D01*
X132010689Y-122893668D01*
X133071349Y-123954328D01*
G37*
%TD.AperFunction*%
%TA.AperFunction,SMDPad,CuDef*%
%TO.P,U2,13*%
%TO.N,Net-(J1-Pad8)*%
G36*
X133637034Y-123388643D02*
G01*
X133248126Y-123777551D01*
X132187466Y-122716891D01*
X132576374Y-122327983D01*
X133637034Y-123388643D01*
G37*
%TD.AperFunction*%
%TA.AperFunction,SMDPad,CuDef*%
%TO.P,U2,12*%
%TO.N,Net-(U2-Pad12)*%
G36*
X134202720Y-122822958D02*
G01*
X133813812Y-123211866D01*
X132753152Y-122151206D01*
X133142060Y-121762298D01*
X134202720Y-122822958D01*
G37*
%TD.AperFunction*%
%TA.AperFunction,SMDPad,CuDef*%
%TO.P,U2,11*%
%TO.N,Net-(J1-Pad2)*%
G36*
X133813812Y-119358134D02*
G01*
X134202720Y-119747042D01*
X133142060Y-120807702D01*
X132753152Y-120418794D01*
X133813812Y-119358134D01*
G37*
%TD.AperFunction*%
%TA.AperFunction,SMDPad,CuDef*%
%TO.P,U2,10*%
%TO.N,Net-(J1-Pad3)*%
G36*
X133248126Y-118792449D02*
G01*
X133637034Y-119181357D01*
X132576374Y-120242017D01*
X132187466Y-119853109D01*
X133248126Y-118792449D01*
G37*
%TD.AperFunction*%
%TA.AperFunction,SMDPad,CuDef*%
%TO.P,U2,9*%
%TO.N,Net-(J1-Pad4)*%
G36*
X132682441Y-118226764D02*
G01*
X133071349Y-118615672D01*
X132010689Y-119676332D01*
X131621781Y-119287424D01*
X132682441Y-118226764D01*
G37*
%TD.AperFunction*%
%TA.AperFunction,SMDPad,CuDef*%
%TO.P,U2,8*%
%TO.N,Net-(J1-Pad5)*%
G36*
X132116756Y-117661078D02*
G01*
X132505664Y-118049986D01*
X131445004Y-119110646D01*
X131056096Y-118721738D01*
X132116756Y-117661078D01*
G37*
%TD.AperFunction*%
%TA.AperFunction,SMDPad,CuDef*%
%TO.P,U2,7*%
%TO.N,+5V*%
G36*
X131551070Y-117095393D02*
G01*
X131939978Y-117484301D01*
X130879318Y-118544961D01*
X130490410Y-118156053D01*
X131551070Y-117095393D01*
G37*
%TD.AperFunction*%
%TA.AperFunction,SMDPad,CuDef*%
%TO.P,U2,6*%
%TO.N,Net-(C3-Pad1)*%
G36*
X130985385Y-116529707D02*
G01*
X131374293Y-116918615D01*
X130313633Y-117979275D01*
X129924725Y-117590367D01*
X130985385Y-116529707D01*
G37*
%TD.AperFunction*%
%TA.AperFunction,SMDPad,CuDef*%
%TO.P,U2,5*%
%TO.N,GND*%
G36*
X130419699Y-115964022D02*
G01*
X130808607Y-116352930D01*
X129747947Y-117413590D01*
X129359039Y-117024682D01*
X130419699Y-115964022D01*
G37*
%TD.AperFunction*%
%TA.AperFunction,SMDPad,CuDef*%
%TO.P,U2,4*%
%TO.N,Net-(R4-Pad1)*%
G36*
X129854014Y-115398336D02*
G01*
X130242922Y-115787244D01*
X129182262Y-116847904D01*
X128793354Y-116458996D01*
X129854014Y-115398336D01*
G37*
%TD.AperFunction*%
%TA.AperFunction,SMDPad,CuDef*%
%TO.P,U2,3*%
%TO.N,Net-(R5-Pad1)*%
G36*
X129288328Y-114832651D02*
G01*
X129677236Y-115221559D01*
X128616576Y-116282219D01*
X128227668Y-115893311D01*
X129288328Y-114832651D01*
G37*
%TD.AperFunction*%
%TA.AperFunction,SMDPad,CuDef*%
%TO.P,U2,2*%
%TO.N,+5V*%
G36*
X128722643Y-114266966D02*
G01*
X129111551Y-114655874D01*
X128050891Y-115716534D01*
X127661983Y-115327626D01*
X128722643Y-114266966D01*
G37*
%TD.AperFunction*%
%TA.AperFunction,SMDPad,CuDef*%
%TO.P,U2,1*%
%TO.N,Net-(U2-Pad1)*%
G36*
X128156958Y-113701280D02*
G01*
X128545866Y-114090188D01*
X127485206Y-115150848D01*
X127096298Y-114761940D01*
X128156958Y-113701280D01*
G37*
%TD.AperFunction*%
%TD*%
D12*
%TO.P,U1,5*%
%TO.N,VBUS*%
X156464000Y-65913000D03*
%TO.P,U1,6*%
%TO.N,DBUS+*%
X156464000Y-66863000D03*
%TO.P,U1,4*%
%TO.N,DBUS-*%
X156464000Y-64963000D03*
%TO.P,U1,3*%
%TO.N,DBUS+*%
X154264000Y-64963000D03*
%TO.P,U1,2*%
%TO.N,GND*%
X154264000Y-65913000D03*
%TO.P,U1,1*%
%TO.N,DBUS-*%
X154264000Y-66863000D03*
%TD*%
D13*
%TO.P,SW1,4*%
%TO.N,N/C*%
X151563000Y-144471000D03*
%TO.P,SW1,3*%
X145363000Y-140771000D03*
%TO.P,SW1,2*%
%TO.N,Net-(J1-Pad8)*%
X151563000Y-140771000D03*
%TO.P,SW1,1*%
%TO.N,GND*%
X145363000Y-144471000D03*
%TD*%
%TO.P,R6,2*%
%TO.N,Net-(R6-Pad2)*%
%TA.AperFunction,SMDPad,CuDef*%
G36*
G01*
X117733419Y-129788184D02*
X117088184Y-130433419D01*
G75*
G02*
X116743470Y-130433419I-172357J172357D01*
G01*
X116398755Y-130088704D01*
G75*
G02*
X116398755Y-129743990I172357J172357D01*
G01*
X117043990Y-129098755D01*
G75*
G02*
X117388704Y-129098755I172357J-172357D01*
G01*
X117733419Y-129443470D01*
G75*
G02*
X117733419Y-129788184I-172357J-172357D01*
G01*
G37*
%TD.AperFunction*%
%TO.P,R6,1*%
%TO.N,GND*%
%TA.AperFunction,SMDPad,CuDef*%
G36*
G01*
X119059245Y-131114010D02*
X118414010Y-131759245D01*
G75*
G02*
X118069296Y-131759245I-172357J172357D01*
G01*
X117724581Y-131414530D01*
G75*
G02*
X117724581Y-131069816I172357J172357D01*
G01*
X118369816Y-130424581D01*
G75*
G02*
X118714530Y-130424581I172357J-172357D01*
G01*
X119059245Y-130769296D01*
G75*
G02*
X119059245Y-131114010I-172357J-172357D01*
G01*
G37*
%TD.AperFunction*%
%TD*%
%TO.P,R5,2*%
%TO.N,DBUS-*%
%TA.AperFunction,SMDPad,CuDef*%
G36*
G01*
X133101816Y-109605419D02*
X132456581Y-108960184D01*
G75*
G02*
X132456581Y-108615470I172357J172357D01*
G01*
X132801296Y-108270755D01*
G75*
G02*
X133146010Y-108270755I172357J-172357D01*
G01*
X133791245Y-108915990D01*
G75*
G02*
X133791245Y-109260704I-172357J-172357D01*
G01*
X133446530Y-109605419D01*
G75*
G02*
X133101816Y-109605419I-172357J172357D01*
G01*
G37*
%TD.AperFunction*%
%TO.P,R5,1*%
%TO.N,Net-(R5-Pad1)*%
%TA.AperFunction,SMDPad,CuDef*%
G36*
G01*
X131775990Y-110931245D02*
X131130755Y-110286010D01*
G75*
G02*
X131130755Y-109941296I172357J172357D01*
G01*
X131475470Y-109596581D01*
G75*
G02*
X131820184Y-109596581I172357J-172357D01*
G01*
X132465419Y-110241816D01*
G75*
G02*
X132465419Y-110586530I-172357J-172357D01*
G01*
X132120704Y-110931245D01*
G75*
G02*
X131775990Y-110931245I-172357J172357D01*
G01*
G37*
%TD.AperFunction*%
%TD*%
%TO.P,R4,2*%
%TO.N,DBUS+*%
%TA.AperFunction,SMDPad,CuDef*%
G36*
G01*
X134498816Y-111050919D02*
X133853581Y-110405684D01*
G75*
G02*
X133853581Y-110060970I172357J172357D01*
G01*
X134198296Y-109716255D01*
G75*
G02*
X134543010Y-109716255I172357J-172357D01*
G01*
X135188245Y-110361490D01*
G75*
G02*
X135188245Y-110706204I-172357J-172357D01*
G01*
X134843530Y-111050919D01*
G75*
G02*
X134498816Y-111050919I-172357J172357D01*
G01*
G37*
%TD.AperFunction*%
%TO.P,R4,1*%
%TO.N,Net-(R4-Pad1)*%
%TA.AperFunction,SMDPad,CuDef*%
G36*
G01*
X133172990Y-112376745D02*
X132527755Y-111731510D01*
G75*
G02*
X132527755Y-111386796I172357J172357D01*
G01*
X132872470Y-111042081D01*
G75*
G02*
X133217184Y-111042081I172357J-172357D01*
G01*
X133862419Y-111687316D01*
G75*
G02*
X133862419Y-112032030I-172357J-172357D01*
G01*
X133517704Y-112376745D01*
G75*
G02*
X133172990Y-112376745I-172357J172357D01*
G01*
G37*
%TD.AperFunction*%
%TD*%
%TO.P,R3,2*%
%TO.N,Net-(J1-Pad8)*%
%TA.AperFunction,SMDPad,CuDef*%
G36*
G01*
X140546316Y-130179419D02*
X139901081Y-129534184D01*
G75*
G02*
X139901081Y-129189470I172357J172357D01*
G01*
X140245796Y-128844755D01*
G75*
G02*
X140590510Y-128844755I172357J-172357D01*
G01*
X141235745Y-129489990D01*
G75*
G02*
X141235745Y-129834704I-172357J-172357D01*
G01*
X140891030Y-130179419D01*
G75*
G02*
X140546316Y-130179419I-172357J172357D01*
G01*
G37*
%TD.AperFunction*%
%TO.P,R3,1*%
%TO.N,+5V*%
%TA.AperFunction,SMDPad,CuDef*%
G36*
G01*
X139220490Y-131505245D02*
X138575255Y-130860010D01*
G75*
G02*
X138575255Y-130515296I172357J172357D01*
G01*
X138919970Y-130170581D01*
G75*
G02*
X139264684Y-130170581I172357J-172357D01*
G01*
X139909919Y-130815816D01*
G75*
G02*
X139909919Y-131160530I-172357J-172357D01*
G01*
X139565204Y-131505245D01*
G75*
G02*
X139220490Y-131505245I-172357J172357D01*
G01*
G37*
%TD.AperFunction*%
%TD*%
%TO.P,R2,2*%
%TO.N,GND*%
%TA.AperFunction,SMDPad,CuDef*%
G36*
G01*
X148895750Y-66441500D02*
X149808250Y-66441500D01*
G75*
G02*
X150052000Y-66685250I0J-243750D01*
G01*
X150052000Y-67172750D01*
G75*
G02*
X149808250Y-67416500I-243750J0D01*
G01*
X148895750Y-67416500D01*
G75*
G02*
X148652000Y-67172750I0J243750D01*
G01*
X148652000Y-66685250D01*
G75*
G02*
X148895750Y-66441500I243750J0D01*
G01*
G37*
%TD.AperFunction*%
%TO.P,R2,1*%
%TO.N,Net-(J2-PadA5)*%
%TA.AperFunction,SMDPad,CuDef*%
G36*
G01*
X148895750Y-64566500D02*
X149808250Y-64566500D01*
G75*
G02*
X150052000Y-64810250I0J-243750D01*
G01*
X150052000Y-65297750D01*
G75*
G02*
X149808250Y-65541500I-243750J0D01*
G01*
X148895750Y-65541500D01*
G75*
G02*
X148652000Y-65297750I0J243750D01*
G01*
X148652000Y-64810250D01*
G75*
G02*
X148895750Y-64566500I243750J0D01*
G01*
G37*
%TD.AperFunction*%
%TD*%
%TO.P,R1,2*%
%TO.N,GND*%
%TA.AperFunction,SMDPad,CuDef*%
G36*
G01*
X151308750Y-66411500D02*
X152221250Y-66411500D01*
G75*
G02*
X152465000Y-66655250I0J-243750D01*
G01*
X152465000Y-67142750D01*
G75*
G02*
X152221250Y-67386500I-243750J0D01*
G01*
X151308750Y-67386500D01*
G75*
G02*
X151065000Y-67142750I0J243750D01*
G01*
X151065000Y-66655250D01*
G75*
G02*
X151308750Y-66411500I243750J0D01*
G01*
G37*
%TD.AperFunction*%
%TO.P,R1,1*%
%TO.N,Net-(J2-PadB5)*%
%TA.AperFunction,SMDPad,CuDef*%
G36*
G01*
X151308750Y-64536500D02*
X152221250Y-64536500D01*
G75*
G02*
X152465000Y-64780250I0J-243750D01*
G01*
X152465000Y-65267750D01*
G75*
G02*
X152221250Y-65511500I-243750J0D01*
G01*
X151308750Y-65511500D01*
G75*
G02*
X151065000Y-65267750I0J243750D01*
G01*
X151065000Y-64780250D01*
G75*
G02*
X151308750Y-64536500I243750J0D01*
G01*
G37*
%TD.AperFunction*%
%TD*%
D14*
%TO.P,MX32,2*%
%TO.N,Net-(D32-Pad2)*%
X193643279Y-127779110D03*
%TO.P,MX32,1*%
%TO.N,COL5*%
X187830816Y-131383188D03*
%TD*%
%TO.P,MX31,2*%
%TO.N,Net-(D31-Pad2)*%
X103536721Y-129049110D03*
%TO.P,MX31,1*%
%TO.N,COL4*%
X96842126Y-130447856D03*
%TD*%
D15*
%TO.P,MX30,2*%
%TO.N,Net-(D30-Pad2)*%
X260760537Y-101267078D03*
%TO.P,MX30,1*%
%TO.N,COL9*%
X266573000Y-97663000D03*
%TD*%
%TO.P,MX29,2*%
%TO.N,Net-(D29-Pad2)*%
X240313537Y-96949078D03*
%TO.P,MX29,1*%
%TO.N,COL8*%
X246126000Y-93345000D03*
%TD*%
%TO.P,MX28,2*%
%TO.N,Net-(D28-Pad2)*%
X220120537Y-93410188D03*
%TO.P,MX28,1*%
%TO.N,COL7*%
X225933000Y-89806110D03*
%TD*%
%TO.P,MX27,2*%
%TO.N,Net-(D27-Pad2)*%
X202340537Y-103680078D03*
%TO.P,MX27,1*%
%TO.N,COL6*%
X208153000Y-100076000D03*
%TD*%
%TO.P,MX26,2*%
%TO.N,Net-(D26-Pad2)*%
X184179537Y-111681078D03*
%TO.P,MX26,1*%
%TO.N,COL5*%
X189992000Y-108077000D03*
%TD*%
%TO.P,MX25,2*%
%TO.N,Net-(D25-Pad2)*%
X100574948Y-110628989D03*
%TO.P,MX25,1*%
%TO.N,COL4*%
X107269544Y-109230243D03*
%TD*%
%TO.P,MX24,2*%
%TO.N,Net-(D24-Pad2)*%
X82413948Y-102500989D03*
%TO.P,MX24,1*%
%TO.N,COL3*%
X89108544Y-101102243D03*
%TD*%
%TO.P,MX23,2*%
%TO.N,Net-(D23-Pad2)*%
X65141948Y-89536746D03*
%TO.P,MX23,1*%
%TO.N,COL2*%
X71836544Y-88138000D03*
%TD*%
%TO.P,MX22,2*%
%TO.N,Net-(D22-Pad2)*%
X44567948Y-95505746D03*
%TO.P,MX22,1*%
%TO.N,COL1*%
X51262544Y-94107000D03*
%TD*%
%TO.P,MX21,2*%
%TO.N,Net-(D21-Pad2)*%
X257458537Y-82471078D03*
%TO.P,MX21,1*%
%TO.N,COL9*%
X263271000Y-78867000D03*
%TD*%
%TO.P,MX20,2*%
%TO.N,Net-(D20-Pad2)*%
X236979816Y-78043188D03*
%TO.P,MX20,1*%
%TO.N,COL8*%
X242792279Y-74439110D03*
%TD*%
%TO.P,MX19,2*%
%TO.N,Net-(D19-Pad2)*%
X216818537Y-74597078D03*
%TO.P,MX19,1*%
%TO.N,COL7*%
X222631000Y-70993000D03*
%TD*%
%TO.P,MX18,2*%
%TO.N,Net-(D18-Pad2)*%
X199038537Y-84884078D03*
%TO.P,MX18,1*%
%TO.N,COL6*%
X204851000Y-81280000D03*
%TD*%
%TO.P,MX17,2*%
%TO.N,Net-(D17-Pad2)*%
X180845816Y-92902188D03*
%TO.P,MX17,1*%
%TO.N,COL5*%
X186658279Y-89298110D03*
%TD*%
%TO.P,MX16,2*%
%TO.N,Net-(D16-Pad2)*%
X103876948Y-91832989D03*
%TO.P,MX16,1*%
%TO.N,COL4*%
X110571544Y-90434243D03*
%TD*%
%TO.P,MX15,2*%
%TO.N,Net-(D15-Pad2)*%
X85715948Y-83704989D03*
%TO.P,MX15,1*%
%TO.N,COL3*%
X92410544Y-82306243D03*
%TD*%
%TO.P,MX14,2*%
%TO.N,Net-(D14-Pad2)*%
X68489404Y-70740746D03*
%TO.P,MX14,1*%
%TO.N,COL2*%
X75184000Y-69342000D03*
%TD*%
%TO.P,MX13,2*%
%TO.N,Net-(D13-Pad2)*%
X47869948Y-76719989D03*
%TO.P,MX13,1*%
%TO.N,COL1*%
X54564544Y-75321243D03*
%TD*%
%TO.P,MX12,2*%
%TO.N,Net-(D12-Pad2)*%
X254124816Y-63692188D03*
%TO.P,MX12,1*%
%TO.N,COL9*%
X259937279Y-60088110D03*
%TD*%
%TO.P,MX11,2*%
%TO.N,Net-(D11-Pad2)*%
X233677816Y-59247188D03*
%TO.P,MX11,1*%
%TO.N,COL8*%
X239490279Y-55643110D03*
%TD*%
%TO.P,MX10,2*%
%TO.N,Net-(D10-Pad2)*%
X213484816Y-55818188D03*
%TO.P,MX10,1*%
%TO.N,COL7*%
X219297279Y-52214110D03*
%TD*%
%TO.P,MX9,2*%
%TO.N,Net-(D9-Pad2)*%
X24755948Y-96658989D03*
%TO.P,MX9,1*%
%TO.N,COL0*%
X31450544Y-95260243D03*
%TD*%
%TO.P,MX8,2*%
%TO.N,Net-(D8-Pad2)*%
X195704816Y-66105188D03*
%TO.P,MX8,1*%
%TO.N,COL6*%
X201517279Y-62501110D03*
%TD*%
%TO.P,MX7,2*%
%TO.N,Net-(D7-Pad2)*%
X177543816Y-74106188D03*
%TO.P,MX7,1*%
%TO.N,COL5*%
X183356279Y-70502110D03*
%TD*%
%TO.P,MX6,2*%
%TO.N,Net-(D6-Pad2)*%
X107178948Y-73036989D03*
%TO.P,MX6,1*%
%TO.N,COL4*%
X113873544Y-71638243D03*
%TD*%
%TO.P,MX5,2*%
%TO.N,Net-(D5-Pad2)*%
X28057948Y-77862989D03*
%TO.P,MX5,1*%
%TO.N,COL0*%
X34752544Y-76464243D03*
%TD*%
%TO.P,MX4,2*%
%TO.N,Net-(D4-Pad2)*%
X89017948Y-64908989D03*
%TO.P,MX4,1*%
%TO.N,COL3*%
X95712544Y-63510243D03*
%TD*%
%TO.P,MX3,2*%
%TO.N,Net-(D3-Pad2)*%
X71745948Y-51954989D03*
%TO.P,MX3,1*%
%TO.N,COL2*%
X78440544Y-50556243D03*
%TD*%
%TO.P,MX2,2*%
%TO.N,Net-(D2-Pad2)*%
X51171948Y-57923989D03*
%TO.P,MX2,1*%
%TO.N,COL1*%
X57866544Y-56525243D03*
%TD*%
%TO.P,MX1,2*%
%TO.N,Net-(D1-Pad2)*%
X31486948Y-59066989D03*
%TO.P,MX1,1*%
%TO.N,COL0*%
X38181544Y-57668243D03*
%TD*%
D16*
%TO.P,J2,A5*%
%TO.N,Net-(J2-PadA5)*%
X147950000Y-59948000D03*
%TO.P,J2,A1*%
%TO.N,GND*%
X146250000Y-59948000D03*
%TO.P,J2,A4*%
%TO.N,VBUS*%
X147100000Y-59948000D03*
%TO.P,J2,A6*%
%TO.N,DBUS+*%
X148800000Y-59948000D03*
%TO.P,J2,A7*%
%TO.N,DBUS-*%
X149650000Y-59948000D03*
%TO.P,J2,A8*%
%TO.N,Net-(J2-PadA8)*%
X150500000Y-59948000D03*
%TO.P,J2,A9*%
%TO.N,VBUS*%
X151350000Y-59948000D03*
%TO.P,J2,A12*%
%TO.N,GND*%
X152200000Y-59948000D03*
%TO.P,J2,B12*%
X146250000Y-58623000D03*
%TO.P,J2,B9*%
%TO.N,VBUS*%
X147105000Y-58623000D03*
%TO.P,J2,B8*%
%TO.N,Net-(J2-PadB8)*%
X147955000Y-58623000D03*
%TO.P,J2,B7*%
%TO.N,DBUS-*%
X148805000Y-58623000D03*
%TO.P,J2,B6*%
%TO.N,DBUS+*%
X149655000Y-58623000D03*
%TO.P,J2,B5*%
%TO.N,Net-(J2-PadB5)*%
X150505000Y-58623000D03*
%TO.P,J2,B4*%
%TO.N,VBUS*%
X151355000Y-58623000D03*
%TO.P,J2,B1*%
%TO.N,GND*%
X152205000Y-58623000D03*
D17*
%TO.P,J2,S1*%
X144900000Y-58968000D03*
X153550000Y-58968000D03*
D18*
X144900000Y-55588000D03*
X153550000Y-55588000D03*
%TD*%
%TO.P,J1,8*%
%TO.N,Net-(J1-Pad8)*%
%TA.AperFunction,ComponentPad*%
G36*
G01*
X119392448Y-94959281D02*
X119392448Y-94959281D01*
G75*
G02*
X120377136Y-94269795I837087J-147601D01*
G01*
X120377136Y-94269795D01*
G75*
G02*
X121066622Y-95254483I-147601J-837087D01*
G01*
X121066622Y-95254483D01*
G75*
G02*
X120081934Y-95943969I-837087J147601D01*
G01*
X120081934Y-95943969D01*
G75*
G02*
X119392448Y-94959281I147601J837087D01*
G01*
G37*
%TD.AperFunction*%
%TO.P,J1,7*%
%TO.N,GND*%
%TA.AperFunction,ComponentPad*%
G36*
G01*
X119833515Y-92457869D02*
X119833515Y-92457869D01*
G75*
G02*
X120818203Y-91768383I837087J-147601D01*
G01*
X120818203Y-91768383D01*
G75*
G02*
X121507689Y-92753071I-147601J-837087D01*
G01*
X121507689Y-92753071D01*
G75*
G02*
X120523001Y-93442557I-837087J147601D01*
G01*
X120523001Y-93442557D01*
G75*
G02*
X119833515Y-92457869I147601J837087D01*
G01*
G37*
%TD.AperFunction*%
%TO.P,J1,6*%
%TO.N,Net-(J1-Pad6)*%
%TA.AperFunction,ComponentPad*%
G36*
G01*
X120274581Y-89956457D02*
X120274581Y-89956457D01*
G75*
G02*
X121259269Y-89266971I837087J-147601D01*
G01*
X121259269Y-89266971D01*
G75*
G02*
X121948755Y-90251659I-147601J-837087D01*
G01*
X121948755Y-90251659D01*
G75*
G02*
X120964067Y-90941145I-837087J147601D01*
G01*
X120964067Y-90941145D01*
G75*
G02*
X120274581Y-89956457I147601J837087D01*
G01*
G37*
%TD.AperFunction*%
%TO.P,J1,5*%
%TO.N,Net-(J1-Pad5)*%
%TA.AperFunction,ComponentPad*%
G36*
G01*
X120715648Y-87455046D02*
X120715648Y-87455046D01*
G75*
G02*
X121700336Y-86765560I837087J-147601D01*
G01*
X121700336Y-86765560D01*
G75*
G02*
X122389822Y-87750248I-147601J-837087D01*
G01*
X122389822Y-87750248D01*
G75*
G02*
X121405134Y-88439734I-837087J147601D01*
G01*
X121405134Y-88439734D01*
G75*
G02*
X120715648Y-87455046I147601J837087D01*
G01*
G37*
%TD.AperFunction*%
%TO.P,J1,4*%
%TO.N,Net-(J1-Pad4)*%
%TA.AperFunction,ComponentPad*%
G36*
G01*
X121156714Y-84953634D02*
X121156714Y-84953634D01*
G75*
G02*
X122141402Y-84264148I837087J-147601D01*
G01*
X122141402Y-84264148D01*
G75*
G02*
X122830888Y-85248836I-147601J-837087D01*
G01*
X122830888Y-85248836D01*
G75*
G02*
X121846200Y-85938322I-837087J147601D01*
G01*
X121846200Y-85938322D01*
G75*
G02*
X121156714Y-84953634I147601J837087D01*
G01*
G37*
%TD.AperFunction*%
%TO.P,J1,3*%
%TO.N,Net-(J1-Pad3)*%
%TA.AperFunction,ComponentPad*%
G36*
G01*
X121597780Y-82452222D02*
X121597780Y-82452222D01*
G75*
G02*
X122582468Y-81762736I837087J-147601D01*
G01*
X122582468Y-81762736D01*
G75*
G02*
X123271954Y-82747424I-147601J-837087D01*
G01*
X123271954Y-82747424D01*
G75*
G02*
X122287266Y-83436910I-837087J147601D01*
G01*
X122287266Y-83436910D01*
G75*
G02*
X121597780Y-82452222I147601J837087D01*
G01*
G37*
%TD.AperFunction*%
%TO.P,J1,2*%
%TO.N,Net-(J1-Pad2)*%
%TA.AperFunction,ComponentPad*%
G36*
G01*
X122038847Y-79950811D02*
X122038847Y-79950811D01*
G75*
G02*
X123023535Y-79261325I837087J-147601D01*
G01*
X123023535Y-79261325D01*
G75*
G02*
X123713021Y-80246013I-147601J-837087D01*
G01*
X123713021Y-80246013D01*
G75*
G02*
X122728333Y-80935499I-837087J147601D01*
G01*
X122728333Y-80935499D01*
G75*
G02*
X122038847Y-79950811I147601J837087D01*
G01*
G37*
%TD.AperFunction*%
%TA.AperFunction,ComponentPad*%
D19*
%TO.P,J1,1*%
%TO.N,+5V*%
G36*
X122332312Y-78286486D02*
G01*
X122627514Y-76612312D01*
X124301688Y-76907514D01*
X124006486Y-78581688D01*
X122332312Y-78286486D01*
G37*
%TD.AperFunction*%
%TD*%
%TO.P,F1,2*%
%TO.N,VBUS*%
%TA.AperFunction,SMDPad,CuDef*%
G36*
G01*
X146441000Y-66538000D02*
X146441000Y-65288000D01*
G75*
G02*
X146691000Y-65038000I250000J0D01*
G01*
X147441000Y-65038000D01*
G75*
G02*
X147691000Y-65288000I0J-250000D01*
G01*
X147691000Y-66538000D01*
G75*
G02*
X147441000Y-66788000I-250000J0D01*
G01*
X146691000Y-66788000D01*
G75*
G02*
X146441000Y-66538000I0J250000D01*
G01*
G37*
%TD.AperFunction*%
%TO.P,F1,1*%
%TO.N,+5V*%
%TA.AperFunction,SMDPad,CuDef*%
G36*
G01*
X143641000Y-66538000D02*
X143641000Y-65288000D01*
G75*
G02*
X143891000Y-65038000I250000J0D01*
G01*
X144641000Y-65038000D01*
G75*
G02*
X144891000Y-65288000I0J-250000D01*
G01*
X144891000Y-66538000D01*
G75*
G02*
X144641000Y-66788000I-250000J0D01*
G01*
X143891000Y-66788000D01*
G75*
G02*
X143641000Y-66538000I0J250000D01*
G01*
G37*
%TD.AperFunction*%
%TD*%
%TA.AperFunction,SMDPad,CuDef*%
D11*
%TO.P,D32,2*%
%TO.N,Net-(D32-Pad2)*%
G36*
X195087958Y-136780507D02*
G01*
X194879581Y-135598738D01*
X195765908Y-135442455D01*
X195974285Y-136624224D01*
X195087958Y-136780507D01*
G37*
%TD.AperFunction*%
%TA.AperFunction,SMDPad,CuDef*%
%TO.P,D32,1*%
%TO.N,ROW3*%
G36*
X191838092Y-137353545D02*
G01*
X191629715Y-136171776D01*
X192516042Y-136015493D01*
X192724419Y-137197262D01*
X191838092Y-137353545D01*
G37*
%TD.AperFunction*%
%TD*%
%TA.AperFunction,SMDPad,CuDef*%
%TO.P,D31,2*%
%TO.N,Net-(D31-Pad2)*%
G36*
X101407581Y-138086262D02*
G01*
X101615958Y-136904493D01*
X102502285Y-137060776D01*
X102293908Y-138242545D01*
X101407581Y-138086262D01*
G37*
%TD.AperFunction*%
%TA.AperFunction,SMDPad,CuDef*%
%TO.P,D31,1*%
%TO.N,ROW3*%
G36*
X98157715Y-137513224D02*
G01*
X98366092Y-136331455D01*
X99252419Y-136487738D01*
X99044042Y-137669507D01*
X98157715Y-137513224D01*
G37*
%TD.AperFunction*%
%TD*%
%TA.AperFunction,SMDPad,CuDef*%
%TO.P,D30,2*%
%TO.N,Net-(D30-Pad2)*%
G36*
X261508958Y-106681507D02*
G01*
X261300581Y-105499738D01*
X262186908Y-105343455D01*
X262395285Y-106525224D01*
X261508958Y-106681507D01*
G37*
%TD.AperFunction*%
%TA.AperFunction,SMDPad,CuDef*%
%TO.P,D30,1*%
%TO.N,ROW2*%
G36*
X258259092Y-107254545D02*
G01*
X258050715Y-106072776D01*
X258937042Y-105916493D01*
X259145419Y-107098262D01*
X258259092Y-107254545D01*
G37*
%TD.AperFunction*%
%TD*%
%TA.AperFunction,SMDPad,CuDef*%
%TO.P,D29,2*%
%TO.N,Net-(D29-Pad2)*%
G36*
X241792042Y-102106493D02*
G01*
X242000419Y-103288262D01*
X241114092Y-103444545D01*
X240905715Y-102262776D01*
X241792042Y-102106493D01*
G37*
%TD.AperFunction*%
%TA.AperFunction,SMDPad,CuDef*%
%TO.P,D29,1*%
%TO.N,ROW2*%
G36*
X245041908Y-101533455D02*
G01*
X245250285Y-102715224D01*
X244363958Y-102871507D01*
X244155581Y-101689738D01*
X245041908Y-101533455D01*
G37*
%TD.AperFunction*%
%TD*%
%TA.AperFunction,SMDPad,CuDef*%
%TO.P,D28,2*%
%TO.N,Net-(D28-Pad2)*%
G36*
X221599042Y-98677493D02*
G01*
X221807419Y-99859262D01*
X220921092Y-100015545D01*
X220712715Y-98833776D01*
X221599042Y-98677493D01*
G37*
%TD.AperFunction*%
%TA.AperFunction,SMDPad,CuDef*%
%TO.P,D28,1*%
%TO.N,ROW2*%
G36*
X224848908Y-98104455D02*
G01*
X225057285Y-99286224D01*
X224170958Y-99442507D01*
X223962581Y-98260738D01*
X224848908Y-98104455D01*
G37*
%TD.AperFunction*%
%TD*%
%TA.AperFunction,SMDPad,CuDef*%
%TO.P,D27,2*%
%TO.N,Net-(D27-Pad2)*%
G36*
X203692042Y-108964493D02*
G01*
X203900419Y-110146262D01*
X203014092Y-110302545D01*
X202805715Y-109120776D01*
X203692042Y-108964493D01*
G37*
%TD.AperFunction*%
%TA.AperFunction,SMDPad,CuDef*%
%TO.P,D27,1*%
%TO.N,ROW2*%
G36*
X206941908Y-108391455D02*
G01*
X207150285Y-109573224D01*
X206263958Y-109729507D01*
X206055581Y-108547738D01*
X206941908Y-108391455D01*
G37*
%TD.AperFunction*%
%TD*%
%TA.AperFunction,SMDPad,CuDef*%
%TO.P,D26,2*%
%TO.N,Net-(D26-Pad2)*%
G36*
X185532042Y-116965493D02*
G01*
X185740419Y-118147262D01*
X184854092Y-118303545D01*
X184645715Y-117121776D01*
X185532042Y-116965493D01*
G37*
%TD.AperFunction*%
%TA.AperFunction,SMDPad,CuDef*%
%TO.P,D26,1*%
%TO.N,ROW2*%
G36*
X188781908Y-116392455D02*
G01*
X188990285Y-117574224D01*
X188103958Y-117730507D01*
X187895581Y-116548738D01*
X188781908Y-116392455D01*
G37*
%TD.AperFunction*%
%TD*%
%TA.AperFunction,SMDPad,CuDef*%
%TO.P,D25,2*%
%TO.N,Net-(D25-Pad2)*%
G36*
X100014419Y-116040738D02*
G01*
X99806042Y-117222507D01*
X98919715Y-117066224D01*
X99128092Y-115884455D01*
X100014419Y-116040738D01*
G37*
%TD.AperFunction*%
%TA.AperFunction,SMDPad,CuDef*%
%TO.P,D25,1*%
%TO.N,ROW2*%
G36*
X103264285Y-116613776D02*
G01*
X103055908Y-117795545D01*
X102169581Y-117639262D01*
X102377958Y-116457493D01*
X103264285Y-116613776D01*
G37*
%TD.AperFunction*%
%TD*%
%TA.AperFunction,SMDPad,CuDef*%
%TO.P,D24,2*%
%TO.N,Net-(D24-Pad2)*%
G36*
X81852419Y-107912738D02*
G01*
X81644042Y-109094507D01*
X80757715Y-108938224D01*
X80966092Y-107756455D01*
X81852419Y-107912738D01*
G37*
%TD.AperFunction*%
%TA.AperFunction,SMDPad,CuDef*%
%TO.P,D24,1*%
%TO.N,ROW2*%
G36*
X85102285Y-108485776D02*
G01*
X84893908Y-109667545D01*
X84007581Y-109511262D01*
X84215958Y-108329493D01*
X85102285Y-108485776D01*
G37*
%TD.AperFunction*%
%TD*%
%TA.AperFunction,SMDPad,CuDef*%
%TO.P,D23,2*%
%TO.N,Net-(D23-Pad2)*%
G36*
X64708419Y-94958738D02*
G01*
X64500042Y-96140507D01*
X63613715Y-95984224D01*
X63822092Y-94802455D01*
X64708419Y-94958738D01*
G37*
%TD.AperFunction*%
%TA.AperFunction,SMDPad,CuDef*%
%TO.P,D23,1*%
%TO.N,ROW2*%
G36*
X67958285Y-95531776D02*
G01*
X67749908Y-96713545D01*
X66863581Y-96557262D01*
X67071958Y-95375493D01*
X67958285Y-95531776D01*
G37*
%TD.AperFunction*%
%TD*%
%TA.AperFunction,SMDPad,CuDef*%
%TO.P,D22,2*%
%TO.N,Net-(D22-Pad2)*%
G36*
X44007419Y-100927738D02*
G01*
X43799042Y-102109507D01*
X42912715Y-101953224D01*
X43121092Y-100771455D01*
X44007419Y-100927738D01*
G37*
%TD.AperFunction*%
%TA.AperFunction,SMDPad,CuDef*%
%TO.P,D22,1*%
%TO.N,ROW2*%
G36*
X47257285Y-101500776D02*
G01*
X47048908Y-102682545D01*
X46162581Y-102526262D01*
X46370958Y-101344493D01*
X47257285Y-101500776D01*
G37*
%TD.AperFunction*%
%TD*%
%TA.AperFunction,SMDPad,CuDef*%
%TO.P,D21,2*%
%TO.N,Net-(D21-Pad2)*%
G36*
X257952958Y-88012507D02*
G01*
X257744581Y-86830738D01*
X258630908Y-86674455D01*
X258839285Y-87856224D01*
X257952958Y-88012507D01*
G37*
%TD.AperFunction*%
%TA.AperFunction,SMDPad,CuDef*%
%TO.P,D21,1*%
%TO.N,ROW1*%
G36*
X254703092Y-88585545D02*
G01*
X254494715Y-87403776D01*
X255381042Y-87247493D01*
X255589419Y-88429262D01*
X254703092Y-88585545D01*
G37*
%TD.AperFunction*%
%TD*%
%TA.AperFunction,SMDPad,CuDef*%
%TO.P,D20,2*%
%TO.N,Net-(D20-Pad2)*%
G36*
X238490042Y-83310493D02*
G01*
X238698419Y-84492262D01*
X237812092Y-84648545D01*
X237603715Y-83466776D01*
X238490042Y-83310493D01*
G37*
%TD.AperFunction*%
%TA.AperFunction,SMDPad,CuDef*%
%TO.P,D20,1*%
%TO.N,ROW1*%
G36*
X241739908Y-82737455D02*
G01*
X241948285Y-83919224D01*
X241061958Y-84075507D01*
X240853581Y-82893738D01*
X241739908Y-82737455D01*
G37*
%TD.AperFunction*%
%TD*%
%TA.AperFunction,SMDPad,CuDef*%
%TO.P,D19,2*%
%TO.N,Net-(D19-Pad2)*%
G36*
X218170042Y-79881493D02*
G01*
X218378419Y-81063262D01*
X217492092Y-81219545D01*
X217283715Y-80037776D01*
X218170042Y-79881493D01*
G37*
%TD.AperFunction*%
%TA.AperFunction,SMDPad,CuDef*%
%TO.P,D19,1*%
%TO.N,ROW1*%
G36*
X221419908Y-79308455D02*
G01*
X221628285Y-80490224D01*
X220741958Y-80646507D01*
X220533581Y-79464738D01*
X221419908Y-79308455D01*
G37*
%TD.AperFunction*%
%TD*%
%TA.AperFunction,SMDPad,CuDef*%
%TO.P,D18,2*%
%TO.N,Net-(D18-Pad2)*%
G36*
X200517042Y-90041493D02*
G01*
X200725419Y-91223262D01*
X199839092Y-91379545D01*
X199630715Y-90197776D01*
X200517042Y-90041493D01*
G37*
%TD.AperFunction*%
%TA.AperFunction,SMDPad,CuDef*%
%TO.P,D18,1*%
%TO.N,ROW1*%
G36*
X203766908Y-89468455D02*
G01*
X203975285Y-90650224D01*
X203088958Y-90806507D01*
X202880581Y-89624738D01*
X203766908Y-89468455D01*
G37*
%TD.AperFunction*%
%TD*%
%TA.AperFunction,SMDPad,CuDef*%
%TO.P,D17,2*%
%TO.N,Net-(D17-Pad2)*%
G36*
X182229042Y-98169493D02*
G01*
X182437419Y-99351262D01*
X181551092Y-99507545D01*
X181342715Y-98325776D01*
X182229042Y-98169493D01*
G37*
%TD.AperFunction*%
%TA.AperFunction,SMDPad,CuDef*%
%TO.P,D17,1*%
%TO.N,ROW1*%
G36*
X185478908Y-97596455D02*
G01*
X185687285Y-98778224D01*
X184800958Y-98934507D01*
X184592581Y-97752738D01*
X185478908Y-97596455D01*
G37*
%TD.AperFunction*%
%TD*%
%TA.AperFunction,SMDPad,CuDef*%
%TO.P,D16,2*%
%TO.N,Net-(D16-Pad2)*%
G36*
X103443419Y-97244738D02*
G01*
X103235042Y-98426507D01*
X102348715Y-98270224D01*
X102557092Y-97088455D01*
X103443419Y-97244738D01*
G37*
%TD.AperFunction*%
%TA.AperFunction,SMDPad,CuDef*%
%TO.P,D16,1*%
%TO.N,ROW1*%
G36*
X106693285Y-97817776D02*
G01*
X106484908Y-98999545D01*
X105598581Y-98843262D01*
X105806958Y-97661493D01*
X106693285Y-97817776D01*
G37*
%TD.AperFunction*%
%TD*%
%TA.AperFunction,SMDPad,CuDef*%
%TO.P,D15,2*%
%TO.N,Net-(D15-Pad2)*%
G36*
X85282419Y-89116738D02*
G01*
X85074042Y-90298507D01*
X84187715Y-90142224D01*
X84396092Y-88960455D01*
X85282419Y-89116738D01*
G37*
%TD.AperFunction*%
%TA.AperFunction,SMDPad,CuDef*%
%TO.P,D15,1*%
%TO.N,ROW1*%
G36*
X88532285Y-89689776D02*
G01*
X88323908Y-90871545D01*
X87437581Y-90715262D01*
X87645958Y-89533493D01*
X88532285Y-89689776D01*
G37*
%TD.AperFunction*%
%TD*%
%TA.AperFunction,SMDPad,CuDef*%
%TO.P,D14,2*%
%TO.N,Net-(D14-Pad2)*%
G36*
X68010419Y-76162738D02*
G01*
X67802042Y-77344507D01*
X66915715Y-77188224D01*
X67124092Y-76006455D01*
X68010419Y-76162738D01*
G37*
%TD.AperFunction*%
%TA.AperFunction,SMDPad,CuDef*%
%TO.P,D14,1*%
%TO.N,ROW1*%
G36*
X71260285Y-76735776D02*
G01*
X71051908Y-77917545D01*
X70165581Y-77761262D01*
X70373958Y-76579493D01*
X71260285Y-76735776D01*
G37*
%TD.AperFunction*%
%TD*%
%TA.AperFunction,SMDPad,CuDef*%
%TO.P,D13,2*%
%TO.N,Net-(D13-Pad2)*%
G36*
X47309419Y-82131738D02*
G01*
X47101042Y-83313507D01*
X46214715Y-83157224D01*
X46423092Y-81975455D01*
X47309419Y-82131738D01*
G37*
%TD.AperFunction*%
%TA.AperFunction,SMDPad,CuDef*%
%TO.P,D13,1*%
%TO.N,ROW1*%
G36*
X50559285Y-82704776D02*
G01*
X50350908Y-83886545D01*
X49464581Y-83730262D01*
X49672958Y-82548493D01*
X50559285Y-82704776D01*
G37*
%TD.AperFunction*%
%TD*%
%TA.AperFunction,SMDPad,CuDef*%
%TO.P,D12,2*%
%TO.N,Net-(D12-Pad2)*%
G36*
X254777958Y-69216507D02*
G01*
X254569581Y-68034738D01*
X255455908Y-67878455D01*
X255664285Y-69060224D01*
X254777958Y-69216507D01*
G37*
%TD.AperFunction*%
%TA.AperFunction,SMDPad,CuDef*%
%TO.P,D12,1*%
%TO.N,ROW0*%
G36*
X251528092Y-69789545D02*
G01*
X251319715Y-68607776D01*
X252206042Y-68451493D01*
X252414419Y-69633262D01*
X251528092Y-69789545D01*
G37*
%TD.AperFunction*%
%TD*%
%TA.AperFunction,SMDPad,CuDef*%
%TO.P,D11,2*%
%TO.N,Net-(D11-Pad2)*%
G36*
X235188042Y-64387493D02*
G01*
X235396419Y-65569262D01*
X234510092Y-65725545D01*
X234301715Y-64543776D01*
X235188042Y-64387493D01*
G37*
%TD.AperFunction*%
%TA.AperFunction,SMDPad,CuDef*%
%TO.P,D11,1*%
%TO.N,ROW0*%
G36*
X238437908Y-63814455D02*
G01*
X238646285Y-64996224D01*
X237759958Y-65152507D01*
X237551581Y-63970738D01*
X238437908Y-63814455D01*
G37*
%TD.AperFunction*%
%TD*%
%TA.AperFunction,SMDPad,CuDef*%
%TO.P,D10,2*%
%TO.N,Net-(D10-Pad2)*%
G36*
X214868042Y-61085493D02*
G01*
X215076419Y-62267262D01*
X214190092Y-62423545D01*
X213981715Y-61241776D01*
X214868042Y-61085493D01*
G37*
%TD.AperFunction*%
%TA.AperFunction,SMDPad,CuDef*%
%TO.P,D10,1*%
%TO.N,ROW0*%
G36*
X218117908Y-60512455D02*
G01*
X218326285Y-61694224D01*
X217439958Y-61850507D01*
X217231581Y-60668738D01*
X218117908Y-60512455D01*
G37*
%TD.AperFunction*%
%TD*%
%TA.AperFunction,SMDPad,CuDef*%
%TO.P,D9,2*%
%TO.N,Net-(D9-Pad2)*%
G36*
X24322419Y-102070738D02*
G01*
X24114042Y-103252507D01*
X23227715Y-103096224D01*
X23436092Y-101914455D01*
X24322419Y-102070738D01*
G37*
%TD.AperFunction*%
%TA.AperFunction,SMDPad,CuDef*%
%TO.P,D9,1*%
%TO.N,ROW2*%
G36*
X27572285Y-102643776D02*
G01*
X27363908Y-103825545D01*
X26477581Y-103669262D01*
X26685958Y-102487493D01*
X27572285Y-102643776D01*
G37*
%TD.AperFunction*%
%TD*%
%TA.AperFunction,SMDPad,CuDef*%
%TO.P,D8,2*%
%TO.N,Net-(D8-Pad2)*%
G36*
X197215042Y-71372493D02*
G01*
X197423419Y-72554262D01*
X196537092Y-72710545D01*
X196328715Y-71528776D01*
X197215042Y-71372493D01*
G37*
%TD.AperFunction*%
%TA.AperFunction,SMDPad,CuDef*%
%TO.P,D8,1*%
%TO.N,ROW0*%
G36*
X200464908Y-70799455D02*
G01*
X200673285Y-71981224D01*
X199786958Y-72137507D01*
X199578581Y-70955738D01*
X200464908Y-70799455D01*
G37*
%TD.AperFunction*%
%TD*%
%TA.AperFunction,SMDPad,CuDef*%
%TO.P,D7,2*%
%TO.N,Net-(D7-Pad2)*%
G36*
X179181042Y-79373493D02*
G01*
X179389419Y-80555262D01*
X178503092Y-80711545D01*
X178294715Y-79529776D01*
X179181042Y-79373493D01*
G37*
%TD.AperFunction*%
%TA.AperFunction,SMDPad,CuDef*%
%TO.P,D7,1*%
%TO.N,ROW0*%
G36*
X182430908Y-78800455D02*
G01*
X182639285Y-79982224D01*
X181752958Y-80138507D01*
X181544581Y-78956738D01*
X182430908Y-78800455D01*
G37*
%TD.AperFunction*%
%TD*%
%TA.AperFunction,SMDPad,CuDef*%
%TO.P,D6,2*%
%TO.N,Net-(D6-Pad2)*%
G36*
X106618419Y-78448738D02*
G01*
X106410042Y-79630507D01*
X105523715Y-79474224D01*
X105732092Y-78292455D01*
X106618419Y-78448738D01*
G37*
%TD.AperFunction*%
%TA.AperFunction,SMDPad,CuDef*%
%TO.P,D6,1*%
%TO.N,ROW0*%
G36*
X109868285Y-79021776D02*
G01*
X109659908Y-80203545D01*
X108773581Y-80047262D01*
X108981958Y-78865493D01*
X109868285Y-79021776D01*
G37*
%TD.AperFunction*%
%TD*%
%TA.AperFunction,SMDPad,CuDef*%
%TO.P,D5,2*%
%TO.N,Net-(D5-Pad2)*%
G36*
X27497419Y-83274738D02*
G01*
X27289042Y-84456507D01*
X26402715Y-84300224D01*
X26611092Y-83118455D01*
X27497419Y-83274738D01*
G37*
%TD.AperFunction*%
%TA.AperFunction,SMDPad,CuDef*%
%TO.P,D5,1*%
%TO.N,ROW1*%
G36*
X30747285Y-83847776D02*
G01*
X30538908Y-85029545D01*
X29652581Y-84873262D01*
X29860958Y-83691493D01*
X30747285Y-83847776D01*
G37*
%TD.AperFunction*%
%TD*%
%TA.AperFunction,SMDPad,CuDef*%
%TO.P,D4,2*%
%TO.N,Net-(D4-Pad2)*%
G36*
X88457419Y-70320738D02*
G01*
X88249042Y-71502507D01*
X87362715Y-71346224D01*
X87571092Y-70164455D01*
X88457419Y-70320738D01*
G37*
%TD.AperFunction*%
%TA.AperFunction,SMDPad,CuDef*%
%TO.P,D4,1*%
%TO.N,ROW0*%
G36*
X91707285Y-70893776D02*
G01*
X91498908Y-72075545D01*
X90612581Y-71919262D01*
X90820958Y-70737493D01*
X91707285Y-70893776D01*
G37*
%TD.AperFunction*%
%TD*%
%TA.AperFunction,SMDPad,CuDef*%
%TO.P,D3,2*%
%TO.N,Net-(D3-Pad2)*%
G36*
X71312419Y-57366738D02*
G01*
X71104042Y-58548507D01*
X70217715Y-58392224D01*
X70426092Y-57210455D01*
X71312419Y-57366738D01*
G37*
%TD.AperFunction*%
%TA.AperFunction,SMDPad,CuDef*%
%TO.P,D3,1*%
%TO.N,ROW0*%
G36*
X74562285Y-57939776D02*
G01*
X74353908Y-59121545D01*
X73467581Y-58965262D01*
X73675958Y-57783493D01*
X74562285Y-57939776D01*
G37*
%TD.AperFunction*%
%TD*%
%TA.AperFunction,SMDPad,CuDef*%
%TO.P,D2,2*%
%TO.N,Net-(D2-Pad2)*%
G36*
X50738419Y-63335738D02*
G01*
X50530042Y-64517507D01*
X49643715Y-64361224D01*
X49852092Y-63179455D01*
X50738419Y-63335738D01*
G37*
%TD.AperFunction*%
%TA.AperFunction,SMDPad,CuDef*%
%TO.P,D2,1*%
%TO.N,ROW0*%
G36*
X53988285Y-63908776D02*
G01*
X53779908Y-65090545D01*
X52893581Y-64934262D01*
X53101958Y-63752493D01*
X53988285Y-63908776D01*
G37*
%TD.AperFunction*%
%TD*%
%TA.AperFunction,SMDPad,CuDef*%
%TO.P,D1,2*%
%TO.N,Net-(D1-Pad2)*%
G36*
X31053419Y-64478738D02*
G01*
X30845042Y-65660507D01*
X29958715Y-65504224D01*
X30167092Y-64322455D01*
X31053419Y-64478738D01*
G37*
%TD.AperFunction*%
%TA.AperFunction,SMDPad,CuDef*%
%TO.P,D1,1*%
%TO.N,ROW0*%
G36*
X34303285Y-65051776D02*
G01*
X34094908Y-66233545D01*
X33208581Y-66077262D01*
X33416958Y-64895493D01*
X34303285Y-65051776D01*
G37*
%TD.AperFunction*%
%TD*%
%TO.P,C7,2*%
%TO.N,GND*%
%TA.AperFunction,SMDPad,CuDef*%
G36*
G01*
X140132750Y-135499500D02*
X141045250Y-135499500D01*
G75*
G02*
X141289000Y-135743250I0J-243750D01*
G01*
X141289000Y-136230750D01*
G75*
G02*
X141045250Y-136474500I-243750J0D01*
G01*
X140132750Y-136474500D01*
G75*
G02*
X139889000Y-136230750I0J243750D01*
G01*
X139889000Y-135743250D01*
G75*
G02*
X140132750Y-135499500I243750J0D01*
G01*
G37*
%TD.AperFunction*%
%TO.P,C7,1*%
%TO.N,+5V*%
%TA.AperFunction,SMDPad,CuDef*%
G36*
G01*
X140132750Y-133624500D02*
X141045250Y-133624500D01*
G75*
G02*
X141289000Y-133868250I0J-243750D01*
G01*
X141289000Y-134355750D01*
G75*
G02*
X141045250Y-134599500I-243750J0D01*
G01*
X140132750Y-134599500D01*
G75*
G02*
X139889000Y-134355750I0J243750D01*
G01*
X139889000Y-133868250D01*
G75*
G02*
X140132750Y-133624500I243750J0D01*
G01*
G37*
%TD.AperFunction*%
%TD*%
%TO.P,C6,2*%
%TO.N,GND*%
%TA.AperFunction,SMDPad,CuDef*%
G36*
G01*
X135971500Y-135191000D02*
X136316500Y-135191000D01*
G75*
G02*
X136464000Y-135338500I0J-147500D01*
G01*
X136464000Y-135633500D01*
G75*
G02*
X136316500Y-135781000I-147500J0D01*
G01*
X135971500Y-135781000D01*
G75*
G02*
X135824000Y-135633500I0J147500D01*
G01*
X135824000Y-135338500D01*
G75*
G02*
X135971500Y-135191000I147500J0D01*
G01*
G37*
%TD.AperFunction*%
%TO.P,C6,1*%
%TO.N,+5V*%
%TA.AperFunction,SMDPad,CuDef*%
G36*
G01*
X135971500Y-134221000D02*
X136316500Y-134221000D01*
G75*
G02*
X136464000Y-134368500I0J-147500D01*
G01*
X136464000Y-134663500D01*
G75*
G02*
X136316500Y-134811000I-147500J0D01*
G01*
X135971500Y-134811000D01*
G75*
G02*
X135824000Y-134663500I0J147500D01*
G01*
X135824000Y-134368500D01*
G75*
G02*
X135971500Y-134221000I147500J0D01*
G01*
G37*
%TD.AperFunction*%
%TD*%
%TO.P,C5,2*%
%TO.N,+5V*%
%TA.AperFunction,SMDPad,CuDef*%
G36*
G01*
X137586500Y-134811000D02*
X137241500Y-134811000D01*
G75*
G02*
X137094000Y-134663500I0J147500D01*
G01*
X137094000Y-134368500D01*
G75*
G02*
X137241500Y-134221000I147500J0D01*
G01*
X137586500Y-134221000D01*
G75*
G02*
X137734000Y-134368500I0J-147500D01*
G01*
X137734000Y-134663500D01*
G75*
G02*
X137586500Y-134811000I-147500J0D01*
G01*
G37*
%TD.AperFunction*%
%TO.P,C5,1*%
%TO.N,GND*%
%TA.AperFunction,SMDPad,CuDef*%
G36*
G01*
X137586500Y-135781000D02*
X137241500Y-135781000D01*
G75*
G02*
X137094000Y-135633500I0J147500D01*
G01*
X137094000Y-135338500D01*
G75*
G02*
X137241500Y-135191000I147500J0D01*
G01*
X137586500Y-135191000D01*
G75*
G02*
X137734000Y-135338500I0J-147500D01*
G01*
X137734000Y-135633500D01*
G75*
G02*
X137586500Y-135781000I-147500J0D01*
G01*
G37*
%TD.AperFunction*%
%TD*%
%TO.P,C4,2*%
%TO.N,GND*%
%TA.AperFunction,SMDPad,CuDef*%
G36*
G01*
X138511500Y-135191000D02*
X138856500Y-135191000D01*
G75*
G02*
X139004000Y-135338500I0J-147500D01*
G01*
X139004000Y-135633500D01*
G75*
G02*
X138856500Y-135781000I-147500J0D01*
G01*
X138511500Y-135781000D01*
G75*
G02*
X138364000Y-135633500I0J147500D01*
G01*
X138364000Y-135338500D01*
G75*
G02*
X138511500Y-135191000I147500J0D01*
G01*
G37*
%TD.AperFunction*%
%TO.P,C4,1*%
%TO.N,+5V*%
%TA.AperFunction,SMDPad,CuDef*%
G36*
G01*
X138511500Y-134221000D02*
X138856500Y-134221000D01*
G75*
G02*
X139004000Y-134368500I0J-147500D01*
G01*
X139004000Y-134663500D01*
G75*
G02*
X138856500Y-134811000I-147500J0D01*
G01*
X138511500Y-134811000D01*
G75*
G02*
X138364000Y-134663500I0J147500D01*
G01*
X138364000Y-134368500D01*
G75*
G02*
X138511500Y-134221000I147500J0D01*
G01*
G37*
%TD.AperFunction*%
%TD*%
%TO.P,C3,2*%
%TO.N,GND*%
%TA.AperFunction,SMDPad,CuDef*%
G36*
G01*
X136656419Y-112135184D02*
X136011184Y-112780419D01*
G75*
G02*
X135666470Y-112780419I-172357J172357D01*
G01*
X135321755Y-112435704D01*
G75*
G02*
X135321755Y-112090990I172357J172357D01*
G01*
X135966990Y-111445755D01*
G75*
G02*
X136311704Y-111445755I172357J-172357D01*
G01*
X136656419Y-111790470D01*
G75*
G02*
X136656419Y-112135184I-172357J-172357D01*
G01*
G37*
%TD.AperFunction*%
%TO.P,C3,1*%
%TO.N,Net-(C3-Pad1)*%
%TA.AperFunction,SMDPad,CuDef*%
G36*
G01*
X137982245Y-113461010D02*
X137337010Y-114106245D01*
G75*
G02*
X136992296Y-114106245I-172357J172357D01*
G01*
X136647581Y-113761530D01*
G75*
G02*
X136647581Y-113416816I172357J172357D01*
G01*
X137292816Y-112771581D01*
G75*
G02*
X137637530Y-112771581I172357J-172357D01*
G01*
X137982245Y-113116296D01*
G75*
G02*
X137982245Y-113461010I-172357J-172357D01*
G01*
G37*
%TD.AperFunction*%
%TD*%
D20*
%TO.N,GND*%
X153162000Y-63754000D03*
X153162000Y-60870000D03*
X146304000Y-60833000D03*
X123571000Y-113792000D03*
X118999000Y-118110000D03*
X133280961Y-125660961D03*
X128270000Y-130810000D03*
X118618000Y-89379058D03*
X147320000Y-67691000D03*
X118391913Y-131091913D03*
X134874000Y-127277258D03*
X137261020Y-110998000D03*
%TO.N,+5V*%
X118110000Y-118999000D03*
X123571000Y-112522000D03*
X134493000Y-125730000D03*
X123537274Y-128998274D03*
X135763000Y-124460000D03*
X115657348Y-121499348D03*
X117094000Y-122809000D03*
%TO.N,ROW0*%
X119380000Y-68961000D03*
X173609000Y-70739000D03*
%TO.N,ROW1*%
X120269000Y-70231000D03*
X185139933Y-98265481D03*
%TO.N,ROW2*%
X108839000Y-138684000D03*
X185039000Y-138684000D03*
%TO.N,ROW3*%
X98679000Y-139446000D03*
X192278000Y-139446000D03*
%TO.N,Net-(J1-Pad8)*%
X134493000Y-124587000D03*
%TO.N,Net-(J1-Pad6)*%
X130408617Y-127508000D03*
%TO.N,Net-(J1-Pad5)*%
X134010980Y-116095795D03*
X129032000Y-108421000D03*
X129032000Y-106934000D03*
%TO.N,Net-(J1-Pad4)*%
X134343322Y-117073673D03*
X128033175Y-108469499D03*
X128016000Y-106209000D03*
%TO.N,Net-(J1-Pad3)*%
X134296884Y-118145417D03*
X127647847Y-111394378D03*
X127254000Y-105484000D03*
%TO.N,Net-(J1-Pad2)*%
X134493000Y-119126000D03*
X127798983Y-112382893D03*
X126586835Y-104739087D03*
%TO.N,DBUS+*%
X156464000Y-66838002D03*
X154264000Y-64963000D03*
X148844000Y-62992000D03*
X146375000Y-62992000D03*
%TO.N,Net-(J2-PadB5)*%
X151765000Y-65024000D03*
X154432000Y-60706000D03*
%TO.N,COL0*%
X118253010Y-125025167D03*
X114427000Y-125095000D03*
X123444000Y-145923000D03*
%TO.N,COL1*%
X117883776Y-125954505D03*
X114488427Y-130366913D03*
X124079000Y-145131249D03*
%TO.N,COL2*%
X118419256Y-126799055D03*
X115488412Y-130361181D03*
X125095000Y-141859000D03*
%TO.N,COL3*%
X119115604Y-127516762D03*
X125714042Y-134800000D03*
X125857000Y-141097000D03*
%TO.N,COL4*%
X119873579Y-128169048D03*
X126619000Y-134075000D03*
X126619000Y-140171000D03*
%TO.N,COL5*%
X130302000Y-140208000D03*
X188595000Y-140208000D03*
X188595000Y-138684000D03*
%TO.N,COL6*%
X129667000Y-141097000D03*
%TO.N,COL7*%
X122359847Y-129100153D03*
X123927580Y-130658580D03*
X128905000Y-141986000D03*
%TO.N,COL8*%
X121158000Y-129159000D03*
X123220471Y-131365688D03*
X128197892Y-142693108D03*
%TO.N,COL9*%
X120015000Y-129159000D03*
X122513363Y-132072796D03*
X127381000Y-143383000D03*
%TD*%
D21*
%TO.N,GND*%
X140589000Y-135987000D02*
X140589000Y-144399000D01*
X140661000Y-144471000D02*
X145363000Y-144471000D01*
X140589000Y-144399000D02*
X140661000Y-144471000D01*
X140589000Y-144399000D02*
X134112000Y-144399000D01*
X134112000Y-144399000D02*
X134112000Y-146685000D01*
X134112000Y-146685000D02*
X131572000Y-146685000D01*
X131445000Y-146558000D02*
X131445000Y-144399000D01*
X131572000Y-146685000D02*
X131445000Y-146558000D01*
X139185000Y-135987000D02*
X138684000Y-135486000D01*
X140589000Y-135987000D02*
X139185000Y-135987000D01*
X138684000Y-135486000D02*
X137414000Y-135486000D01*
X137414000Y-135486000D02*
X136144000Y-135486000D01*
X135824000Y-135486000D02*
X134874000Y-134536000D01*
X136144000Y-135486000D02*
X135824000Y-135486000D01*
X134874000Y-134536000D02*
X134874000Y-127277258D01*
X119761000Y-132461000D02*
X118391913Y-131091913D01*
X121099854Y-132461000D02*
X119761000Y-132461000D01*
X125416918Y-128143936D02*
X121099854Y-132461000D01*
X154264000Y-65913000D02*
X153484000Y-65913000D01*
X153162000Y-66235000D02*
X153162000Y-66802000D01*
X151862000Y-66802000D02*
X151765000Y-66899000D01*
X153162000Y-66802000D02*
X151862000Y-66802000D01*
X149382000Y-66899000D02*
X149352000Y-66929000D01*
X151765000Y-66899000D02*
X149382000Y-66899000D01*
X153259500Y-63851500D02*
X153162000Y-63754000D01*
X153259500Y-66137500D02*
X153259500Y-63851500D01*
X153484000Y-65913000D02*
X153259500Y-66137500D01*
X153259500Y-66137500D02*
X153162000Y-66235000D01*
X153162000Y-60870000D02*
X152183000Y-60870000D01*
X152200000Y-60853000D02*
X152200000Y-59948000D01*
X152183000Y-60870000D02*
X152200000Y-60853000D01*
X152205000Y-59943000D02*
X152200000Y-59948000D01*
X152205000Y-58623000D02*
X152205000Y-59943000D01*
X146250000Y-58623000D02*
X146250000Y-59948000D01*
X146304000Y-60002000D02*
X146250000Y-59948000D01*
X146304000Y-60833000D02*
X146304000Y-60002000D01*
X134659542Y-112113087D02*
X130083823Y-116688806D01*
X135989087Y-112113087D02*
X134659542Y-112113087D01*
X120670602Y-93807551D02*
X121539000Y-94675949D01*
X120670602Y-92605470D02*
X120670602Y-93807551D01*
X121539000Y-94675949D02*
X121539000Y-111679517D01*
X123611241Y-113751759D02*
X123571000Y-113792000D01*
X121539000Y-111679517D02*
X123611241Y-113751759D01*
X123611241Y-113751759D02*
X124851233Y-114991750D01*
X118999000Y-118190483D02*
X120325750Y-119517233D01*
X118999000Y-118110000D02*
X118999000Y-118190483D01*
X133234629Y-125614629D02*
X133280961Y-125660961D01*
X133211371Y-125614629D02*
X133234629Y-125614629D01*
X134874000Y-127277258D02*
X133211371Y-125614629D01*
X133211371Y-125614629D02*
X131780880Y-124184138D01*
X125603936Y-128143936D02*
X125416918Y-128143936D01*
X128270000Y-130810000D02*
X125603936Y-128143936D01*
X118618000Y-90552868D02*
X118618000Y-89379058D01*
X120670602Y-92605470D02*
X118618000Y-90552868D01*
X148590000Y-67691000D02*
X149352000Y-66929000D01*
X147320000Y-67691000D02*
X148590000Y-67691000D01*
X137104174Y-110998000D02*
X135989087Y-112113087D01*
X137261020Y-110998000D02*
X137104174Y-110998000D01*
%TO.N,Net-(C3-Pad1)*%
X134465087Y-113438913D02*
X130649509Y-117254491D01*
X137314913Y-113438913D02*
X134465087Y-113438913D01*
%TO.N,+5V*%
X139088000Y-134112000D02*
X138684000Y-134516000D01*
X140589000Y-134112000D02*
X139088000Y-134112000D01*
X138684000Y-134516000D02*
X137414000Y-134516000D01*
X137414000Y-134516000D02*
X136144000Y-134516000D01*
X139242587Y-130837913D02*
X140716000Y-132311326D01*
X140716000Y-133985000D02*
X140589000Y-134112000D01*
X140716000Y-132311326D02*
X140716000Y-133985000D01*
X144266000Y-65913000D02*
X123317000Y-65913000D01*
X123317000Y-65913000D02*
X123317000Y-77597000D01*
X125416918Y-114426064D02*
X125416918Y-114367918D01*
X122301000Y-88593384D02*
X124460000Y-86434384D01*
X122301000Y-111252000D02*
X122301000Y-88593384D01*
X124460000Y-86434384D02*
X124460000Y-77597000D01*
X124460000Y-77597000D02*
X123317000Y-77597000D01*
X128870876Y-114507641D02*
X128386767Y-114991750D01*
X128870876Y-113955564D02*
X128870876Y-114507641D01*
X128291582Y-113376270D02*
X128870876Y-113955564D01*
X128022332Y-113376270D02*
X128291582Y-113376270D01*
X126972538Y-114426064D02*
X128022332Y-113376270D01*
X125416918Y-114426064D02*
X126972538Y-114426064D01*
X119193918Y-120082918D02*
X118110000Y-118999000D01*
X119760064Y-120082918D02*
X119193918Y-120082918D01*
X123571000Y-112522000D02*
X122301000Y-111252000D01*
X125416918Y-114367918D02*
X123571000Y-112522000D01*
X134319944Y-125556944D02*
X134493000Y-125730000D01*
X134285056Y-125556944D02*
X134319944Y-125556944D01*
X139242587Y-130514474D02*
X134285056Y-125556944D01*
X134285056Y-125556944D02*
X132346565Y-123618452D01*
X124851233Y-127684315D02*
X123537274Y-128998274D01*
X124851233Y-127578250D02*
X124851233Y-127684315D01*
X135763000Y-116774813D02*
X135763000Y-124460000D01*
X134358981Y-115370794D02*
X135763000Y-116774813D01*
X133664577Y-115370794D02*
X134358981Y-115370794D01*
X131215194Y-117820177D02*
X133664577Y-115370794D01*
X115784348Y-121499348D02*
X117094000Y-122809000D01*
X115657348Y-121499348D02*
X115784348Y-121499348D01*
%TO.N,Net-(D1-Pad2)*%
X31486948Y-64010600D02*
X30506067Y-64991481D01*
X31486948Y-59066989D02*
X31486948Y-64010600D01*
%TO.N,ROW0*%
X52297933Y-65564519D02*
X53440933Y-64421519D01*
X33755933Y-65564519D02*
X52297933Y-65564519D01*
X68045933Y-64421519D02*
X74014933Y-58452519D01*
X53440933Y-64421519D02*
X68045933Y-64421519D01*
X74014933Y-58452519D02*
X74014933Y-60552933D01*
X74014933Y-60552933D02*
X87376000Y-73914000D01*
X88652452Y-73914000D02*
X91159933Y-71406519D01*
X87376000Y-73914000D02*
X88652452Y-73914000D01*
X91159933Y-71406519D02*
X92107519Y-71406519D01*
X92107519Y-71406519D02*
X104775000Y-84074000D01*
X104775000Y-84074000D02*
X108966000Y-84074000D01*
X109320933Y-83719067D02*
X109320933Y-79534519D01*
X108966000Y-84074000D02*
X109320933Y-83719067D01*
X192124933Y-79469481D02*
X200125933Y-71468481D01*
X182091933Y-79469481D02*
X192124933Y-79469481D01*
X207491933Y-71468481D02*
X217778933Y-61181481D01*
X200125933Y-71468481D02*
X207491933Y-71468481D01*
X217778933Y-61181481D02*
X224376481Y-61181481D01*
X224376481Y-61181481D02*
X232918000Y-69723000D01*
X238098933Y-64542067D02*
X238098933Y-64483481D01*
X232918000Y-69723000D02*
X238098933Y-64542067D01*
X247230029Y-64483481D02*
X251867067Y-69120519D01*
X238098933Y-64483481D02*
X247230029Y-64483481D01*
X119380000Y-70751002D02*
X119380000Y-68961000D01*
X110596483Y-79534519D02*
X119380000Y-70751002D01*
X109320933Y-79534519D02*
X110596483Y-79534519D01*
X173609000Y-70739000D02*
X173609000Y-81280000D01*
X173609000Y-81280000D02*
X182372000Y-81280000D01*
X182372000Y-79749548D02*
X182091933Y-79469481D01*
X182372000Y-81280000D02*
X182372000Y-79749548D01*
%TO.N,Net-(D2-Pad2)*%
X51171948Y-62867600D02*
X50191067Y-63848481D01*
X51171948Y-57923989D02*
X51171948Y-62867600D01*
%TO.N,Net-(D3-Pad2)*%
X71745948Y-56898600D02*
X70765067Y-57879481D01*
X71745948Y-51954989D02*
X71745948Y-56898600D01*
%TO.N,Net-(D4-Pad2)*%
X89017948Y-69725600D02*
X87910067Y-70833481D01*
X89017948Y-64908989D02*
X89017948Y-69725600D01*
%TO.N,Net-(D5-Pad2)*%
X28057948Y-82679600D02*
X26950067Y-83787481D01*
X28057948Y-77862989D02*
X28057948Y-82679600D01*
%TO.N,ROW1*%
X48868933Y-84360519D02*
X50011933Y-83217519D01*
X30199933Y-84360519D02*
X48868933Y-84360519D01*
X64743933Y-83217519D02*
X70712933Y-77248519D01*
X50011933Y-83217519D02*
X64743933Y-83217519D01*
X70712933Y-77248519D02*
X70712933Y-79221933D01*
X70712933Y-79221933D02*
X85090000Y-93599000D01*
X87984933Y-90704067D02*
X87984933Y-90202519D01*
X85090000Y-93599000D02*
X87984933Y-90704067D01*
X87984933Y-90202519D02*
X87984933Y-91667933D01*
X87984933Y-91667933D02*
X97028000Y-100711000D01*
X103765452Y-100711000D02*
X106145933Y-98330519D01*
X97028000Y-100711000D02*
X103765452Y-100711000D01*
X195299933Y-98265481D02*
X203427933Y-90137481D01*
X185139933Y-98265481D02*
X195299933Y-98265481D01*
X210920933Y-90137481D02*
X221080933Y-79977481D01*
X203427933Y-90137481D02*
X210920933Y-90137481D01*
X221080933Y-79977481D02*
X228186481Y-79977481D01*
X228186481Y-79977481D02*
X236474000Y-88265000D01*
X236542414Y-88265000D02*
X241400933Y-83406481D01*
X236474000Y-88265000D02*
X236542414Y-88265000D01*
X250532029Y-83406481D02*
X255042067Y-87916519D01*
X241400933Y-83406481D02*
X250532029Y-83406481D01*
X120269000Y-78473998D02*
X120269000Y-70231000D01*
X104862999Y-93879999D02*
X120269000Y-78473998D01*
X104862999Y-97047585D02*
X104862999Y-93879999D01*
X106145933Y-98330519D02*
X104862999Y-97047585D01*
%TO.N,Net-(D6-Pad2)*%
X107178948Y-77853600D02*
X106071067Y-78961481D01*
X107178948Y-73036989D02*
X107178948Y-77853600D01*
%TO.N,Net-(D7-Pad2)*%
X178842067Y-75404439D02*
X178842067Y-80042519D01*
X177543816Y-74106188D02*
X178842067Y-75404439D01*
%TO.N,Net-(D8-Pad2)*%
X196876067Y-67276439D02*
X196876067Y-72041519D01*
X195704816Y-66105188D02*
X196876067Y-67276439D01*
%TO.N,Net-(D9-Pad2)*%
X24755948Y-101602600D02*
X23775067Y-102583481D01*
X24755948Y-96658989D02*
X24755948Y-101602600D01*
%TO.N,ROW2*%
X45566933Y-103156519D02*
X46709933Y-102013519D01*
X27024933Y-103156519D02*
X45566933Y-103156519D01*
X61441933Y-102013519D02*
X67410933Y-96044519D01*
X46709933Y-102013519D02*
X61441933Y-102013519D01*
X83185000Y-111506000D02*
X84554933Y-110136067D01*
X79502000Y-111506000D02*
X83185000Y-111506000D01*
X67410933Y-99414933D02*
X79502000Y-111506000D01*
X84554933Y-110136067D02*
X84554933Y-108998519D01*
X67410933Y-96044519D02*
X67410933Y-99414933D01*
X102716933Y-120295067D02*
X102716933Y-117126519D01*
X101219000Y-121793000D02*
X102716933Y-120295067D01*
X94615000Y-121793000D02*
X101219000Y-121793000D01*
X84554933Y-111732933D02*
X94615000Y-121793000D01*
X84554933Y-108998519D02*
X84554933Y-111732933D01*
X249085971Y-106585519D02*
X244702933Y-102202481D01*
X258598067Y-106585519D02*
X249085971Y-106585519D01*
X240538000Y-106553000D02*
X244856000Y-106553000D01*
X232758481Y-98773481D02*
X240538000Y-106553000D01*
X244856000Y-102355548D02*
X244702933Y-102202481D01*
X244856000Y-106553000D02*
X244856000Y-102355548D01*
X224509933Y-98773481D02*
X232758481Y-98773481D01*
X214222933Y-109060481D02*
X224509933Y-98773481D01*
X206602933Y-109060481D02*
X214222933Y-109060481D01*
X198601933Y-117061481D02*
X206602933Y-109060481D01*
X188442933Y-117061481D02*
X198601933Y-117061481D01*
X102716933Y-117126519D02*
X108744519Y-117126519D01*
X108839000Y-117221000D02*
X108839000Y-138684000D01*
X108744519Y-117126519D02*
X108839000Y-117221000D01*
X185039000Y-138684000D02*
X185039000Y-119888000D01*
X185039000Y-119888000D02*
X189230000Y-119888000D01*
X189230000Y-117848548D02*
X188442933Y-117061481D01*
X189230000Y-119888000D02*
X189230000Y-117848548D01*
%TO.N,Net-(D10-Pad2)*%
X214529067Y-56862439D02*
X214529067Y-61754519D01*
X213484816Y-55818188D02*
X214529067Y-56862439D01*
%TO.N,Net-(D11-Pad2)*%
X234849067Y-60418439D02*
X234849067Y-65056519D01*
X233677816Y-59247188D02*
X234849067Y-60418439D01*
%TO.N,Net-(D12-Pad2)*%
X255116933Y-64684305D02*
X255116933Y-68547481D01*
X254124816Y-63692188D02*
X255116933Y-64684305D01*
%TO.N,Net-(D13-Pad2)*%
X47869948Y-81536600D02*
X46762067Y-82644481D01*
X47869948Y-76719989D02*
X47869948Y-81536600D01*
%TO.N,Net-(D14-Pad2)*%
X68489404Y-75649144D02*
X67463067Y-76675481D01*
X68489404Y-70740746D02*
X68489404Y-75649144D01*
%TO.N,Net-(D15-Pad2)*%
X85715948Y-88648600D02*
X84735067Y-89629481D01*
X85715948Y-83704989D02*
X85715948Y-88648600D01*
%TO.N,Net-(D16-Pad2)*%
X103876948Y-96776600D02*
X102896067Y-97757481D01*
X103876948Y-91832989D02*
X103876948Y-96776600D01*
%TO.N,Net-(D17-Pad2)*%
X181890067Y-93946439D02*
X181890067Y-98838519D01*
X180845816Y-92902188D02*
X181890067Y-93946439D01*
%TO.N,Net-(D18-Pad2)*%
X200178067Y-86023608D02*
X200178067Y-90710519D01*
X199038537Y-84884078D02*
X200178067Y-86023608D01*
%TO.N,Net-(D19-Pad2)*%
X217831067Y-75609608D02*
X217831067Y-80550519D01*
X216818537Y-74597078D02*
X217831067Y-75609608D01*
%TO.N,Net-(D20-Pad2)*%
X238151067Y-79214439D02*
X238151067Y-83979519D01*
X236979816Y-78043188D02*
X238151067Y-79214439D01*
%TO.N,Net-(D21-Pad2)*%
X258291933Y-83304474D02*
X258291933Y-87343481D01*
X257458537Y-82471078D02*
X258291933Y-83304474D01*
%TO.N,Net-(D22-Pad2)*%
X44567948Y-100332600D02*
X43460067Y-101440481D01*
X44567948Y-95505746D02*
X44567948Y-100332600D01*
%TO.N,Net-(D23-Pad2)*%
X65141948Y-94490600D02*
X64161067Y-95471481D01*
X65141948Y-89536746D02*
X65141948Y-94490600D01*
%TO.N,Net-(D24-Pad2)*%
X82413948Y-107316600D02*
X81305067Y-108425481D01*
X82413948Y-102500989D02*
X82413948Y-107316600D01*
%TO.N,Net-(D25-Pad2)*%
X100574948Y-115445600D02*
X99467067Y-116553481D01*
X100574948Y-110628989D02*
X100574948Y-115445600D01*
%TO.N,Net-(D26-Pad2)*%
X185193067Y-112694608D02*
X185193067Y-117634519D01*
X184179537Y-111681078D02*
X185193067Y-112694608D01*
%TO.N,Net-(D27-Pad2)*%
X203353067Y-104692608D02*
X203353067Y-109633519D01*
X202340537Y-103680078D02*
X203353067Y-104692608D01*
%TO.N,Net-(D28-Pad2)*%
X221260067Y-94549718D02*
X221260067Y-99346519D01*
X220120537Y-93410188D02*
X221260067Y-94549718D01*
%TO.N,Net-(D29-Pad2)*%
X241453067Y-98088608D02*
X241453067Y-102775519D01*
X240313537Y-96949078D02*
X241453067Y-98088608D01*
%TO.N,Net-(D30-Pad2)*%
X261847933Y-102354474D02*
X261847933Y-106012481D01*
X260760537Y-101267078D02*
X261847933Y-102354474D01*
%TO.N,Net-(D31-Pad2)*%
X103536721Y-135991731D02*
X101954933Y-137573519D01*
X103536721Y-129049110D02*
X103536721Y-135991731D01*
%TO.N,ROW3*%
X98705067Y-139419933D02*
X98679000Y-139446000D01*
X98705067Y-137000481D02*
X98705067Y-139419933D01*
X192278000Y-136785452D02*
X192177067Y-136684519D01*
X192278000Y-139446000D02*
X192278000Y-136785452D01*
%TO.N,Net-(D32-Pad2)*%
X195426933Y-129562764D02*
X195426933Y-136111481D01*
X193643279Y-127779110D02*
X195426933Y-129562764D01*
%TO.N,VBUS*%
X147100000Y-65879000D02*
X147066000Y-65913000D01*
X147100000Y-59948000D02*
X147100000Y-65879000D01*
X151350000Y-60407619D02*
X151384000Y-60441619D01*
X151350000Y-59948000D02*
X151350000Y-60407619D01*
X151384000Y-60441619D02*
X151384000Y-61595000D01*
X151384000Y-61595000D02*
X157607000Y-61595000D01*
X157607000Y-61595000D02*
X157607000Y-65913000D01*
X157607000Y-65913000D02*
X156464000Y-65913000D01*
X147100000Y-58628000D02*
X147105000Y-58623000D01*
X147100000Y-59948000D02*
X147100000Y-58628000D01*
X151350000Y-58628000D02*
X151355000Y-58623000D01*
X151350000Y-59948000D02*
X151350000Y-58628000D01*
X151384000Y-58594000D02*
X151355000Y-58623000D01*
%TO.N,Net-(J1-Pad8)*%
X140568413Y-129512087D02*
X150622000Y-139565674D01*
X151511000Y-140719000D02*
X151563000Y-140771000D01*
X140568413Y-129512087D02*
X139371570Y-129512087D01*
X151563000Y-140506674D02*
X150622000Y-139565674D01*
X151563000Y-140771000D02*
X151563000Y-140506674D01*
X134469742Y-124610258D02*
X134493000Y-124587000D01*
X139371570Y-129512087D02*
X134469742Y-124610258D01*
X134469742Y-124610258D02*
X132912250Y-123052767D01*
%TO.N,Net-(J1-Pad6)*%
X129518138Y-126617521D02*
X130408617Y-127508000D01*
X129518138Y-126446880D02*
X129518138Y-126617521D01*
%TO.N,Net-(J1-Pad5)*%
X131780880Y-118325895D02*
X134010980Y-116095795D01*
X131780880Y-118385862D02*
X131780880Y-118325895D01*
X129032000Y-108421000D02*
X129032000Y-106934000D01*
%TO.N,Net-(J1-Pad4)*%
X132465447Y-118951548D02*
X134343322Y-117073673D01*
X132346565Y-118951548D02*
X132465447Y-118951548D01*
X128033175Y-106226175D02*
X128016000Y-106209000D01*
X128033175Y-108469499D02*
X128033175Y-106226175D01*
%TO.N,Net-(J1-Pad3)*%
X132925068Y-119517233D02*
X134296884Y-118145417D01*
X132912250Y-119517233D02*
X132925068Y-119517233D01*
X127254000Y-111000531D02*
X127254000Y-105484000D01*
X127647847Y-111394378D02*
X127254000Y-111000531D01*
%TO.N,Net-(J1-Pad2)*%
X133536082Y-120082918D02*
X134493000Y-119126000D01*
X133477936Y-120082918D02*
X133536082Y-120082918D01*
X126528999Y-104796923D02*
X126586835Y-104739087D01*
X126528999Y-111678594D02*
X126528999Y-104796923D01*
X127233298Y-112382893D02*
X126528999Y-111678594D01*
X127798983Y-112382893D02*
X127233298Y-112382893D01*
%TO.N,Net-(J2-PadA5)*%
X149352000Y-65054000D02*
X148112000Y-65054000D01*
X147950000Y-64892000D02*
X147950000Y-59948000D01*
X148112000Y-65054000D02*
X147950000Y-64892000D01*
%TO.N,DBUS+*%
X156464000Y-66863000D02*
X156464000Y-66838002D01*
X154264000Y-64963000D02*
X154264000Y-63078000D01*
X154264000Y-63078000D02*
X154178000Y-62992000D01*
X154178000Y-62992000D02*
X148844000Y-62992000D01*
X148844000Y-62992000D02*
X148844000Y-59992000D01*
X148800000Y-59948000D02*
X148844000Y-59992000D01*
X144124990Y-57896981D02*
X144617971Y-57404000D01*
X144124990Y-60741990D02*
X144124990Y-57896981D01*
X146375000Y-62992000D02*
X144124990Y-60741990D01*
X144617971Y-57404000D02*
X149606000Y-57404000D01*
X149606000Y-58574000D02*
X149655000Y-58623000D01*
X149606000Y-57404000D02*
X149606000Y-58574000D01*
X156464000Y-66838002D02*
X154435991Y-68866011D01*
X126205989Y-68866011D02*
X126180010Y-68891990D01*
X154435991Y-68866011D02*
X126205989Y-68866011D01*
X126180010Y-68891990D02*
X126180010Y-103054990D01*
X134520913Y-109186023D02*
X134520913Y-110383587D01*
X128389880Y-103054990D02*
X134520913Y-109186023D01*
X126180010Y-103054990D02*
X128389880Y-103054990D01*
%TO.N,DBUS-*%
X155119001Y-66787999D02*
X155044000Y-66863000D01*
X155119001Y-65527999D02*
X155119001Y-66787999D01*
X155044000Y-66863000D02*
X154264000Y-66863000D01*
X155684000Y-64963000D02*
X155119001Y-65527999D01*
X156464000Y-64963000D02*
X155684000Y-64963000D01*
X156464000Y-64963000D02*
X156464000Y-62357000D01*
X156464000Y-62357000D02*
X149606000Y-62357000D01*
X149606000Y-59992000D02*
X149650000Y-59948000D01*
X149606000Y-62357000D02*
X149606000Y-59992000D01*
X148805000Y-58735002D02*
X148805000Y-58623000D01*
X149650000Y-59580002D02*
X148805000Y-58735002D01*
X149650000Y-59948000D02*
X149650000Y-59580002D01*
X154264000Y-66863000D02*
X154264000Y-68113000D01*
X153960999Y-68416001D02*
X125947001Y-68416001D01*
X154264000Y-68113000D02*
X153960999Y-68416001D01*
X125947001Y-68416001D02*
X125730000Y-68633002D01*
X125730000Y-68633002D02*
X125730000Y-103505000D01*
X127690826Y-103505000D02*
X133123913Y-108938087D01*
X125730000Y-103505000D02*
X127690826Y-103505000D01*
%TO.N,Net-(J2-PadB5)*%
X154432000Y-58003971D02*
X153832029Y-57404000D01*
X154432000Y-60706000D02*
X154432000Y-58003971D01*
X153832029Y-57404000D02*
X150495000Y-57404000D01*
X150495000Y-58613000D02*
X150505000Y-58623000D01*
X150495000Y-57404000D02*
X150495000Y-58613000D01*
%TO.N,COL0*%
X118618000Y-124760517D02*
X118618000Y-125095000D01*
X120325750Y-123052767D02*
X118618000Y-124760517D01*
X113776258Y-131445000D02*
X114364419Y-131445000D01*
X110993109Y-128661851D02*
X113776258Y-131445000D01*
X110993109Y-126435705D02*
X110993109Y-128661851D01*
X112333814Y-125095000D02*
X110993109Y-126435705D01*
X114427000Y-125095000D02*
X112333814Y-125095000D01*
X114364419Y-131445000D02*
X114804819Y-131885400D01*
X114804819Y-131885400D02*
X115068429Y-132149010D01*
X115068429Y-132149010D02*
X116003421Y-132149010D01*
X116003421Y-132149010D02*
X117723431Y-133869020D01*
X117723431Y-133869020D02*
X121920000Y-133869020D01*
X121920000Y-134366000D02*
X123644987Y-136090987D01*
X121920000Y-133869020D02*
X121920000Y-134366000D01*
X123353999Y-145832999D02*
X123444000Y-145923000D01*
X123353999Y-136381975D02*
X123353999Y-145832999D01*
X123644987Y-136090987D02*
X123353999Y-136381975D01*
%TO.N,COL1*%
X118555382Y-125954505D02*
X117883776Y-125954505D01*
X120891435Y-123618452D02*
X118555382Y-125954505D01*
X115254829Y-131699000D02*
X116189821Y-131699000D01*
X114488427Y-130932598D02*
X115254829Y-131699000D01*
X114488427Y-130366913D02*
X114488427Y-130932598D01*
X116189821Y-131699000D02*
X117594411Y-133103590D01*
X117594411Y-133103590D02*
X117909831Y-133419010D01*
X117909831Y-133419010D02*
X122368600Y-133419010D01*
X122368600Y-133419010D02*
X124644990Y-135695400D01*
X124094997Y-136245393D02*
X124094997Y-141859000D01*
X124644990Y-135695400D02*
X124094997Y-136245393D01*
X124094997Y-145115252D02*
X124079000Y-145131249D01*
X124094997Y-141859000D02*
X124094997Y-145115252D01*
%TO.N,COL2*%
X120550065Y-124668246D02*
X118419256Y-126799055D01*
X120973012Y-124668246D02*
X120550065Y-124668246D01*
X121457120Y-124184138D02*
X120973012Y-124668246D01*
X115488412Y-130361181D02*
X118096231Y-132969000D01*
X118096231Y-132969000D02*
X122555000Y-132969000D01*
X125095000Y-135509000D02*
X125095000Y-141859000D01*
X122555000Y-132969000D02*
X125095000Y-135509000D01*
%TO.N,COL3*%
X121882543Y-124749823D02*
X119115604Y-127516762D01*
X122022806Y-124749823D02*
X121882543Y-124749823D01*
X125714042Y-140954042D02*
X125857000Y-141097000D01*
X125714042Y-134800000D02*
X125714042Y-140954042D01*
%TO.N,COL4*%
X122588491Y-125454136D02*
X119873579Y-128169048D01*
X122588491Y-125315509D02*
X122588491Y-125454136D01*
X126619000Y-134075000D02*
X126619000Y-140171000D01*
%TO.N,COL5*%
X130302000Y-129493483D02*
X130302000Y-140208000D01*
X128386767Y-127578250D02*
X130302000Y-129493483D01*
X188595000Y-140208000D02*
X188595000Y-138684000D01*
%TO.N,COL6*%
X127821082Y-128143936D02*
X127889936Y-128143936D01*
X129576999Y-141006999D02*
X129667000Y-141097000D01*
X129576999Y-129830999D02*
X129576999Y-141006999D01*
X127889936Y-128143936D02*
X129576999Y-129830999D01*
%TO.N,COL7*%
X124285548Y-127174452D02*
X122359847Y-129100153D01*
X124285548Y-127012565D02*
X124285548Y-127174452D01*
X123927580Y-130658580D02*
X125349000Y-132080000D01*
X125349000Y-132080000D02*
X129032000Y-132080000D01*
X128905000Y-132207000D02*
X128905000Y-141986000D01*
X129032000Y-132080000D02*
X128905000Y-132207000D01*
%TO.N,COL8*%
X123719862Y-126597138D02*
X121158000Y-129159000D01*
X123719862Y-126446880D02*
X123719862Y-126597138D01*
X123220471Y-131365688D02*
X124696783Y-132842000D01*
X124696783Y-132842000D02*
X128454990Y-132842000D01*
X128179999Y-142675215D02*
X128197892Y-142693108D01*
X128179999Y-133116991D02*
X128179999Y-142675215D01*
X128454990Y-132842000D02*
X128179999Y-133116991D01*
%TO.N,COL9*%
X123154177Y-126019823D02*
X120015000Y-129159000D01*
X123154177Y-125881194D02*
X123154177Y-126019823D01*
X122513363Y-132072796D02*
X123790567Y-133350000D01*
X123790567Y-133350000D02*
X127381000Y-133350000D01*
X127381000Y-133350000D02*
X127381000Y-143383000D01*
%TO.N,Net-(R4-Pad1)*%
X133195087Y-112446171D02*
X129518138Y-116123120D01*
X133195087Y-111709413D02*
X133195087Y-112446171D01*
%TO.N,Net-(R5-Pad1)*%
X131798087Y-112711800D02*
X128952452Y-115557435D01*
X131798087Y-110263913D02*
X131798087Y-112711800D01*
%TO.N,Net-(R6-Pad2)*%
X119760064Y-122487082D02*
X116205000Y-126042146D01*
X116205000Y-126042146D02*
X116205000Y-128905000D01*
X116205000Y-128905000D02*
X117066087Y-129766087D01*
%TO.N,Net-(U2-Pad17)*%
X131133617Y-125799617D02*
X131133617Y-141801617D01*
X130649509Y-125315509D02*
X131133617Y-125799617D01*
X131133617Y-141801617D02*
X131076234Y-141859000D01*
X131076234Y-141859000D02*
X130302000Y-141859000D01*
X130302000Y-144342000D02*
X130245000Y-144399000D01*
X130302000Y-141859000D02*
X130302000Y-144342000D01*
%TO.N,Net-(U2-Pad16)*%
X132645000Y-126179629D02*
X131215194Y-124749823D01*
X132645000Y-144399000D02*
X132645000Y-126179629D01*
%TD*%
M02*
