%TF.GenerationSoftware,KiCad,Pcbnew,5.1.6*%
%TF.CreationDate,2020-09-20T21:14:14+03:00*%
%TF.ProjectId,Ball40,42616c6c-3430-42e6-9b69-6361645f7063,rev?*%
%TF.SameCoordinates,Original*%
%TF.FileFunction,Soldermask,Top*%
%TF.FilePolarity,Negative*%
%FSLAX46Y46*%
G04 Gerber Fmt 4.6, Leading zero omitted, Abs format (unit mm)*
G04 Created by KiCad (PCBNEW 5.1.6) date 2020-09-20 21:14:14*
%MOMM*%
%LPD*%
G01*
G04 APERTURE LIST*
%ADD10C,4.087800*%
%ADD11C,1.850000*%
%ADD12C,3.148000*%
%ADD13C,1.800000*%
%ADD14C,4.100000*%
%ADD15C,2.300000*%
%ADD16C,0.750000*%
%ADD17O,1.000000X2.500000*%
%ADD18O,1.000000X1.800000*%
%ADD19C,0.100000*%
G04 APERTURE END LIST*
D10*
%TO.C,MX32*%
X192024000Y-133223000D03*
D11*
X187021177Y-134105133D03*
X197026823Y-132340867D03*
D12*
X181511565Y-142169381D03*
X204962300Y-138034384D03*
D10*
X178865167Y-127160911D03*
X202315902Y-123025913D03*
%TD*%
%TO.C,MX31*%
X100153177Y-133610867D03*
D11*
X95150354Y-132728734D03*
X105156000Y-134493000D03*
D12*
X87214877Y-138422251D03*
X110665612Y-142557248D03*
D10*
X89861275Y-123413780D03*
X113312010Y-127548778D03*
%TD*%
D13*
%TO.C,MX30*%
X269956544Y-102224757D03*
X259950898Y-103989022D03*
D14*
X264953721Y-103106890D03*
D15*
X260760537Y-101267078D03*
X266573000Y-97663000D03*
%TD*%
D13*
%TO.C,MX29*%
X249509544Y-97906757D03*
X239503898Y-99671022D03*
D14*
X244506721Y-98788890D03*
D15*
X240313537Y-96949078D03*
X246126000Y-93345000D03*
%TD*%
D13*
%TO.C,MX28*%
X229316544Y-94367867D03*
X219310898Y-96132132D03*
D14*
X224313721Y-95250000D03*
D15*
X220120537Y-93410188D03*
X225933000Y-89806110D03*
%TD*%
D13*
%TO.C,MX27*%
X211536544Y-104637757D03*
X201530898Y-106402022D03*
D14*
X206533721Y-105519890D03*
D15*
X202340537Y-103680078D03*
X208153000Y-100076000D03*
%TD*%
D13*
%TO.C,MX26*%
X193375544Y-112638757D03*
X183369898Y-114403022D03*
D14*
X188372721Y-113520890D03*
D15*
X184179537Y-111681078D03*
X189992000Y-108077000D03*
%TD*%
D13*
%TO.C,MX25*%
X108888823Y-114674133D03*
X98883176Y-112909867D03*
D14*
X103886000Y-113792000D03*
D15*
X100574948Y-110628989D03*
X107269544Y-109230243D03*
%TD*%
D13*
%TO.C,MX24*%
X90727823Y-106546133D03*
X80722176Y-104781867D03*
D14*
X85725000Y-105664000D03*
D15*
X82413948Y-102500989D03*
X89108544Y-101102243D03*
%TD*%
D13*
%TO.C,MX23*%
X73455823Y-93581890D03*
X63450176Y-91817624D03*
D14*
X68453000Y-92699757D03*
D15*
X65141948Y-89536746D03*
X71836544Y-88138000D03*
%TD*%
D13*
%TO.C,MX22*%
X52881823Y-99550890D03*
X42876176Y-97786624D03*
D14*
X47879000Y-98668757D03*
D15*
X44567948Y-95505746D03*
X51262544Y-94107000D03*
%TD*%
D13*
%TO.C,MX21*%
X266654544Y-83428757D03*
X256648898Y-85193022D03*
D14*
X261651721Y-84310890D03*
D15*
X257458537Y-82471078D03*
X263271000Y-78867000D03*
%TD*%
D13*
%TO.C,MX20*%
X246175823Y-79000867D03*
X236170177Y-80765132D03*
D14*
X241173000Y-79883000D03*
D15*
X236979816Y-78043188D03*
X242792279Y-74439110D03*
%TD*%
D13*
%TO.C,MX19*%
X226014544Y-75554757D03*
X216008898Y-77319022D03*
D14*
X221011721Y-76436890D03*
D15*
X216818537Y-74597078D03*
X222631000Y-70993000D03*
%TD*%
D13*
%TO.C,MX18*%
X208234544Y-85841757D03*
X198228898Y-87606022D03*
D14*
X203231721Y-86723890D03*
D15*
X199038537Y-84884078D03*
X204851000Y-81280000D03*
%TD*%
D13*
%TO.C,MX17*%
X190041823Y-93859867D03*
X180036177Y-95624132D03*
D14*
X185039000Y-94742000D03*
D15*
X180845816Y-92902188D03*
X186658279Y-89298110D03*
%TD*%
D13*
%TO.C,MX16*%
X112190823Y-95878133D03*
X102185176Y-94113867D03*
D14*
X107188000Y-94996000D03*
D15*
X103876948Y-91832989D03*
X110571544Y-90434243D03*
%TD*%
D13*
%TO.C,MX15*%
X94029823Y-87750133D03*
X84024176Y-85985867D03*
D14*
X89027000Y-86868000D03*
D15*
X85715948Y-83704989D03*
X92410544Y-82306243D03*
%TD*%
D13*
%TO.C,MX14*%
X76803279Y-74785890D03*
X66797632Y-73021624D03*
D14*
X71800456Y-73903757D03*
D15*
X68489404Y-70740746D03*
X75184000Y-69342000D03*
%TD*%
D13*
%TO.C,MX13*%
X56183823Y-80765133D03*
X46178176Y-79000867D03*
D14*
X51181000Y-79883000D03*
D15*
X47869948Y-76719989D03*
X54564544Y-75321243D03*
%TD*%
D13*
%TO.C,MX12*%
X263320823Y-64649867D03*
X253315177Y-66414132D03*
D14*
X258318000Y-65532000D03*
D15*
X254124816Y-63692188D03*
X259937279Y-60088110D03*
%TD*%
D13*
%TO.C,MX11*%
X242873823Y-60204867D03*
X232868177Y-61969132D03*
D14*
X237871000Y-61087000D03*
D15*
X233677816Y-59247188D03*
X239490279Y-55643110D03*
%TD*%
D13*
%TO.C,MX10*%
X222680823Y-56775867D03*
X212675177Y-58540132D03*
D14*
X217678000Y-57658000D03*
D15*
X213484816Y-55818188D03*
X219297279Y-52214110D03*
%TD*%
D13*
%TO.C,MX9*%
X33069823Y-100704133D03*
X23064176Y-98939867D03*
D14*
X28067000Y-99822000D03*
D15*
X24755948Y-96658989D03*
X31450544Y-95260243D03*
%TD*%
D13*
%TO.C,MX8*%
X204900823Y-67062867D03*
X194895177Y-68827132D03*
D14*
X199898000Y-67945000D03*
D15*
X195704816Y-66105188D03*
X201517279Y-62501110D03*
%TD*%
D13*
%TO.C,MX7*%
X186739823Y-75063867D03*
X176734177Y-76828132D03*
D14*
X181737000Y-75946000D03*
D15*
X177543816Y-74106188D03*
X183356279Y-70502110D03*
%TD*%
D13*
%TO.C,MX6*%
X115492823Y-77082133D03*
X105487176Y-75317867D03*
D14*
X110490000Y-76200000D03*
D15*
X107178948Y-73036989D03*
X113873544Y-71638243D03*
%TD*%
D13*
%TO.C,MX5*%
X36371823Y-81908133D03*
X26366176Y-80143867D03*
D14*
X31369000Y-81026000D03*
D15*
X28057948Y-77862989D03*
X34752544Y-76464243D03*
%TD*%
D13*
%TO.C,MX4*%
X97331823Y-68954133D03*
X87326176Y-67189867D03*
D14*
X92329000Y-68072000D03*
D15*
X89017948Y-64908989D03*
X95712544Y-63510243D03*
%TD*%
D13*
%TO.C,MX3*%
X80059823Y-56000133D03*
X70054176Y-54235867D03*
D14*
X75057000Y-55118000D03*
D15*
X71745948Y-51954989D03*
X78440544Y-50556243D03*
%TD*%
D13*
%TO.C,MX2*%
X59485823Y-61969133D03*
X49480176Y-60204867D03*
D14*
X54483000Y-61087000D03*
D15*
X51171948Y-57923989D03*
X57866544Y-56525243D03*
%TD*%
D13*
%TO.C,MX1*%
X39800823Y-63112133D03*
X29795176Y-61347867D03*
D14*
X34798000Y-62230000D03*
D15*
X31486948Y-59066989D03*
X38181544Y-57668243D03*
%TD*%
D16*
%TO.C,J2*%
X147950000Y-59948000D03*
X146250000Y-59948000D03*
X147100000Y-59948000D03*
X148800000Y-59948000D03*
X149650000Y-59948000D03*
X150500000Y-59948000D03*
X151350000Y-59948000D03*
X152200000Y-59948000D03*
X146250000Y-58623000D03*
X147105000Y-58623000D03*
X147955000Y-58623000D03*
X148805000Y-58623000D03*
X149655000Y-58623000D03*
X150505000Y-58623000D03*
X151355000Y-58623000D03*
X152205000Y-58623000D03*
D17*
X144900000Y-58968000D03*
X153550000Y-58968000D03*
D18*
X144900000Y-55588000D03*
X153550000Y-55588000D03*
%TD*%
%TO.C,J1*%
G36*
G01*
X119343208Y-94950599D02*
X119343208Y-94950599D01*
G75*
G02*
X120385818Y-94220555I886327J-156283D01*
G01*
X120385818Y-94220555D01*
G75*
G02*
X121115862Y-95263165I-156283J-886327D01*
G01*
X121115862Y-95263165D01*
G75*
G02*
X120073252Y-95993209I-886327J156283D01*
G01*
X120073252Y-95993209D01*
G75*
G02*
X119343208Y-94950599I156283J886327D01*
G01*
G37*
G36*
G01*
X119784275Y-92449187D02*
X119784275Y-92449187D01*
G75*
G02*
X120826885Y-91719143I886327J-156283D01*
G01*
X120826885Y-91719143D01*
G75*
G02*
X121556929Y-92761753I-156283J-886327D01*
G01*
X121556929Y-92761753D01*
G75*
G02*
X120514319Y-93491797I-886327J156283D01*
G01*
X120514319Y-93491797D01*
G75*
G02*
X119784275Y-92449187I156283J886327D01*
G01*
G37*
G36*
G01*
X120225341Y-89947775D02*
X120225341Y-89947775D01*
G75*
G02*
X121267951Y-89217731I886327J-156283D01*
G01*
X121267951Y-89217731D01*
G75*
G02*
X121997995Y-90260341I-156283J-886327D01*
G01*
X121997995Y-90260341D01*
G75*
G02*
X120955385Y-90990385I-886327J156283D01*
G01*
X120955385Y-90990385D01*
G75*
G02*
X120225341Y-89947775I156283J886327D01*
G01*
G37*
G36*
G01*
X120666408Y-87446364D02*
X120666408Y-87446364D01*
G75*
G02*
X121709018Y-86716320I886327J-156283D01*
G01*
X121709018Y-86716320D01*
G75*
G02*
X122439062Y-87758930I-156283J-886327D01*
G01*
X122439062Y-87758930D01*
G75*
G02*
X121396452Y-88488974I-886327J156283D01*
G01*
X121396452Y-88488974D01*
G75*
G02*
X120666408Y-87446364I156283J886327D01*
G01*
G37*
G36*
G01*
X121107474Y-84944952D02*
X121107474Y-84944952D01*
G75*
G02*
X122150084Y-84214908I886327J-156283D01*
G01*
X122150084Y-84214908D01*
G75*
G02*
X122880128Y-85257518I-156283J-886327D01*
G01*
X122880128Y-85257518D01*
G75*
G02*
X121837518Y-85987562I-886327J156283D01*
G01*
X121837518Y-85987562D01*
G75*
G02*
X121107474Y-84944952I156283J886327D01*
G01*
G37*
G36*
G01*
X121548540Y-82443540D02*
X121548540Y-82443540D01*
G75*
G02*
X122591150Y-81713496I886327J-156283D01*
G01*
X122591150Y-81713496D01*
G75*
G02*
X123321194Y-82756106I-156283J-886327D01*
G01*
X123321194Y-82756106D01*
G75*
G02*
X122278584Y-83486150I-886327J156283D01*
G01*
X122278584Y-83486150D01*
G75*
G02*
X121548540Y-82443540I156283J886327D01*
G01*
G37*
G36*
G01*
X121989607Y-79942129D02*
X121989607Y-79942129D01*
G75*
G02*
X123032217Y-79212085I886327J-156283D01*
G01*
X123032217Y-79212085D01*
G75*
G02*
X123762261Y-80254695I-156283J-886327D01*
G01*
X123762261Y-80254695D01*
G75*
G02*
X122719651Y-80984739I-886327J156283D01*
G01*
X122719651Y-80984739D01*
G75*
G02*
X121989607Y-79942129I156283J886327D01*
G01*
G37*
D19*
G36*
X122274390Y-78327044D02*
G01*
X122586956Y-76554390D01*
X124359610Y-76866956D01*
X124047044Y-78639610D01*
X122274390Y-78327044D01*
G37*
%TD*%
M02*
