%TF.GenerationSoftware,KiCad,Pcbnew,5.1.6*%
%TF.CreationDate,2020-09-20T21:14:14+03:00*%
%TF.ProjectId,Ball40,42616c6c-3430-42e6-9b69-6361645f7063,rev?*%
%TF.SameCoordinates,Original*%
%TF.FileFunction,Paste,Bot*%
%TF.FilePolarity,Positive*%
%FSLAX46Y46*%
G04 Gerber Fmt 4.6, Leading zero omitted, Abs format (unit mm)*
G04 Created by KiCad (PCBNEW 5.1.6) date 2020-09-20 21:14:14*
%MOMM*%
%LPD*%
G01*
G04 APERTURE LIST*
%ADD10R,0.400000X1.900000*%
%ADD11C,0.100000*%
%ADD12R,1.060000X0.650000*%
%ADD13R,1.800000X1.100000*%
G04 APERTURE END LIST*
D10*
%TO.C,Y1*%
X132645000Y-144399000D03*
X131445000Y-144399000D03*
X130245000Y-144399000D03*
%TD*%
D11*
%TO.C,U2*%
G36*
X126141702Y-114761940D02*
G01*
X125752794Y-115150848D01*
X124692134Y-114090188D01*
X125081042Y-113701280D01*
X126141702Y-114761940D01*
G37*
G36*
X125576017Y-115327626D02*
G01*
X125187109Y-115716534D01*
X124126449Y-114655874D01*
X124515357Y-114266966D01*
X125576017Y-115327626D01*
G37*
G36*
X125010332Y-115893311D02*
G01*
X124621424Y-116282219D01*
X123560764Y-115221559D01*
X123949672Y-114832651D01*
X125010332Y-115893311D01*
G37*
G36*
X124444646Y-116458996D02*
G01*
X124055738Y-116847904D01*
X122995078Y-115787244D01*
X123383986Y-115398336D01*
X124444646Y-116458996D01*
G37*
G36*
X123878961Y-117024682D02*
G01*
X123490053Y-117413590D01*
X122429393Y-116352930D01*
X122818301Y-115964022D01*
X123878961Y-117024682D01*
G37*
G36*
X123313275Y-117590367D02*
G01*
X122924367Y-117979275D01*
X121863707Y-116918615D01*
X122252615Y-116529707D01*
X123313275Y-117590367D01*
G37*
G36*
X122747590Y-118156053D02*
G01*
X122358682Y-118544961D01*
X121298022Y-117484301D01*
X121686930Y-117095393D01*
X122747590Y-118156053D01*
G37*
G36*
X122181904Y-118721738D02*
G01*
X121792996Y-119110646D01*
X120732336Y-118049986D01*
X121121244Y-117661078D01*
X122181904Y-118721738D01*
G37*
G36*
X121616219Y-119287424D02*
G01*
X121227311Y-119676332D01*
X120166651Y-118615672D01*
X120555559Y-118226764D01*
X121616219Y-119287424D01*
G37*
G36*
X121050534Y-119853109D02*
G01*
X120661626Y-120242017D01*
X119600966Y-119181357D01*
X119989874Y-118792449D01*
X121050534Y-119853109D01*
G37*
G36*
X120484848Y-120418794D02*
G01*
X120095940Y-120807702D01*
X119035280Y-119747042D01*
X119424188Y-119358134D01*
X120484848Y-120418794D01*
G37*
G36*
X120095940Y-121762298D02*
G01*
X120484848Y-122151206D01*
X119424188Y-123211866D01*
X119035280Y-122822958D01*
X120095940Y-121762298D01*
G37*
G36*
X120661626Y-122327983D02*
G01*
X121050534Y-122716891D01*
X119989874Y-123777551D01*
X119600966Y-123388643D01*
X120661626Y-122327983D01*
G37*
G36*
X121227311Y-122893668D02*
G01*
X121616219Y-123282576D01*
X120555559Y-124343236D01*
X120166651Y-123954328D01*
X121227311Y-122893668D01*
G37*
G36*
X121792996Y-123459354D02*
G01*
X122181904Y-123848262D01*
X121121244Y-124908922D01*
X120732336Y-124520014D01*
X121792996Y-123459354D01*
G37*
G36*
X122358682Y-124025039D02*
G01*
X122747590Y-124413947D01*
X121686930Y-125474607D01*
X121298022Y-125085699D01*
X122358682Y-124025039D01*
G37*
G36*
X122924367Y-124590725D02*
G01*
X123313275Y-124979633D01*
X122252615Y-126040293D01*
X121863707Y-125651385D01*
X122924367Y-124590725D01*
G37*
G36*
X123490053Y-125156410D02*
G01*
X123878961Y-125545318D01*
X122818301Y-126605978D01*
X122429393Y-126217070D01*
X123490053Y-125156410D01*
G37*
G36*
X124055738Y-125722096D02*
G01*
X124444646Y-126111004D01*
X123383986Y-127171664D01*
X122995078Y-126782756D01*
X124055738Y-125722096D01*
G37*
G36*
X124621424Y-126287781D02*
G01*
X125010332Y-126676689D01*
X123949672Y-127737349D01*
X123560764Y-127348441D01*
X124621424Y-126287781D01*
G37*
G36*
X125187109Y-126853466D02*
G01*
X125576017Y-127242374D01*
X124515357Y-128303034D01*
X124126449Y-127914126D01*
X125187109Y-126853466D01*
G37*
G36*
X125752794Y-127419152D02*
G01*
X126141702Y-127808060D01*
X125081042Y-128868720D01*
X124692134Y-128479812D01*
X125752794Y-127419152D01*
G37*
G36*
X128545866Y-128479812D02*
G01*
X128156958Y-128868720D01*
X127096298Y-127808060D01*
X127485206Y-127419152D01*
X128545866Y-128479812D01*
G37*
G36*
X129111551Y-127914126D02*
G01*
X128722643Y-128303034D01*
X127661983Y-127242374D01*
X128050891Y-126853466D01*
X129111551Y-127914126D01*
G37*
G36*
X129677236Y-127348441D02*
G01*
X129288328Y-127737349D01*
X128227668Y-126676689D01*
X128616576Y-126287781D01*
X129677236Y-127348441D01*
G37*
G36*
X130242922Y-126782756D02*
G01*
X129854014Y-127171664D01*
X128793354Y-126111004D01*
X129182262Y-125722096D01*
X130242922Y-126782756D01*
G37*
G36*
X130808607Y-126217070D02*
G01*
X130419699Y-126605978D01*
X129359039Y-125545318D01*
X129747947Y-125156410D01*
X130808607Y-126217070D01*
G37*
G36*
X131374293Y-125651385D02*
G01*
X130985385Y-126040293D01*
X129924725Y-124979633D01*
X130313633Y-124590725D01*
X131374293Y-125651385D01*
G37*
G36*
X131939978Y-125085699D02*
G01*
X131551070Y-125474607D01*
X130490410Y-124413947D01*
X130879318Y-124025039D01*
X131939978Y-125085699D01*
G37*
G36*
X132505664Y-124520014D02*
G01*
X132116756Y-124908922D01*
X131056096Y-123848262D01*
X131445004Y-123459354D01*
X132505664Y-124520014D01*
G37*
G36*
X133071349Y-123954328D02*
G01*
X132682441Y-124343236D01*
X131621781Y-123282576D01*
X132010689Y-122893668D01*
X133071349Y-123954328D01*
G37*
G36*
X133637034Y-123388643D02*
G01*
X133248126Y-123777551D01*
X132187466Y-122716891D01*
X132576374Y-122327983D01*
X133637034Y-123388643D01*
G37*
G36*
X134202720Y-122822958D02*
G01*
X133813812Y-123211866D01*
X132753152Y-122151206D01*
X133142060Y-121762298D01*
X134202720Y-122822958D01*
G37*
G36*
X133813812Y-119358134D02*
G01*
X134202720Y-119747042D01*
X133142060Y-120807702D01*
X132753152Y-120418794D01*
X133813812Y-119358134D01*
G37*
G36*
X133248126Y-118792449D02*
G01*
X133637034Y-119181357D01*
X132576374Y-120242017D01*
X132187466Y-119853109D01*
X133248126Y-118792449D01*
G37*
G36*
X132682441Y-118226764D02*
G01*
X133071349Y-118615672D01*
X132010689Y-119676332D01*
X131621781Y-119287424D01*
X132682441Y-118226764D01*
G37*
G36*
X132116756Y-117661078D02*
G01*
X132505664Y-118049986D01*
X131445004Y-119110646D01*
X131056096Y-118721738D01*
X132116756Y-117661078D01*
G37*
G36*
X131551070Y-117095393D02*
G01*
X131939978Y-117484301D01*
X130879318Y-118544961D01*
X130490410Y-118156053D01*
X131551070Y-117095393D01*
G37*
G36*
X130985385Y-116529707D02*
G01*
X131374293Y-116918615D01*
X130313633Y-117979275D01*
X129924725Y-117590367D01*
X130985385Y-116529707D01*
G37*
G36*
X130419699Y-115964022D02*
G01*
X130808607Y-116352930D01*
X129747947Y-117413590D01*
X129359039Y-117024682D01*
X130419699Y-115964022D01*
G37*
G36*
X129854014Y-115398336D02*
G01*
X130242922Y-115787244D01*
X129182262Y-116847904D01*
X128793354Y-116458996D01*
X129854014Y-115398336D01*
G37*
G36*
X129288328Y-114832651D02*
G01*
X129677236Y-115221559D01*
X128616576Y-116282219D01*
X128227668Y-115893311D01*
X129288328Y-114832651D01*
G37*
G36*
X128722643Y-114266966D02*
G01*
X129111551Y-114655874D01*
X128050891Y-115716534D01*
X127661983Y-115327626D01*
X128722643Y-114266966D01*
G37*
G36*
X128156958Y-113701280D02*
G01*
X128545866Y-114090188D01*
X127485206Y-115150848D01*
X127096298Y-114761940D01*
X128156958Y-113701280D01*
G37*
%TD*%
D12*
%TO.C,U1*%
X156464000Y-65913000D03*
X156464000Y-66863000D03*
X156464000Y-64963000D03*
X154264000Y-64963000D03*
X154264000Y-65913000D03*
X154264000Y-66863000D03*
%TD*%
D13*
%TO.C,SW1*%
X151563000Y-144471000D03*
X145363000Y-140771000D03*
X151563000Y-140771000D03*
X145363000Y-144471000D03*
%TD*%
%TO.C,R6*%
G36*
G01*
X117733419Y-129788184D02*
X117088184Y-130433419D01*
G75*
G02*
X116743470Y-130433419I-172357J172357D01*
G01*
X116398755Y-130088704D01*
G75*
G02*
X116398755Y-129743990I172357J172357D01*
G01*
X117043990Y-129098755D01*
G75*
G02*
X117388704Y-129098755I172357J-172357D01*
G01*
X117733419Y-129443470D01*
G75*
G02*
X117733419Y-129788184I-172357J-172357D01*
G01*
G37*
G36*
G01*
X119059245Y-131114010D02*
X118414010Y-131759245D01*
G75*
G02*
X118069296Y-131759245I-172357J172357D01*
G01*
X117724581Y-131414530D01*
G75*
G02*
X117724581Y-131069816I172357J172357D01*
G01*
X118369816Y-130424581D01*
G75*
G02*
X118714530Y-130424581I172357J-172357D01*
G01*
X119059245Y-130769296D01*
G75*
G02*
X119059245Y-131114010I-172357J-172357D01*
G01*
G37*
%TD*%
%TO.C,R5*%
G36*
G01*
X133101816Y-109605419D02*
X132456581Y-108960184D01*
G75*
G02*
X132456581Y-108615470I172357J172357D01*
G01*
X132801296Y-108270755D01*
G75*
G02*
X133146010Y-108270755I172357J-172357D01*
G01*
X133791245Y-108915990D01*
G75*
G02*
X133791245Y-109260704I-172357J-172357D01*
G01*
X133446530Y-109605419D01*
G75*
G02*
X133101816Y-109605419I-172357J172357D01*
G01*
G37*
G36*
G01*
X131775990Y-110931245D02*
X131130755Y-110286010D01*
G75*
G02*
X131130755Y-109941296I172357J172357D01*
G01*
X131475470Y-109596581D01*
G75*
G02*
X131820184Y-109596581I172357J-172357D01*
G01*
X132465419Y-110241816D01*
G75*
G02*
X132465419Y-110586530I-172357J-172357D01*
G01*
X132120704Y-110931245D01*
G75*
G02*
X131775990Y-110931245I-172357J172357D01*
G01*
G37*
%TD*%
%TO.C,R4*%
G36*
G01*
X134498816Y-111050919D02*
X133853581Y-110405684D01*
G75*
G02*
X133853581Y-110060970I172357J172357D01*
G01*
X134198296Y-109716255D01*
G75*
G02*
X134543010Y-109716255I172357J-172357D01*
G01*
X135188245Y-110361490D01*
G75*
G02*
X135188245Y-110706204I-172357J-172357D01*
G01*
X134843530Y-111050919D01*
G75*
G02*
X134498816Y-111050919I-172357J172357D01*
G01*
G37*
G36*
G01*
X133172990Y-112376745D02*
X132527755Y-111731510D01*
G75*
G02*
X132527755Y-111386796I172357J172357D01*
G01*
X132872470Y-111042081D01*
G75*
G02*
X133217184Y-111042081I172357J-172357D01*
G01*
X133862419Y-111687316D01*
G75*
G02*
X133862419Y-112032030I-172357J-172357D01*
G01*
X133517704Y-112376745D01*
G75*
G02*
X133172990Y-112376745I-172357J172357D01*
G01*
G37*
%TD*%
%TO.C,R3*%
G36*
G01*
X140546316Y-130179419D02*
X139901081Y-129534184D01*
G75*
G02*
X139901081Y-129189470I172357J172357D01*
G01*
X140245796Y-128844755D01*
G75*
G02*
X140590510Y-128844755I172357J-172357D01*
G01*
X141235745Y-129489990D01*
G75*
G02*
X141235745Y-129834704I-172357J-172357D01*
G01*
X140891030Y-130179419D01*
G75*
G02*
X140546316Y-130179419I-172357J172357D01*
G01*
G37*
G36*
G01*
X139220490Y-131505245D02*
X138575255Y-130860010D01*
G75*
G02*
X138575255Y-130515296I172357J172357D01*
G01*
X138919970Y-130170581D01*
G75*
G02*
X139264684Y-130170581I172357J-172357D01*
G01*
X139909919Y-130815816D01*
G75*
G02*
X139909919Y-131160530I-172357J-172357D01*
G01*
X139565204Y-131505245D01*
G75*
G02*
X139220490Y-131505245I-172357J172357D01*
G01*
G37*
%TD*%
%TO.C,R2*%
G36*
G01*
X148895750Y-66441500D02*
X149808250Y-66441500D01*
G75*
G02*
X150052000Y-66685250I0J-243750D01*
G01*
X150052000Y-67172750D01*
G75*
G02*
X149808250Y-67416500I-243750J0D01*
G01*
X148895750Y-67416500D01*
G75*
G02*
X148652000Y-67172750I0J243750D01*
G01*
X148652000Y-66685250D01*
G75*
G02*
X148895750Y-66441500I243750J0D01*
G01*
G37*
G36*
G01*
X148895750Y-64566500D02*
X149808250Y-64566500D01*
G75*
G02*
X150052000Y-64810250I0J-243750D01*
G01*
X150052000Y-65297750D01*
G75*
G02*
X149808250Y-65541500I-243750J0D01*
G01*
X148895750Y-65541500D01*
G75*
G02*
X148652000Y-65297750I0J243750D01*
G01*
X148652000Y-64810250D01*
G75*
G02*
X148895750Y-64566500I243750J0D01*
G01*
G37*
%TD*%
%TO.C,R1*%
G36*
G01*
X151308750Y-66411500D02*
X152221250Y-66411500D01*
G75*
G02*
X152465000Y-66655250I0J-243750D01*
G01*
X152465000Y-67142750D01*
G75*
G02*
X152221250Y-67386500I-243750J0D01*
G01*
X151308750Y-67386500D01*
G75*
G02*
X151065000Y-67142750I0J243750D01*
G01*
X151065000Y-66655250D01*
G75*
G02*
X151308750Y-66411500I243750J0D01*
G01*
G37*
G36*
G01*
X151308750Y-64536500D02*
X152221250Y-64536500D01*
G75*
G02*
X152465000Y-64780250I0J-243750D01*
G01*
X152465000Y-65267750D01*
G75*
G02*
X152221250Y-65511500I-243750J0D01*
G01*
X151308750Y-65511500D01*
G75*
G02*
X151065000Y-65267750I0J243750D01*
G01*
X151065000Y-64780250D01*
G75*
G02*
X151308750Y-64536500I243750J0D01*
G01*
G37*
%TD*%
%TO.C,F1*%
G36*
G01*
X146441000Y-66538000D02*
X146441000Y-65288000D01*
G75*
G02*
X146691000Y-65038000I250000J0D01*
G01*
X147441000Y-65038000D01*
G75*
G02*
X147691000Y-65288000I0J-250000D01*
G01*
X147691000Y-66538000D01*
G75*
G02*
X147441000Y-66788000I-250000J0D01*
G01*
X146691000Y-66788000D01*
G75*
G02*
X146441000Y-66538000I0J250000D01*
G01*
G37*
G36*
G01*
X143641000Y-66538000D02*
X143641000Y-65288000D01*
G75*
G02*
X143891000Y-65038000I250000J0D01*
G01*
X144641000Y-65038000D01*
G75*
G02*
X144891000Y-65288000I0J-250000D01*
G01*
X144891000Y-66538000D01*
G75*
G02*
X144641000Y-66788000I-250000J0D01*
G01*
X143891000Y-66788000D01*
G75*
G02*
X143641000Y-66538000I0J250000D01*
G01*
G37*
%TD*%
D11*
%TO.C,D32*%
G36*
X195087958Y-136780507D02*
G01*
X194879581Y-135598738D01*
X195765908Y-135442455D01*
X195974285Y-136624224D01*
X195087958Y-136780507D01*
G37*
G36*
X191838092Y-137353545D02*
G01*
X191629715Y-136171776D01*
X192516042Y-136015493D01*
X192724419Y-137197262D01*
X191838092Y-137353545D01*
G37*
%TD*%
%TO.C,D31*%
G36*
X101407581Y-138086262D02*
G01*
X101615958Y-136904493D01*
X102502285Y-137060776D01*
X102293908Y-138242545D01*
X101407581Y-138086262D01*
G37*
G36*
X98157715Y-137513224D02*
G01*
X98366092Y-136331455D01*
X99252419Y-136487738D01*
X99044042Y-137669507D01*
X98157715Y-137513224D01*
G37*
%TD*%
%TO.C,D30*%
G36*
X261508958Y-106681507D02*
G01*
X261300581Y-105499738D01*
X262186908Y-105343455D01*
X262395285Y-106525224D01*
X261508958Y-106681507D01*
G37*
G36*
X258259092Y-107254545D02*
G01*
X258050715Y-106072776D01*
X258937042Y-105916493D01*
X259145419Y-107098262D01*
X258259092Y-107254545D01*
G37*
%TD*%
%TO.C,D29*%
G36*
X241792042Y-102106493D02*
G01*
X242000419Y-103288262D01*
X241114092Y-103444545D01*
X240905715Y-102262776D01*
X241792042Y-102106493D01*
G37*
G36*
X245041908Y-101533455D02*
G01*
X245250285Y-102715224D01*
X244363958Y-102871507D01*
X244155581Y-101689738D01*
X245041908Y-101533455D01*
G37*
%TD*%
%TO.C,D28*%
G36*
X221599042Y-98677493D02*
G01*
X221807419Y-99859262D01*
X220921092Y-100015545D01*
X220712715Y-98833776D01*
X221599042Y-98677493D01*
G37*
G36*
X224848908Y-98104455D02*
G01*
X225057285Y-99286224D01*
X224170958Y-99442507D01*
X223962581Y-98260738D01*
X224848908Y-98104455D01*
G37*
%TD*%
%TO.C,D27*%
G36*
X203692042Y-108964493D02*
G01*
X203900419Y-110146262D01*
X203014092Y-110302545D01*
X202805715Y-109120776D01*
X203692042Y-108964493D01*
G37*
G36*
X206941908Y-108391455D02*
G01*
X207150285Y-109573224D01*
X206263958Y-109729507D01*
X206055581Y-108547738D01*
X206941908Y-108391455D01*
G37*
%TD*%
%TO.C,D26*%
G36*
X185532042Y-116965493D02*
G01*
X185740419Y-118147262D01*
X184854092Y-118303545D01*
X184645715Y-117121776D01*
X185532042Y-116965493D01*
G37*
G36*
X188781908Y-116392455D02*
G01*
X188990285Y-117574224D01*
X188103958Y-117730507D01*
X187895581Y-116548738D01*
X188781908Y-116392455D01*
G37*
%TD*%
%TO.C,D25*%
G36*
X100014419Y-116040738D02*
G01*
X99806042Y-117222507D01*
X98919715Y-117066224D01*
X99128092Y-115884455D01*
X100014419Y-116040738D01*
G37*
G36*
X103264285Y-116613776D02*
G01*
X103055908Y-117795545D01*
X102169581Y-117639262D01*
X102377958Y-116457493D01*
X103264285Y-116613776D01*
G37*
%TD*%
%TO.C,D24*%
G36*
X81852419Y-107912738D02*
G01*
X81644042Y-109094507D01*
X80757715Y-108938224D01*
X80966092Y-107756455D01*
X81852419Y-107912738D01*
G37*
G36*
X85102285Y-108485776D02*
G01*
X84893908Y-109667545D01*
X84007581Y-109511262D01*
X84215958Y-108329493D01*
X85102285Y-108485776D01*
G37*
%TD*%
%TO.C,D23*%
G36*
X64708419Y-94958738D02*
G01*
X64500042Y-96140507D01*
X63613715Y-95984224D01*
X63822092Y-94802455D01*
X64708419Y-94958738D01*
G37*
G36*
X67958285Y-95531776D02*
G01*
X67749908Y-96713545D01*
X66863581Y-96557262D01*
X67071958Y-95375493D01*
X67958285Y-95531776D01*
G37*
%TD*%
%TO.C,D22*%
G36*
X44007419Y-100927738D02*
G01*
X43799042Y-102109507D01*
X42912715Y-101953224D01*
X43121092Y-100771455D01*
X44007419Y-100927738D01*
G37*
G36*
X47257285Y-101500776D02*
G01*
X47048908Y-102682545D01*
X46162581Y-102526262D01*
X46370958Y-101344493D01*
X47257285Y-101500776D01*
G37*
%TD*%
%TO.C,D21*%
G36*
X257952958Y-88012507D02*
G01*
X257744581Y-86830738D01*
X258630908Y-86674455D01*
X258839285Y-87856224D01*
X257952958Y-88012507D01*
G37*
G36*
X254703092Y-88585545D02*
G01*
X254494715Y-87403776D01*
X255381042Y-87247493D01*
X255589419Y-88429262D01*
X254703092Y-88585545D01*
G37*
%TD*%
%TO.C,D20*%
G36*
X238490042Y-83310493D02*
G01*
X238698419Y-84492262D01*
X237812092Y-84648545D01*
X237603715Y-83466776D01*
X238490042Y-83310493D01*
G37*
G36*
X241739908Y-82737455D02*
G01*
X241948285Y-83919224D01*
X241061958Y-84075507D01*
X240853581Y-82893738D01*
X241739908Y-82737455D01*
G37*
%TD*%
%TO.C,D19*%
G36*
X218170042Y-79881493D02*
G01*
X218378419Y-81063262D01*
X217492092Y-81219545D01*
X217283715Y-80037776D01*
X218170042Y-79881493D01*
G37*
G36*
X221419908Y-79308455D02*
G01*
X221628285Y-80490224D01*
X220741958Y-80646507D01*
X220533581Y-79464738D01*
X221419908Y-79308455D01*
G37*
%TD*%
%TO.C,D18*%
G36*
X200517042Y-90041493D02*
G01*
X200725419Y-91223262D01*
X199839092Y-91379545D01*
X199630715Y-90197776D01*
X200517042Y-90041493D01*
G37*
G36*
X203766908Y-89468455D02*
G01*
X203975285Y-90650224D01*
X203088958Y-90806507D01*
X202880581Y-89624738D01*
X203766908Y-89468455D01*
G37*
%TD*%
%TO.C,D17*%
G36*
X182229042Y-98169493D02*
G01*
X182437419Y-99351262D01*
X181551092Y-99507545D01*
X181342715Y-98325776D01*
X182229042Y-98169493D01*
G37*
G36*
X185478908Y-97596455D02*
G01*
X185687285Y-98778224D01*
X184800958Y-98934507D01*
X184592581Y-97752738D01*
X185478908Y-97596455D01*
G37*
%TD*%
%TO.C,D16*%
G36*
X103443419Y-97244738D02*
G01*
X103235042Y-98426507D01*
X102348715Y-98270224D01*
X102557092Y-97088455D01*
X103443419Y-97244738D01*
G37*
G36*
X106693285Y-97817776D02*
G01*
X106484908Y-98999545D01*
X105598581Y-98843262D01*
X105806958Y-97661493D01*
X106693285Y-97817776D01*
G37*
%TD*%
%TO.C,D15*%
G36*
X85282419Y-89116738D02*
G01*
X85074042Y-90298507D01*
X84187715Y-90142224D01*
X84396092Y-88960455D01*
X85282419Y-89116738D01*
G37*
G36*
X88532285Y-89689776D02*
G01*
X88323908Y-90871545D01*
X87437581Y-90715262D01*
X87645958Y-89533493D01*
X88532285Y-89689776D01*
G37*
%TD*%
%TO.C,D14*%
G36*
X68010419Y-76162738D02*
G01*
X67802042Y-77344507D01*
X66915715Y-77188224D01*
X67124092Y-76006455D01*
X68010419Y-76162738D01*
G37*
G36*
X71260285Y-76735776D02*
G01*
X71051908Y-77917545D01*
X70165581Y-77761262D01*
X70373958Y-76579493D01*
X71260285Y-76735776D01*
G37*
%TD*%
%TO.C,D13*%
G36*
X47309419Y-82131738D02*
G01*
X47101042Y-83313507D01*
X46214715Y-83157224D01*
X46423092Y-81975455D01*
X47309419Y-82131738D01*
G37*
G36*
X50559285Y-82704776D02*
G01*
X50350908Y-83886545D01*
X49464581Y-83730262D01*
X49672958Y-82548493D01*
X50559285Y-82704776D01*
G37*
%TD*%
%TO.C,D12*%
G36*
X254777958Y-69216507D02*
G01*
X254569581Y-68034738D01*
X255455908Y-67878455D01*
X255664285Y-69060224D01*
X254777958Y-69216507D01*
G37*
G36*
X251528092Y-69789545D02*
G01*
X251319715Y-68607776D01*
X252206042Y-68451493D01*
X252414419Y-69633262D01*
X251528092Y-69789545D01*
G37*
%TD*%
%TO.C,D11*%
G36*
X235188042Y-64387493D02*
G01*
X235396419Y-65569262D01*
X234510092Y-65725545D01*
X234301715Y-64543776D01*
X235188042Y-64387493D01*
G37*
G36*
X238437908Y-63814455D02*
G01*
X238646285Y-64996224D01*
X237759958Y-65152507D01*
X237551581Y-63970738D01*
X238437908Y-63814455D01*
G37*
%TD*%
%TO.C,D10*%
G36*
X214868042Y-61085493D02*
G01*
X215076419Y-62267262D01*
X214190092Y-62423545D01*
X213981715Y-61241776D01*
X214868042Y-61085493D01*
G37*
G36*
X218117908Y-60512455D02*
G01*
X218326285Y-61694224D01*
X217439958Y-61850507D01*
X217231581Y-60668738D01*
X218117908Y-60512455D01*
G37*
%TD*%
%TO.C,D9*%
G36*
X24322419Y-102070738D02*
G01*
X24114042Y-103252507D01*
X23227715Y-103096224D01*
X23436092Y-101914455D01*
X24322419Y-102070738D01*
G37*
G36*
X27572285Y-102643776D02*
G01*
X27363908Y-103825545D01*
X26477581Y-103669262D01*
X26685958Y-102487493D01*
X27572285Y-102643776D01*
G37*
%TD*%
%TO.C,D8*%
G36*
X197215042Y-71372493D02*
G01*
X197423419Y-72554262D01*
X196537092Y-72710545D01*
X196328715Y-71528776D01*
X197215042Y-71372493D01*
G37*
G36*
X200464908Y-70799455D02*
G01*
X200673285Y-71981224D01*
X199786958Y-72137507D01*
X199578581Y-70955738D01*
X200464908Y-70799455D01*
G37*
%TD*%
%TO.C,D7*%
G36*
X179181042Y-79373493D02*
G01*
X179389419Y-80555262D01*
X178503092Y-80711545D01*
X178294715Y-79529776D01*
X179181042Y-79373493D01*
G37*
G36*
X182430908Y-78800455D02*
G01*
X182639285Y-79982224D01*
X181752958Y-80138507D01*
X181544581Y-78956738D01*
X182430908Y-78800455D01*
G37*
%TD*%
%TO.C,D6*%
G36*
X106618419Y-78448738D02*
G01*
X106410042Y-79630507D01*
X105523715Y-79474224D01*
X105732092Y-78292455D01*
X106618419Y-78448738D01*
G37*
G36*
X109868285Y-79021776D02*
G01*
X109659908Y-80203545D01*
X108773581Y-80047262D01*
X108981958Y-78865493D01*
X109868285Y-79021776D01*
G37*
%TD*%
%TO.C,D5*%
G36*
X27497419Y-83274738D02*
G01*
X27289042Y-84456507D01*
X26402715Y-84300224D01*
X26611092Y-83118455D01*
X27497419Y-83274738D01*
G37*
G36*
X30747285Y-83847776D02*
G01*
X30538908Y-85029545D01*
X29652581Y-84873262D01*
X29860958Y-83691493D01*
X30747285Y-83847776D01*
G37*
%TD*%
%TO.C,D4*%
G36*
X88457419Y-70320738D02*
G01*
X88249042Y-71502507D01*
X87362715Y-71346224D01*
X87571092Y-70164455D01*
X88457419Y-70320738D01*
G37*
G36*
X91707285Y-70893776D02*
G01*
X91498908Y-72075545D01*
X90612581Y-71919262D01*
X90820958Y-70737493D01*
X91707285Y-70893776D01*
G37*
%TD*%
%TO.C,D3*%
G36*
X71312419Y-57366738D02*
G01*
X71104042Y-58548507D01*
X70217715Y-58392224D01*
X70426092Y-57210455D01*
X71312419Y-57366738D01*
G37*
G36*
X74562285Y-57939776D02*
G01*
X74353908Y-59121545D01*
X73467581Y-58965262D01*
X73675958Y-57783493D01*
X74562285Y-57939776D01*
G37*
%TD*%
%TO.C,D2*%
G36*
X50738419Y-63335738D02*
G01*
X50530042Y-64517507D01*
X49643715Y-64361224D01*
X49852092Y-63179455D01*
X50738419Y-63335738D01*
G37*
G36*
X53988285Y-63908776D02*
G01*
X53779908Y-65090545D01*
X52893581Y-64934262D01*
X53101958Y-63752493D01*
X53988285Y-63908776D01*
G37*
%TD*%
%TO.C,D1*%
G36*
X31053419Y-64478738D02*
G01*
X30845042Y-65660507D01*
X29958715Y-65504224D01*
X30167092Y-64322455D01*
X31053419Y-64478738D01*
G37*
G36*
X34303285Y-65051776D02*
G01*
X34094908Y-66233545D01*
X33208581Y-66077262D01*
X33416958Y-64895493D01*
X34303285Y-65051776D01*
G37*
%TD*%
%TO.C,C7*%
G36*
G01*
X140132750Y-135499500D02*
X141045250Y-135499500D01*
G75*
G02*
X141289000Y-135743250I0J-243750D01*
G01*
X141289000Y-136230750D01*
G75*
G02*
X141045250Y-136474500I-243750J0D01*
G01*
X140132750Y-136474500D01*
G75*
G02*
X139889000Y-136230750I0J243750D01*
G01*
X139889000Y-135743250D01*
G75*
G02*
X140132750Y-135499500I243750J0D01*
G01*
G37*
G36*
G01*
X140132750Y-133624500D02*
X141045250Y-133624500D01*
G75*
G02*
X141289000Y-133868250I0J-243750D01*
G01*
X141289000Y-134355750D01*
G75*
G02*
X141045250Y-134599500I-243750J0D01*
G01*
X140132750Y-134599500D01*
G75*
G02*
X139889000Y-134355750I0J243750D01*
G01*
X139889000Y-133868250D01*
G75*
G02*
X140132750Y-133624500I243750J0D01*
G01*
G37*
%TD*%
%TO.C,C6*%
G36*
G01*
X135971500Y-135191000D02*
X136316500Y-135191000D01*
G75*
G02*
X136464000Y-135338500I0J-147500D01*
G01*
X136464000Y-135633500D01*
G75*
G02*
X136316500Y-135781000I-147500J0D01*
G01*
X135971500Y-135781000D01*
G75*
G02*
X135824000Y-135633500I0J147500D01*
G01*
X135824000Y-135338500D01*
G75*
G02*
X135971500Y-135191000I147500J0D01*
G01*
G37*
G36*
G01*
X135971500Y-134221000D02*
X136316500Y-134221000D01*
G75*
G02*
X136464000Y-134368500I0J-147500D01*
G01*
X136464000Y-134663500D01*
G75*
G02*
X136316500Y-134811000I-147500J0D01*
G01*
X135971500Y-134811000D01*
G75*
G02*
X135824000Y-134663500I0J147500D01*
G01*
X135824000Y-134368500D01*
G75*
G02*
X135971500Y-134221000I147500J0D01*
G01*
G37*
%TD*%
%TO.C,C5*%
G36*
G01*
X137586500Y-134811000D02*
X137241500Y-134811000D01*
G75*
G02*
X137094000Y-134663500I0J147500D01*
G01*
X137094000Y-134368500D01*
G75*
G02*
X137241500Y-134221000I147500J0D01*
G01*
X137586500Y-134221000D01*
G75*
G02*
X137734000Y-134368500I0J-147500D01*
G01*
X137734000Y-134663500D01*
G75*
G02*
X137586500Y-134811000I-147500J0D01*
G01*
G37*
G36*
G01*
X137586500Y-135781000D02*
X137241500Y-135781000D01*
G75*
G02*
X137094000Y-135633500I0J147500D01*
G01*
X137094000Y-135338500D01*
G75*
G02*
X137241500Y-135191000I147500J0D01*
G01*
X137586500Y-135191000D01*
G75*
G02*
X137734000Y-135338500I0J-147500D01*
G01*
X137734000Y-135633500D01*
G75*
G02*
X137586500Y-135781000I-147500J0D01*
G01*
G37*
%TD*%
%TO.C,C4*%
G36*
G01*
X138511500Y-135191000D02*
X138856500Y-135191000D01*
G75*
G02*
X139004000Y-135338500I0J-147500D01*
G01*
X139004000Y-135633500D01*
G75*
G02*
X138856500Y-135781000I-147500J0D01*
G01*
X138511500Y-135781000D01*
G75*
G02*
X138364000Y-135633500I0J147500D01*
G01*
X138364000Y-135338500D01*
G75*
G02*
X138511500Y-135191000I147500J0D01*
G01*
G37*
G36*
G01*
X138511500Y-134221000D02*
X138856500Y-134221000D01*
G75*
G02*
X139004000Y-134368500I0J-147500D01*
G01*
X139004000Y-134663500D01*
G75*
G02*
X138856500Y-134811000I-147500J0D01*
G01*
X138511500Y-134811000D01*
G75*
G02*
X138364000Y-134663500I0J147500D01*
G01*
X138364000Y-134368500D01*
G75*
G02*
X138511500Y-134221000I147500J0D01*
G01*
G37*
%TD*%
%TO.C,C3*%
G36*
G01*
X136656419Y-112135184D02*
X136011184Y-112780419D01*
G75*
G02*
X135666470Y-112780419I-172357J172357D01*
G01*
X135321755Y-112435704D01*
G75*
G02*
X135321755Y-112090990I172357J172357D01*
G01*
X135966990Y-111445755D01*
G75*
G02*
X136311704Y-111445755I172357J-172357D01*
G01*
X136656419Y-111790470D01*
G75*
G02*
X136656419Y-112135184I-172357J-172357D01*
G01*
G37*
G36*
G01*
X137982245Y-113461010D02*
X137337010Y-114106245D01*
G75*
G02*
X136992296Y-114106245I-172357J172357D01*
G01*
X136647581Y-113761530D01*
G75*
G02*
X136647581Y-113416816I172357J172357D01*
G01*
X137292816Y-112771581D01*
G75*
G02*
X137637530Y-112771581I172357J-172357D01*
G01*
X137982245Y-113116296D01*
G75*
G02*
X137982245Y-113461010I-172357J-172357D01*
G01*
G37*
%TD*%
M02*
