M48
; DRILL file {KiCad 5.1.6} date Sun Sep 20 21:14:28 2020
; FORMAT={-:-/ absolute / inch / decimal}
; #@! TF.CreationDate,2020-09-20T21:14:28+03:00
; #@! TF.GenerationSoftware,Kicad,Pcbnew,5.1.6
; #@! TF.FileFunction,Plated,1,2,PTH
FMAT,2
INCH
T1C0.0157
T2C0.0236
T3C0.0394
T4C0.0579
T5C0.0591
%
G90
G05
T1
X3.885Y-5.49
X4.285Y-5.46
X4.505Y-4.925
X4.5074Y-5.1326
X4.5468Y-5.1323
X4.5534Y-4.7834
X4.61Y-4.835
X4.6411Y-4.9588
X4.65Y-4.685
X4.6556Y-4.9223
X4.6611Y-5.1611
X4.6622Y-4.9921
X4.67Y-3.5189
X4.685Y-4.65
X4.6896Y-5.0203
X4.7Y-2.715
X4.7194Y-5.046
X4.725Y-5.085
X4.735Y-2.765
X4.77Y-5.085
X4.8173Y-5.0827
X4.8234Y-5.1997
X4.8512Y-5.1719
X4.86Y-5.745
X4.8637Y-5.0787
X4.865Y-4.43
X4.865Y-4.48
X4.879Y-5.144
X4.885Y-5.7138
X4.925Y-5.585
X4.9494Y-5.3071
X4.955Y-5.555
X4.9837Y-4.1236
X4.985Y-5.2785
X4.985Y-5.5185
X5.01Y-4.1529
X5.015Y-5.645
X5.0255Y-4.3856
X5.0315Y-4.4245
X5.04Y-4.1815
X5.0407Y-4.2705
X5.0472Y-5.6178
X5.05Y-5.15
X5.075Y-5.59
X5.08Y-4.21
X5.08Y-4.2685
X5.105Y-5.555
X5.13Y-5.52
X5.1342Y-5.02
X5.2473Y-4.9473
X5.276Y-4.5707
X5.2873Y-4.6514
X5.2891Y-4.6092
X5.295Y-4.69
X5.295Y-4.905
X5.295Y-4.95
X5.31Y-5.0109
X5.345Y-4.9
X5.404Y-4.37
X5.76Y-2.395
X5.7628Y-2.48
X5.8Y-2.665
X5.86Y-2.48
X5.975Y-2.56
X6.03Y-2.3965
X6.03Y-2.51
X6.0734Y-2.5576
X6.08Y-2.39
X6.16Y-2.6314
X6.835Y-2.785
X7.285Y-5.46
X7.289Y-3.8687
X7.425Y-5.46
X7.425Y-5.52
X7.57Y-5.49
X5.7579Y-2.308
X5.7579Y-2.3602
X5.7913Y-2.3602
X5.7915Y-2.308
X5.8248Y-2.3602
X5.825Y-2.308
X5.8583Y-2.3602
X5.8585Y-2.308
X5.8917Y-2.3602
X5.8919Y-2.308
X5.9252Y-2.3602
X5.9254Y-2.308
X5.9587Y-2.3602
X5.9589Y-2.308
X5.9921Y-2.3602
X5.9923Y-2.308
T3
X4.7334Y-3.7444
X4.7508Y-3.6459
X4.7682Y-3.5474
X4.7855Y-3.4489
X4.8029Y-3.3504
X4.8203Y-3.252
X4.8376Y-3.1535
X4.855Y-3.055
T4
X3.8127Y-5.1357
X4.0762Y-5.0807
X7.3949Y-5.1726
X7.6238Y-5.0307
T5
X3.3746Y-3.2955
X3.6382Y-3.2404
X2.5646Y-3.5251
X2.8282Y-3.47
X3.9596Y-4.3555
X4.2232Y-4.3004
X4.0896Y-3.6155
X4.3532Y-3.5604
X7.9662Y-4.0819
X8.195Y-3.94
X1.8846Y-3.0205
X2.1482Y-2.9654
X9.4612Y-3.8169
X9.69Y-3.675
X8.5362Y-2.9369
X8.765Y-2.795
X7.2512Y-4.3969
X7.48Y-4.255
X9.3299Y-3.0726
X9.5588Y-2.9307
X0.9746Y-3.8055
X1.2382Y-3.7504
X10.1362Y-3.2469
X10.365Y-3.105
X3.2446Y-4.0355
X3.5082Y-3.9804
X2.8246Y-2.0455
X3.0882Y-1.9904
X2.0146Y-2.2805
X2.2782Y-2.2254
X3.5046Y-2.5555
X3.7682Y-2.5004
X1.1046Y-3.0655
X1.3682Y-3.0104
X8.6662Y-3.6776
X8.895Y-3.5357
X1.2396Y-2.3255
X1.5032Y-2.2704
X7.8362Y-3.3419
X8.065Y-3.2
X2.6964Y-2.7851
X2.96Y-2.73
X1.7546Y-3.7601
X2.0182Y-3.705
X8.4049Y-2.1976
X8.6338Y-2.0557
X10.2662Y-3.9869
X10.495Y-3.845
X4.2196Y-2.8755
X4.4832Y-2.8204
X10.0049Y-2.5076
X10.2338Y-2.3657
X6.9899Y-2.9176
X7.2188Y-2.7757
X7.1199Y-3.6576
X7.3488Y-3.5157
X9.1999Y-2.3326
X9.4288Y-2.1907
X7.7049Y-2.6026
X7.9338Y-2.4607
T2
G00X5.7047Y-2.1728
M15
G01X5.7047Y-2.2043
M16
G05
G00X5.7047Y-2.292
M15
G01X5.7047Y-2.3511
M16
G05
G00X6.0453Y-2.1728
M15
G01X6.0453Y-2.2043
M16
G05
G00X6.0453Y-2.292
M15
G01X6.0453Y-2.3511
M16
G05
T0
M30
