M48
; DRILL file {KiCad 5.1.6} date Sun Sep 20 21:14:28 2020
; FORMAT={-:-/ absolute / inch / decimal}
; #@! TF.CreationDate,2020-09-20T21:14:28+03:00
; #@! TF.GenerationSoftware,Kicad,Pcbnew,5.1.6
; #@! TF.FileFunction,NonPlated,1,2,NPTH
FMAT,2
INCH
T1C0.0669
T2C0.0689
T3C0.1200
T4C0.1570
T5C0.1575
%
G90
G05
T1
X8.5043Y-3.0441
X8.8982Y-2.9746
X7.2193Y-4.5041
X7.6132Y-4.4346
X9.298Y-3.1797
X9.692Y-3.1103
X0.908Y-3.8953
X1.302Y-3.9647
X10.1043Y-3.3541
X10.4982Y-3.2846
X3.178Y-4.1253
X3.572Y-4.1947
X2.758Y-2.1353
X3.152Y-2.2047
X1.948Y-2.3703
X2.342Y-2.4397
X3.438Y-2.6453
X3.832Y-2.7147
X1.038Y-3.1553
X1.432Y-3.2247
X8.6343Y-3.7847
X9.0282Y-3.7153
X1.173Y-2.4153
X1.567Y-2.4847
X7.8043Y-3.4491
X8.1982Y-3.3796
X2.6298Y-2.8749
X3.0238Y-2.9443
X1.688Y-3.8499
X2.082Y-3.9193
X8.373Y-2.3047
X8.767Y-2.2353
X10.2343Y-4.0941
X10.6282Y-4.0246
X4.153Y-2.9653
X4.547Y-3.0347
X9.973Y-2.6147
X10.367Y-2.5453
X6.958Y-3.0247
X7.352Y-2.9553
X7.088Y-3.7647
X7.482Y-3.6953
X9.168Y-2.4397
X9.562Y-2.3703
X7.673Y-2.7097
X8.067Y-2.6403
X3.308Y-3.3853
X3.702Y-3.4547
X2.498Y-3.6149
X2.892Y-3.6843
X3.893Y-4.4453
X4.287Y-4.5147
X4.023Y-3.7053
X4.417Y-3.7747
X7.9343Y-4.1891
X8.3282Y-4.1196
X1.818Y-3.1103
X2.212Y-3.1797
X9.4293Y-3.9241
X9.8232Y-3.8546
T2
X3.7461Y-5.2255
X4.14Y-5.295
X7.363Y-5.2797
X7.757Y-5.2103
T3
X3.4337Y-5.4497
X4.3569Y-5.6125
X7.1461Y-5.5972
X8.0694Y-5.4344
T4
X3.5378Y-4.8588
X3.943Y-5.2603
X4.4611Y-5.0216
X7.0419Y-5.0063
X7.56Y-5.245
X7.9652Y-4.8435
T5
X2.015Y-3.145
X9.6262Y-3.8893
X8.7012Y-3.0093
X7.4162Y-4.4693
X9.495Y-3.145
X1.105Y-3.93
X10.3012Y-3.3193
X3.375Y-4.16
X2.955Y-2.17
X2.145Y-2.405
X3.635Y-2.68
X1.235Y-3.19
X8.8312Y-3.75
X1.37Y-2.45
X8.0012Y-3.4143
X2.8268Y-2.9096
X1.885Y-3.8846
X8.57Y-2.27
X10.4312Y-4.0593
X4.35Y-3.0
X10.17Y-2.58
X7.155Y-2.99
X7.285Y-3.73
X9.365Y-2.405
X7.87Y-2.675
X3.505Y-3.42
X2.695Y-3.6496
X4.09Y-4.48
X4.22Y-3.74
X8.1312Y-4.1543
T0
M30
