%TF.GenerationSoftware,KiCad,Pcbnew,5.1.6*%
%TF.CreationDate,2020-09-20T21:14:14+03:00*%
%TF.ProjectId,Ball40,42616c6c-3430-42e6-9b69-6361645f7063,rev?*%
%TF.SameCoordinates,Original*%
%TF.FileFunction,Legend,Top*%
%TF.FilePolarity,Positive*%
%FSLAX46Y46*%
G04 Gerber Fmt 4.6, Leading zero omitted, Abs format (unit mm)*
G04 Created by KiCad (PCBNEW 5.1.6) date 2020-09-20 21:14:14*
%MOMM*%
%LPD*%
G01*
G04 APERTURE LIST*
%ADD10C,0.120000*%
%ADD11C,0.150000*%
G04 APERTURE END LIST*
D10*
%TO.C,MX30*%
X259287771Y-111198704D02*
X256861906Y-97440940D01*
X273045536Y-108772839D02*
X259287771Y-111198704D01*
X270619671Y-95015075D02*
X273045536Y-108772839D01*
X256861906Y-97440940D02*
X270619671Y-95015075D01*
%TO.C,MX29*%
X238840771Y-106880704D02*
X236414906Y-93122940D01*
X252598536Y-104454839D02*
X238840771Y-106880704D01*
X250172671Y-90697075D02*
X252598536Y-104454839D01*
X236414906Y-93122940D02*
X250172671Y-90697075D01*
%TO.C,MX28*%
X218647771Y-103341814D02*
X216221906Y-89584050D01*
X232405536Y-100915949D02*
X218647771Y-103341814D01*
X229979671Y-87158185D02*
X232405536Y-100915949D01*
X216221906Y-89584050D02*
X229979671Y-87158185D01*
%TO.C,MX27*%
X200867771Y-113611704D02*
X198441906Y-99853940D01*
X214625536Y-111185839D02*
X200867771Y-113611704D01*
X212199671Y-97428075D02*
X214625536Y-111185839D01*
X198441906Y-99853940D02*
X212199671Y-97428075D01*
%TO.C,MX26*%
X182706771Y-121612704D02*
X180280906Y-107854940D01*
X196464536Y-119186839D02*
X182706771Y-121612704D01*
X194038671Y-105429075D02*
X196464536Y-119186839D01*
X180280906Y-107854940D02*
X194038671Y-105429075D01*
%TO.C,MX25*%
X95794185Y-119457950D02*
X98220050Y-105700185D01*
X109551949Y-121883815D02*
X95794185Y-119457950D01*
X111977814Y-108126050D02*
X109551949Y-121883815D01*
X98220050Y-105700185D02*
X111977814Y-108126050D01*
%TO.C,MX24*%
X77633185Y-111329950D02*
X80059050Y-97572185D01*
X91390949Y-113755815D02*
X77633185Y-111329950D01*
X93816814Y-99998050D02*
X91390949Y-113755815D01*
X80059050Y-97572185D02*
X93816814Y-99998050D01*
%TO.C,MX23*%
X60361185Y-98365707D02*
X62787050Y-84607942D01*
X74118949Y-100791572D02*
X60361185Y-98365707D01*
X76544814Y-87033807D02*
X74118949Y-100791572D01*
X62787050Y-84607942D02*
X76544814Y-87033807D01*
%TO.C,MX22*%
X39787185Y-104334707D02*
X42213050Y-90576942D01*
X53544949Y-106760572D02*
X39787185Y-104334707D01*
X55970814Y-93002807D02*
X53544949Y-106760572D01*
X42213050Y-90576942D02*
X55970814Y-93002807D01*
%TO.C,MX21*%
X255985771Y-92402704D02*
X253559906Y-78644940D01*
X269743536Y-89976839D02*
X255985771Y-92402704D01*
X267317671Y-76219075D02*
X269743536Y-89976839D01*
X253559906Y-78644940D02*
X267317671Y-76219075D01*
%TO.C,MX20*%
X235507050Y-87974814D02*
X233081185Y-74217050D01*
X249264815Y-85548949D02*
X235507050Y-87974814D01*
X246838950Y-71791185D02*
X249264815Y-85548949D01*
X233081185Y-74217050D02*
X246838950Y-71791185D01*
%TO.C,MX19*%
X215345771Y-84528704D02*
X212919906Y-70770940D01*
X229103536Y-82102839D02*
X215345771Y-84528704D01*
X226677671Y-68345075D02*
X229103536Y-82102839D01*
X212919906Y-70770940D02*
X226677671Y-68345075D01*
%TO.C,MX18*%
X197565771Y-94815704D02*
X195139906Y-81057940D01*
X211323536Y-92389839D02*
X197565771Y-94815704D01*
X208897671Y-78632075D02*
X211323536Y-92389839D01*
X195139906Y-81057940D02*
X208897671Y-78632075D01*
%TO.C,MX17*%
X179373050Y-102833814D02*
X176947185Y-89076050D01*
X193130815Y-100407949D02*
X179373050Y-102833814D01*
X190704950Y-86650185D02*
X193130815Y-100407949D01*
X176947185Y-89076050D02*
X190704950Y-86650185D01*
%TO.C,MX16*%
X99096185Y-100661950D02*
X101522050Y-86904185D01*
X112853949Y-103087815D02*
X99096185Y-100661950D01*
X115279814Y-89330050D02*
X112853949Y-103087815D01*
X101522050Y-86904185D02*
X115279814Y-89330050D01*
%TO.C,MX15*%
X80935185Y-92533950D02*
X83361050Y-78776185D01*
X94692949Y-94959815D02*
X80935185Y-92533950D01*
X97118814Y-81202050D02*
X94692949Y-94959815D01*
X83361050Y-78776185D02*
X97118814Y-81202050D01*
%TO.C,MX14*%
X63708641Y-79569707D02*
X66134506Y-65811942D01*
X77466405Y-81995572D02*
X63708641Y-79569707D01*
X79892270Y-68237807D02*
X77466405Y-81995572D01*
X66134506Y-65811942D02*
X79892270Y-68237807D01*
%TO.C,MX13*%
X43089185Y-85548950D02*
X45515050Y-71791185D01*
X56846949Y-87974815D02*
X43089185Y-85548950D01*
X59272814Y-74217050D02*
X56846949Y-87974815D01*
X45515050Y-71791185D02*
X59272814Y-74217050D01*
%TO.C,MX12*%
X252652050Y-73623814D02*
X250226185Y-59866050D01*
X266409815Y-71197949D02*
X252652050Y-73623814D01*
X263983950Y-57440185D02*
X266409815Y-71197949D01*
X250226185Y-59866050D02*
X263983950Y-57440185D01*
%TO.C,MX11*%
X232205050Y-69178814D02*
X229779185Y-55421050D01*
X245962815Y-66752949D02*
X232205050Y-69178814D01*
X243536950Y-52995185D02*
X245962815Y-66752949D01*
X229779185Y-55421050D02*
X243536950Y-52995185D01*
%TO.C,MX10*%
X212012050Y-65749814D02*
X209586185Y-51992050D01*
X225769815Y-63323949D02*
X212012050Y-65749814D01*
X223343950Y-49566185D02*
X225769815Y-63323949D01*
X209586185Y-51992050D02*
X223343950Y-49566185D01*
%TO.C,MX9*%
X19975185Y-105487950D02*
X22401050Y-91730185D01*
X33732949Y-107913815D02*
X19975185Y-105487950D01*
X36158814Y-94156050D02*
X33732949Y-107913815D01*
X22401050Y-91730185D02*
X36158814Y-94156050D01*
%TO.C,MX8*%
X194232050Y-76036814D02*
X191806185Y-62279050D01*
X207989815Y-73610949D02*
X194232050Y-76036814D01*
X205563950Y-59853185D02*
X207989815Y-73610949D01*
X191806185Y-62279050D02*
X205563950Y-59853185D01*
%TO.C,MX7*%
X176071050Y-84037814D02*
X173645185Y-70280050D01*
X189828815Y-81611949D02*
X176071050Y-84037814D01*
X187402950Y-67854185D02*
X189828815Y-81611949D01*
X173645185Y-70280050D02*
X187402950Y-67854185D01*
%TO.C,MX6*%
X102398185Y-81865950D02*
X104824050Y-68108185D01*
X116155949Y-84291815D02*
X102398185Y-81865950D01*
X118581814Y-70534050D02*
X116155949Y-84291815D01*
X104824050Y-68108185D02*
X118581814Y-70534050D01*
%TO.C,MX5*%
X23277185Y-86691950D02*
X25703050Y-72934185D01*
X37034949Y-89117815D02*
X23277185Y-86691950D01*
X39460814Y-75360050D02*
X37034949Y-89117815D01*
X25703050Y-72934185D02*
X39460814Y-75360050D01*
%TO.C,MX4*%
X84237185Y-73737950D02*
X86663050Y-59980185D01*
X97994949Y-76163815D02*
X84237185Y-73737950D01*
X100420814Y-62406050D02*
X97994949Y-76163815D01*
X86663050Y-59980185D02*
X100420814Y-62406050D01*
%TO.C,MX3*%
X66965185Y-60783950D02*
X69391050Y-47026185D01*
X80722949Y-63209815D02*
X66965185Y-60783950D01*
X83148814Y-49452050D02*
X80722949Y-63209815D01*
X69391050Y-47026185D02*
X83148814Y-49452050D01*
%TO.C,MX2*%
X46391185Y-66752950D02*
X48817050Y-52995185D01*
X60148949Y-69178815D02*
X46391185Y-66752950D01*
X62574814Y-55421050D02*
X60148949Y-69178815D01*
X48817050Y-52995185D02*
X62574814Y-55421050D01*
%TO.C,MX1*%
X26706185Y-67895950D02*
X29132050Y-54138185D01*
X40463949Y-70321815D02*
X26706185Y-67895950D01*
X42889814Y-56564050D02*
X40463949Y-70321815D01*
X29132050Y-54138185D02*
X42889814Y-56564050D01*
%TO.C,J1*%
X122238158Y-76056254D02*
X123547952Y-76287206D01*
X122007206Y-77366048D02*
X122238158Y-76056254D01*
X121786673Y-78616754D02*
X124406261Y-79078658D01*
X124406261Y-79078658D02*
X121308378Y-96647628D01*
X121786673Y-78616754D02*
X118688789Y-96185724D01*
X118688789Y-96185724D02*
X121308378Y-96647628D01*
%TO.C,MX30*%
D11*
X261929832Y-96103973D02*
X261756184Y-95119166D01*
X262208488Y-95764717D01*
X262412722Y-95003400D01*
X262586371Y-95988208D01*
X262787887Y-94937248D02*
X263618074Y-95806291D01*
X263444426Y-94821483D02*
X262961536Y-95922056D01*
X263725799Y-94771869D02*
X264335442Y-94664373D01*
X264073325Y-95097420D01*
X264214012Y-95072613D01*
X264316072Y-95102971D01*
X264371236Y-95141598D01*
X264434670Y-95227120D01*
X264476015Y-95461598D01*
X264445657Y-95563658D01*
X264407030Y-95618823D01*
X264321508Y-95682256D01*
X264040134Y-95731870D01*
X263938074Y-95701512D01*
X263882910Y-95662886D01*
X264945085Y-94556876D02*
X265038876Y-94540338D01*
X265140937Y-94570696D01*
X265196101Y-94609323D01*
X265259535Y-94694845D01*
X265339506Y-94874158D01*
X265380851Y-95108636D01*
X265367031Y-95304488D01*
X265336674Y-95406548D01*
X265298047Y-95461713D01*
X265212525Y-95525146D01*
X265118733Y-95541684D01*
X265016673Y-95511326D01*
X264961509Y-95472700D01*
X264898075Y-95387177D01*
X264818104Y-95207864D01*
X264776759Y-94973386D01*
X264790579Y-94777535D01*
X264820936Y-94675474D01*
X264859563Y-94620310D01*
X264945085Y-94556876D01*
%TO.C,MX29*%
X241482832Y-91785973D02*
X241309184Y-90801166D01*
X241761488Y-91446717D01*
X241965722Y-90685400D01*
X242139371Y-91670208D01*
X242340887Y-90619248D02*
X243171074Y-91488291D01*
X242997426Y-90503483D02*
X242514536Y-91604056D01*
X243342233Y-90539391D02*
X243380860Y-90484227D01*
X243466382Y-90420793D01*
X243700860Y-90379449D01*
X243802920Y-90409806D01*
X243858085Y-90448433D01*
X243921518Y-90533955D01*
X243938056Y-90627746D01*
X243915967Y-90776702D01*
X243452448Y-91438677D01*
X244062091Y-91331180D01*
X244531047Y-91248491D02*
X244718629Y-91215415D01*
X244804151Y-91151981D01*
X244842778Y-91096817D01*
X244911762Y-90939592D01*
X244925582Y-90743741D01*
X244859430Y-90368576D01*
X244795997Y-90283054D01*
X244740832Y-90244427D01*
X244638772Y-90214069D01*
X244451190Y-90247145D01*
X244365667Y-90310579D01*
X244327041Y-90365743D01*
X244296683Y-90467803D01*
X244338028Y-90702281D01*
X244401461Y-90787804D01*
X244456626Y-90826430D01*
X244558686Y-90856788D01*
X244746269Y-90823712D01*
X244831791Y-90760279D01*
X244870417Y-90705114D01*
X244900775Y-90603054D01*
%TO.C,MX28*%
X221289832Y-88247083D02*
X221116184Y-87262276D01*
X221568488Y-87907827D01*
X221772722Y-87146510D01*
X221946371Y-88131318D01*
X222147887Y-87080358D02*
X222978074Y-87949401D01*
X222804426Y-86964593D02*
X222321536Y-88065166D01*
X223149233Y-87000501D02*
X223187860Y-86945337D01*
X223273382Y-86881903D01*
X223507860Y-86840559D01*
X223609920Y-86870916D01*
X223665085Y-86909543D01*
X223728518Y-86995065D01*
X223745056Y-87088856D01*
X223722967Y-87237812D01*
X223259448Y-87899787D01*
X223869091Y-87792290D01*
X224332610Y-87130316D02*
X224230550Y-87099958D01*
X224175386Y-87061331D01*
X224111952Y-86975809D01*
X224103683Y-86928913D01*
X224134041Y-86826853D01*
X224172667Y-86771689D01*
X224258190Y-86708255D01*
X224445772Y-86675179D01*
X224547832Y-86705537D01*
X224602997Y-86744164D01*
X224666430Y-86829686D01*
X224674699Y-86876582D01*
X224644342Y-86978642D01*
X224605715Y-87033806D01*
X224520193Y-87097240D01*
X224332610Y-87130316D01*
X224247088Y-87193749D01*
X224208461Y-87248914D01*
X224178104Y-87350974D01*
X224211180Y-87538556D01*
X224274613Y-87624079D01*
X224329778Y-87662705D01*
X224431838Y-87693063D01*
X224619420Y-87659987D01*
X224704943Y-87596554D01*
X224743569Y-87541389D01*
X224773927Y-87439329D01*
X224740851Y-87251746D01*
X224677417Y-87166224D01*
X224622253Y-87127597D01*
X224520193Y-87097240D01*
%TO.C,MX27*%
X203509832Y-98516973D02*
X203336184Y-97532166D01*
X203788488Y-98177717D01*
X203992722Y-97416400D01*
X204166371Y-98401208D01*
X204367887Y-97350248D02*
X205198074Y-98219291D01*
X205024426Y-97234483D02*
X204541536Y-98335056D01*
X205369233Y-97270391D02*
X205407860Y-97215227D01*
X205493382Y-97151793D01*
X205727860Y-97110449D01*
X205829920Y-97140806D01*
X205885085Y-97179433D01*
X205948518Y-97264955D01*
X205965056Y-97358746D01*
X205942967Y-97507702D01*
X205479448Y-98169677D01*
X206089091Y-98062180D01*
X206243712Y-97019490D02*
X206900250Y-96903725D01*
X206651838Y-97962953D01*
%TO.C,MX26*%
X185348832Y-106517973D02*
X185175184Y-105533166D01*
X185627488Y-106178717D01*
X185831722Y-105417400D01*
X186005371Y-106402208D01*
X186206887Y-105351248D02*
X187037074Y-106220291D01*
X186863426Y-105235483D02*
X186380536Y-106336056D01*
X187208233Y-105271391D02*
X187246860Y-105216227D01*
X187332382Y-105152793D01*
X187566860Y-105111449D01*
X187668920Y-105141806D01*
X187724085Y-105180433D01*
X187787518Y-105265955D01*
X187804056Y-105359746D01*
X187781967Y-105508702D01*
X187318448Y-106170677D01*
X187928091Y-106063180D01*
X188598563Y-104929531D02*
X188410981Y-104962607D01*
X188325459Y-105026041D01*
X188286832Y-105081205D01*
X188217848Y-105238430D01*
X188204028Y-105434281D01*
X188270180Y-105809446D01*
X188333613Y-105894969D01*
X188388778Y-105933595D01*
X188490838Y-105963953D01*
X188678420Y-105930877D01*
X188763943Y-105867444D01*
X188802569Y-105812279D01*
X188832927Y-105710219D01*
X188791582Y-105475741D01*
X188728149Y-105390219D01*
X188672984Y-105351592D01*
X188570924Y-105321234D01*
X188383341Y-105354310D01*
X188297819Y-105417744D01*
X188259192Y-105472908D01*
X188228835Y-105574968D01*
%TO.C,MX25*%
X103439612Y-106177180D02*
X103613260Y-105192372D01*
X103817495Y-105953689D01*
X104269799Y-105308138D01*
X104096150Y-106292946D01*
X104644963Y-105374290D02*
X105127854Y-106474863D01*
X105301502Y-105490055D02*
X104471315Y-106359097D01*
X105613233Y-105641729D02*
X105668398Y-105603102D01*
X105770458Y-105572745D01*
X106004936Y-105614089D01*
X106090458Y-105677523D01*
X106129085Y-105732688D01*
X106159443Y-105834748D01*
X106142905Y-105928539D01*
X106071202Y-106060957D01*
X105409227Y-106524477D01*
X106018870Y-106631973D01*
X107083535Y-105804276D02*
X106614579Y-105721586D01*
X106484994Y-106182273D01*
X106540158Y-106143646D01*
X106642218Y-106113289D01*
X106876697Y-106154634D01*
X106962219Y-106218067D01*
X107000845Y-106273232D01*
X107031203Y-106375292D01*
X106989858Y-106609770D01*
X106926425Y-106695292D01*
X106871260Y-106733919D01*
X106769200Y-106764276D01*
X106534722Y-106722932D01*
X106449200Y-106659498D01*
X106410573Y-106604334D01*
%TO.C,MX24*%
X85278612Y-98049180D02*
X85452260Y-97064372D01*
X85656495Y-97825689D01*
X86108799Y-97180138D01*
X85935150Y-98164946D01*
X86483963Y-97246290D02*
X86966854Y-98346863D01*
X87140502Y-97362055D02*
X86310315Y-98231097D01*
X87452233Y-97513729D02*
X87507398Y-97475102D01*
X87609458Y-97444745D01*
X87843936Y-97486089D01*
X87929458Y-97549523D01*
X87968085Y-97604688D01*
X87998443Y-97706748D01*
X87981905Y-97800539D01*
X87910202Y-97932957D01*
X87248227Y-98396477D01*
X87857870Y-98503973D01*
X88817757Y-97996276D02*
X88701991Y-98652814D01*
X88649430Y-97579766D02*
X88290918Y-98241856D01*
X88900561Y-98349352D01*
%TO.C,MX23*%
X68006612Y-85084937D02*
X68180260Y-84100129D01*
X68384495Y-84861446D01*
X68836799Y-84215895D01*
X68663150Y-85200703D01*
X69211963Y-84282047D02*
X69694854Y-85382620D01*
X69868502Y-84397812D02*
X69038315Y-85266854D01*
X70180233Y-84549486D02*
X70235398Y-84510859D01*
X70337458Y-84480502D01*
X70571936Y-84521846D01*
X70657458Y-84585280D01*
X70696085Y-84640445D01*
X70726443Y-84742505D01*
X70709905Y-84836296D01*
X70638202Y-84968714D01*
X69976227Y-85432234D01*
X70585870Y-85539730D01*
X71087788Y-84612805D02*
X71697431Y-84720302D01*
X71303010Y-85037584D01*
X71443697Y-85062391D01*
X71529219Y-85125824D01*
X71567845Y-85180989D01*
X71598203Y-85283049D01*
X71556858Y-85517527D01*
X71493425Y-85603049D01*
X71438260Y-85641676D01*
X71336200Y-85672033D01*
X71054826Y-85622420D01*
X70969304Y-85558986D01*
X70930677Y-85503822D01*
%TO.C,MX22*%
X47432612Y-91053937D02*
X47606260Y-90069129D01*
X47810495Y-90830446D01*
X48262799Y-90184895D01*
X48089150Y-91169703D01*
X48637963Y-90251047D02*
X49120854Y-91351620D01*
X49294502Y-90366812D02*
X48464315Y-91235854D01*
X49606233Y-90518486D02*
X49661398Y-90479859D01*
X49763458Y-90449502D01*
X49997936Y-90490846D01*
X50083458Y-90554280D01*
X50122085Y-90609445D01*
X50152443Y-90711505D01*
X50135905Y-90805296D01*
X50064202Y-90937714D01*
X49402227Y-91401234D01*
X50011870Y-91508730D01*
X50544145Y-90683865D02*
X50599310Y-90645239D01*
X50701370Y-90614881D01*
X50935848Y-90656226D01*
X51021370Y-90719659D01*
X51059997Y-90774824D01*
X51090355Y-90876884D01*
X51073817Y-90970675D01*
X51002114Y-91103093D01*
X50340140Y-91566613D01*
X50949782Y-91674109D01*
%TO.C,MX21*%
X258627832Y-77307973D02*
X258454184Y-76323166D01*
X258906488Y-76968717D01*
X259110722Y-76207400D01*
X259284371Y-77192208D01*
X259485887Y-76141248D02*
X260316074Y-77010291D01*
X260142426Y-76025483D02*
X259659536Y-77126056D01*
X260487233Y-76061391D02*
X260525860Y-76006227D01*
X260611382Y-75942793D01*
X260845860Y-75901449D01*
X260947920Y-75931806D01*
X261003085Y-75970433D01*
X261066518Y-76055955D01*
X261083056Y-76149746D01*
X261060967Y-76298702D01*
X260597448Y-76960677D01*
X261207091Y-76853180D01*
X262145003Y-76687801D02*
X261582255Y-76787029D01*
X261863629Y-76737415D02*
X261689981Y-75752607D01*
X261620997Y-75909832D01*
X261543743Y-76020161D01*
X261458221Y-76083595D01*
%TO.C,MX20*%
X238149111Y-72880083D02*
X237975463Y-71895276D01*
X238427767Y-72540827D01*
X238632001Y-71779510D01*
X238805650Y-72764318D01*
X239007166Y-71713358D02*
X239837353Y-72582401D01*
X239663705Y-71597593D02*
X239180815Y-72698166D01*
X240008512Y-71633501D02*
X240047139Y-71578337D01*
X240132661Y-71514903D01*
X240367139Y-71473559D01*
X240469199Y-71503916D01*
X240524364Y-71542543D01*
X240587797Y-71628065D01*
X240604335Y-71721856D01*
X240582246Y-71870812D01*
X240118727Y-72532787D01*
X240728370Y-72425290D01*
X241164364Y-71332986D02*
X241258155Y-71316448D01*
X241360216Y-71346806D01*
X241415380Y-71385433D01*
X241478814Y-71470955D01*
X241558785Y-71650268D01*
X241600130Y-71884746D01*
X241586310Y-72080598D01*
X241555953Y-72182658D01*
X241517326Y-72237823D01*
X241431804Y-72301256D01*
X241338012Y-72317794D01*
X241235952Y-72287436D01*
X241180788Y-72248810D01*
X241117354Y-72163287D01*
X241037383Y-71983974D01*
X240996038Y-71749496D01*
X241009858Y-71553645D01*
X241040215Y-71451584D01*
X241078842Y-71396420D01*
X241164364Y-71332986D01*
%TO.C,MX19*%
X217987832Y-69433973D02*
X217814184Y-68449166D01*
X218266488Y-69094717D01*
X218470722Y-68333400D01*
X218644371Y-69318208D01*
X218845887Y-68267248D02*
X219676074Y-69136291D01*
X219502426Y-68151483D02*
X219019536Y-69252056D01*
X220567091Y-68979180D02*
X220004343Y-69078408D01*
X220285717Y-69028794D02*
X220112069Y-68043986D01*
X220043084Y-68201211D01*
X219965831Y-68311540D01*
X219880309Y-68374974D01*
X221036047Y-68896491D02*
X221223629Y-68863415D01*
X221309151Y-68799981D01*
X221347778Y-68744817D01*
X221416762Y-68587592D01*
X221430582Y-68391741D01*
X221364430Y-68016576D01*
X221300997Y-67931054D01*
X221245832Y-67892427D01*
X221143772Y-67862069D01*
X220956190Y-67895145D01*
X220870667Y-67958579D01*
X220832041Y-68013743D01*
X220801683Y-68115803D01*
X220843028Y-68350281D01*
X220906461Y-68435804D01*
X220961626Y-68474430D01*
X221063686Y-68504788D01*
X221251269Y-68471712D01*
X221336791Y-68408279D01*
X221375417Y-68353114D01*
X221405775Y-68251054D01*
%TO.C,MX18*%
X200207832Y-79720973D02*
X200034184Y-78736166D01*
X200486488Y-79381717D01*
X200690722Y-78620400D01*
X200864371Y-79605208D01*
X201065887Y-78554248D02*
X201896074Y-79423291D01*
X201722426Y-78438483D02*
X201239536Y-79539056D01*
X202787091Y-79266180D02*
X202224343Y-79365408D01*
X202505717Y-79315794D02*
X202332069Y-78330986D01*
X202263084Y-78488211D01*
X202185831Y-78598540D01*
X202100309Y-78661974D01*
X203250610Y-78604206D02*
X203148550Y-78573848D01*
X203093386Y-78535221D01*
X203029952Y-78449699D01*
X203021683Y-78402803D01*
X203052041Y-78300743D01*
X203090667Y-78245579D01*
X203176190Y-78182145D01*
X203363772Y-78149069D01*
X203465832Y-78179427D01*
X203520997Y-78218054D01*
X203584430Y-78303576D01*
X203592699Y-78350472D01*
X203562342Y-78452532D01*
X203523715Y-78507696D01*
X203438193Y-78571130D01*
X203250610Y-78604206D01*
X203165088Y-78667639D01*
X203126461Y-78722804D01*
X203096104Y-78824864D01*
X203129180Y-79012446D01*
X203192613Y-79097969D01*
X203247778Y-79136595D01*
X203349838Y-79166953D01*
X203537420Y-79133877D01*
X203622943Y-79070444D01*
X203661569Y-79015279D01*
X203691927Y-78913219D01*
X203658851Y-78725636D01*
X203595417Y-78640114D01*
X203540253Y-78601487D01*
X203438193Y-78571130D01*
%TO.C,MX17*%
X182015111Y-87739083D02*
X181841463Y-86754276D01*
X182293767Y-87399827D01*
X182498001Y-86638510D01*
X182671650Y-87623318D01*
X182873166Y-86572358D02*
X183703353Y-87441401D01*
X183529705Y-86456593D02*
X183046815Y-87557166D01*
X184594370Y-87284290D02*
X184031622Y-87383518D01*
X184312996Y-87333904D02*
X184139348Y-86349096D01*
X184070363Y-86506321D01*
X183993110Y-86616650D01*
X183907588Y-86680084D01*
X184748991Y-86241600D02*
X185405529Y-86125835D01*
X185157117Y-87185063D01*
%TO.C,MX16*%
X106741612Y-87381180D02*
X106915260Y-86396372D01*
X107119495Y-87157689D01*
X107571799Y-86512138D01*
X107398150Y-87496946D01*
X107946963Y-86578290D02*
X108429854Y-87678863D01*
X108603502Y-86694055D02*
X107773315Y-87563097D01*
X109320870Y-87835973D02*
X108758123Y-87736746D01*
X109039497Y-87786359D02*
X109213145Y-86801552D01*
X109094547Y-86925700D01*
X108984218Y-87002954D01*
X108882157Y-87033311D01*
X110338639Y-87000007D02*
X110151057Y-86966931D01*
X110048997Y-86997288D01*
X109993832Y-87035915D01*
X109875234Y-87160064D01*
X109795263Y-87339377D01*
X109729111Y-87714542D01*
X109759469Y-87816602D01*
X109798095Y-87871767D01*
X109883618Y-87935201D01*
X110071200Y-87968276D01*
X110173260Y-87937919D01*
X110228425Y-87899292D01*
X110291858Y-87813770D01*
X110333203Y-87579292D01*
X110302845Y-87477232D01*
X110264219Y-87422067D01*
X110178697Y-87358634D01*
X109991114Y-87325558D01*
X109889054Y-87355915D01*
X109833889Y-87394542D01*
X109770456Y-87480064D01*
%TO.C,MX15*%
X88580612Y-79253180D02*
X88754260Y-78268372D01*
X88958495Y-79029689D01*
X89410799Y-78384138D01*
X89237150Y-79368946D01*
X89785963Y-78450290D02*
X90268854Y-79550863D01*
X90442502Y-78566055D02*
X89612315Y-79435097D01*
X91159870Y-79707973D02*
X90597123Y-79608746D01*
X90878497Y-79658359D02*
X91052145Y-78673552D01*
X90933547Y-78797700D01*
X90823218Y-78874954D01*
X90721157Y-78905311D01*
X92224535Y-78880276D02*
X91755579Y-78797586D01*
X91625994Y-79258273D01*
X91681158Y-79219646D01*
X91783218Y-79189289D01*
X92017697Y-79230634D01*
X92103219Y-79294067D01*
X92141845Y-79349232D01*
X92172203Y-79451292D01*
X92130858Y-79685770D01*
X92067425Y-79771292D01*
X92012260Y-79809919D01*
X91910200Y-79840276D01*
X91675722Y-79798932D01*
X91590200Y-79735498D01*
X91551573Y-79680334D01*
%TO.C,MX14*%
X71354068Y-66288937D02*
X71527716Y-65304129D01*
X71731951Y-66065446D01*
X72184255Y-65419895D01*
X72010606Y-66404703D01*
X72559419Y-65486047D02*
X73042310Y-66586620D01*
X73215958Y-65601812D02*
X72385771Y-66470854D01*
X73933326Y-66743730D02*
X73370579Y-66644503D01*
X73651953Y-66694116D02*
X73825601Y-65709309D01*
X73707003Y-65833457D01*
X73596674Y-65910711D01*
X73494613Y-65941068D01*
X74893213Y-66236033D02*
X74777447Y-66892571D01*
X74724886Y-65819523D02*
X74366374Y-66481613D01*
X74976017Y-66589109D01*
%TO.C,MX13*%
X50734612Y-72268180D02*
X50908260Y-71283372D01*
X51112495Y-72044689D01*
X51564799Y-71399138D01*
X51391150Y-72383946D01*
X51939963Y-71465290D02*
X52422854Y-72565863D01*
X52596502Y-71581055D02*
X51766315Y-72450097D01*
X53313870Y-72722973D02*
X52751123Y-72623746D01*
X53032497Y-72673359D02*
X53206145Y-71688552D01*
X53087547Y-71812700D01*
X52977218Y-71889954D01*
X52875157Y-71920311D01*
X53815788Y-71796048D02*
X54425431Y-71903545D01*
X54031010Y-72220827D01*
X54171697Y-72245634D01*
X54257219Y-72309067D01*
X54295845Y-72364232D01*
X54326203Y-72466292D01*
X54284858Y-72700770D01*
X54221425Y-72786292D01*
X54166260Y-72824919D01*
X54064200Y-72855276D01*
X53782826Y-72805663D01*
X53697304Y-72742229D01*
X53658677Y-72687065D01*
%TO.C,MX12*%
X255294111Y-58529083D02*
X255120463Y-57544276D01*
X255572767Y-58189827D01*
X255777001Y-57428510D01*
X255950650Y-58413318D01*
X256152166Y-57362358D02*
X256982353Y-58231401D01*
X256808705Y-57246593D02*
X256325815Y-58347166D01*
X257873370Y-58074290D02*
X257310622Y-58173518D01*
X257591996Y-58123904D02*
X257418348Y-57139096D01*
X257349363Y-57296321D01*
X257272110Y-57406650D01*
X257186588Y-57470084D01*
X258091424Y-57117122D02*
X258130051Y-57061958D01*
X258215573Y-56998524D01*
X258450051Y-56957179D01*
X258552111Y-56987537D01*
X258607276Y-57026164D01*
X258670709Y-57111686D01*
X258687247Y-57205477D01*
X258665159Y-57354433D01*
X258201639Y-58016408D01*
X258811282Y-57908911D01*
%TO.C,MX11*%
X234847111Y-54084083D02*
X234673463Y-53099276D01*
X235125767Y-53744827D01*
X235330001Y-52983510D01*
X235503650Y-53968318D01*
X235705166Y-52917358D02*
X236535353Y-53786401D01*
X236361705Y-52801593D02*
X235878815Y-53902166D01*
X237426370Y-53629290D02*
X236863622Y-53728518D01*
X237144996Y-53678904D02*
X236971348Y-52694096D01*
X236902363Y-52851321D01*
X236825110Y-52961650D01*
X236739588Y-53025084D01*
X238364282Y-53463911D02*
X237801534Y-53563139D01*
X238082908Y-53513525D02*
X237909260Y-52528717D01*
X237840276Y-52685942D01*
X237763022Y-52796271D01*
X237677500Y-52859705D01*
%TO.C,MX10*%
X214654111Y-50655083D02*
X214480463Y-49670276D01*
X214932767Y-50315827D01*
X215137001Y-49554510D01*
X215310650Y-50539318D01*
X215512166Y-49488358D02*
X216342353Y-50357401D01*
X216168705Y-49372593D02*
X215685815Y-50473166D01*
X217233370Y-50200290D02*
X216670622Y-50299518D01*
X216951996Y-50249904D02*
X216778348Y-49265096D01*
X216709363Y-49422321D01*
X216632110Y-49532650D01*
X216546588Y-49596084D01*
X217669364Y-49107986D02*
X217763155Y-49091448D01*
X217865216Y-49121806D01*
X217920380Y-49160433D01*
X217983814Y-49245955D01*
X218063785Y-49425268D01*
X218105130Y-49659746D01*
X218091310Y-49855598D01*
X218060953Y-49957658D01*
X218022326Y-50012823D01*
X217936804Y-50076256D01*
X217843012Y-50092794D01*
X217740952Y-50062436D01*
X217685788Y-50023810D01*
X217622354Y-49938287D01*
X217542383Y-49758974D01*
X217501038Y-49524496D01*
X217514858Y-49328645D01*
X217545215Y-49226584D01*
X217583842Y-49171420D01*
X217669364Y-49107986D01*
%TO.C,MX9*%
X28089568Y-92289870D02*
X28263216Y-91305062D01*
X28467451Y-92066379D01*
X28919755Y-91420828D01*
X28746106Y-92405635D01*
X29294920Y-91486979D02*
X29777810Y-92587552D01*
X29951458Y-91602745D02*
X29121271Y-92471787D01*
X30199870Y-92661973D02*
X30387453Y-92695049D01*
X30489513Y-92664691D01*
X30544677Y-92626065D01*
X30663276Y-92501916D01*
X30743247Y-92322602D01*
X30809399Y-91947437D01*
X30779041Y-91845377D01*
X30740414Y-91790213D01*
X30654892Y-91726779D01*
X30467310Y-91693703D01*
X30365250Y-91724061D01*
X30310085Y-91762688D01*
X30246651Y-91848210D01*
X30205307Y-92082688D01*
X30235664Y-92184748D01*
X30274291Y-92239913D01*
X30359813Y-92303346D01*
X30547396Y-92336422D01*
X30649456Y-92306064D01*
X30704620Y-92267438D01*
X30768054Y-92181915D01*
%TO.C,MX8*%
X197343067Y-60859394D02*
X197169419Y-59874586D01*
X197621723Y-60520137D01*
X197825958Y-59758821D01*
X197999606Y-60743628D01*
X198201122Y-59692669D02*
X199031309Y-60561711D01*
X198857661Y-59576903D02*
X198374771Y-60677477D01*
X199447933Y-59908005D02*
X199345873Y-59877648D01*
X199290709Y-59839021D01*
X199227275Y-59753499D01*
X199219006Y-59706603D01*
X199249364Y-59604543D01*
X199287990Y-59549378D01*
X199373513Y-59485945D01*
X199561095Y-59452869D01*
X199663155Y-59483227D01*
X199718320Y-59521853D01*
X199781753Y-59607376D01*
X199790022Y-59654271D01*
X199759665Y-59756331D01*
X199721038Y-59811496D01*
X199635516Y-59874929D01*
X199447933Y-59908005D01*
X199362411Y-59971439D01*
X199323784Y-60026603D01*
X199293427Y-60128664D01*
X199326503Y-60316246D01*
X199389936Y-60401768D01*
X199445101Y-60440395D01*
X199547161Y-60470753D01*
X199734743Y-60437677D01*
X199820265Y-60374243D01*
X199858892Y-60319079D01*
X199889250Y-60217018D01*
X199856174Y-60029436D01*
X199792740Y-59943914D01*
X199737576Y-59905287D01*
X199635516Y-59874929D01*
%TO.C,MX7*%
X179182067Y-68860394D02*
X179008419Y-67875586D01*
X179460723Y-68521137D01*
X179664958Y-67759821D01*
X179838606Y-68744628D01*
X180040122Y-67693669D02*
X180870309Y-68562711D01*
X180696661Y-67577903D02*
X180213771Y-68678477D01*
X180978035Y-67528290D02*
X181634573Y-67412524D01*
X181386161Y-68471753D01*
%TO.C,MX6*%
X110512568Y-68667870D02*
X110686216Y-67683062D01*
X110890451Y-68444379D01*
X111342755Y-67798828D01*
X111169106Y-68783635D01*
X111717920Y-67864979D02*
X112200810Y-68965552D01*
X112374458Y-67980745D02*
X111544271Y-68849787D01*
X113171683Y-68121317D02*
X112984101Y-68088241D01*
X112882041Y-68118599D01*
X112826876Y-68157225D01*
X112708278Y-68281374D01*
X112628307Y-68460688D01*
X112562155Y-68835853D01*
X112592513Y-68937913D01*
X112631139Y-68993077D01*
X112716662Y-69056511D01*
X112904244Y-69089587D01*
X113006304Y-69059229D01*
X113061469Y-69020602D01*
X113124902Y-68935080D01*
X113166247Y-68700602D01*
X113135889Y-68598542D01*
X113097263Y-68543377D01*
X113011740Y-68479944D01*
X112824158Y-68446868D01*
X112722098Y-68477226D01*
X112666933Y-68515852D01*
X112603500Y-68601375D01*
%TO.C,MX5*%
X31391568Y-73493870D02*
X31565216Y-72509062D01*
X31769451Y-73270379D01*
X32221755Y-72624828D01*
X32048106Y-73609635D01*
X32596920Y-72690979D02*
X33079810Y-73791552D01*
X33253458Y-72806745D02*
X32423271Y-73675787D01*
X34097579Y-72955586D02*
X33628623Y-72872896D01*
X33499038Y-73333583D01*
X33554202Y-73294957D01*
X33656262Y-73264599D01*
X33890740Y-73305944D01*
X33976263Y-73369377D01*
X34014889Y-73424542D01*
X34045247Y-73526602D01*
X34003902Y-73761080D01*
X33940469Y-73846602D01*
X33885304Y-73885229D01*
X33783244Y-73915587D01*
X33548766Y-73874242D01*
X33463244Y-73810808D01*
X33424617Y-73755644D01*
%TO.C,MX4*%
X92351568Y-60539870D02*
X92525216Y-59555062D01*
X92729451Y-60316379D01*
X93181755Y-59670828D01*
X93008106Y-60655635D01*
X93556920Y-59736979D02*
X94039810Y-60837552D01*
X94213458Y-59852745D02*
X93383271Y-60721787D01*
X94952801Y-60321586D02*
X94837035Y-60978125D01*
X94784474Y-59905077D02*
X94425962Y-60567166D01*
X95035605Y-60674662D01*
%TO.C,MX3*%
X75079568Y-47585870D02*
X75253216Y-46601062D01*
X75457451Y-47362379D01*
X75909755Y-46716828D01*
X75736106Y-47701635D01*
X76284920Y-46782979D02*
X76767810Y-47883552D01*
X76941458Y-46898745D02*
X76111271Y-47767787D01*
X77222832Y-46948358D02*
X77832475Y-47055855D01*
X77438054Y-47373137D01*
X77578740Y-47397944D01*
X77664263Y-47461377D01*
X77702889Y-47516542D01*
X77733247Y-47618602D01*
X77691902Y-47853080D01*
X77628469Y-47938602D01*
X77573304Y-47977229D01*
X77471244Y-48007587D01*
X77189870Y-47957973D01*
X77104348Y-47894540D01*
X77065721Y-47839375D01*
%TO.C,MX2*%
X54505568Y-53554870D02*
X54679216Y-52570062D01*
X54883451Y-53331379D01*
X55335755Y-52685828D01*
X55162106Y-53670635D01*
X55710920Y-52751979D02*
X56193810Y-53852552D01*
X56367458Y-52867745D02*
X55537271Y-53736787D01*
X56679189Y-53019419D02*
X56734354Y-52980792D01*
X56836414Y-52950434D01*
X57070892Y-52991779D01*
X57156414Y-53055213D01*
X57195041Y-53110377D01*
X57225399Y-53212437D01*
X57208861Y-53306229D01*
X57137158Y-53438646D01*
X56475183Y-53902166D01*
X57084826Y-54009663D01*
%TO.C,MX1*%
X34820568Y-54697870D02*
X34994216Y-53713062D01*
X35198451Y-54474379D01*
X35650755Y-53828828D01*
X35477106Y-54813635D01*
X36025920Y-53894979D02*
X36508810Y-54995552D01*
X36682458Y-54010745D02*
X35852271Y-54879787D01*
X37399826Y-55152663D02*
X36837079Y-55053435D01*
X37118453Y-55103049D02*
X37292101Y-54118241D01*
X37173503Y-54242390D01*
X37063174Y-54319643D01*
X36961114Y-54350001D01*
%TO.C,J1*%
X123488423Y-74705215D02*
X123364389Y-75408649D01*
X123292686Y-75541067D01*
X123182357Y-75618321D01*
X123033401Y-75640409D01*
X122939610Y-75623871D01*
X124299583Y-75863671D02*
X123736836Y-75764444D01*
X124018209Y-75814057D02*
X124191857Y-74829250D01*
X124073259Y-74953399D01*
X123962930Y-75030652D01*
X123860870Y-75061010D01*
%TD*%
M02*
